<svg width="207" height="60" viewBox="0 0 207 60" fill="none" xmlns="http://www.w3.org/2000/svg">
<g filter="url(#filter0_di_85_578)">
<rect x="7.5" y="5.625" width="195" height="45" rx="10" fill="#1D3461"/>
<rect x="7.5" y="5.625" width="195" height="45" rx="10" fill="black" fill-opacity="0.2"/>
</g>
<path d="M14.1665 50.8333V47.5C14.1665 43.3383 18.3398 40 22.4998 40C27.4998 44.1667 32.4998 44.1667 37.4998 40C41.6615 40 45.8332 43.3383 45.8332 47.5V50.8333" fill="#92D3F5"/>
<path d="M21.6668 32.5C18.3335 32.5 18.3335 27.5 18.3335 21.6667C18.3335 15.8333 21.6668 10 30.0002 10C38.3335 10 41.6668 15.8333 41.6668 21.6667C41.6668 27.5 41.6668 32.5 38.3335 32.5" fill="#F1B31C"/>
<path d="M20.7798 25.8333C20.7798 33.3333 24.894 37.5 29.9465 37.5C34.894 37.5 39.1665 33.3333 39.1665 25.8333C39.1665 23.3333 38.3331 21.6667 38.3331 21.6667C35.8331 19.1667 32.4998 15 32.4998 15C29.1665 17.5 26.6665 20 21.6665 20.8333C21.6665 20.8333 20.7798 21.6667 20.7798 25.8333Z" fill="#FCEA2B"/>
<path d="M21.6665 32.5C18.3332 32.5 18.3332 27.5 18.3332 21.6667C18.3332 15.8333 21.6665 10 29.9998 10C38.3332 10 41.6665 15.8333 41.6665 21.6667C41.6665 27.5 41.6665 32.5 38.3332 32.5M14.1665 50V47.5C14.1665 43.3383 18.3398 40 22.4998 40C27.4998 44.1667 32.4998 44.1667 37.4998 40C41.6615 40 45.8332 43.3383 45.8332 47.5V50" stroke="black" stroke-width="2" stroke-linecap="round" stroke-linejoin="round"/>
<path d="M34.894 25C34.894 25.442 34.7184 25.8659 34.4059 26.1785C34.0933 26.4911 33.6694 26.6666 33.2274 26.6666C32.7854 26.6666 32.3614 26.4911 32.0489 26.1785C31.7363 25.8659 31.5607 25.442 31.5607 25C31.5607 24.558 31.7363 24.134 32.0489 23.8215C32.3614 23.5089 32.7854 23.3333 33.2274 23.3333C33.6694 23.3333 34.0933 23.5089 34.4059 23.8215C34.7184 24.134 34.894 24.558 34.894 25ZM28.2274 25C28.2274 25.442 28.0518 25.8659 27.7392 26.1785C27.4267 26.4911 27.0027 26.6666 26.5607 26.6666C26.1187 26.6666 25.6948 26.4911 25.3822 26.1785C25.0696 25.8659 24.894 25.442 24.894 25C24.894 24.558 25.0696 24.134 25.3822 23.8215C25.6948 23.5089 26.1187 23.3333 26.5607 23.3333C27.0027 23.3333 27.4267 23.5089 27.7392 23.8215C28.0518 24.134 28.2274 24.558 28.2274 25Z" fill="black"/>
<path d="M20.7798 25.8333C20.7798 33.3333 24.894 37.5 29.9465 37.5C34.894 37.5 39.1665 33.3333 39.1665 25.8333C39.1665 23.3333 38.3331 21.6667 38.3331 21.6667C35.8331 19.1667 32.4998 15 32.4998 15C29.1665 17.5 26.6665 20 21.6665 20.8333C21.6665 20.8333 20.7798 21.6667 20.7798 25.8333Z" stroke="black" stroke-width="2" stroke-linejoin="round"/>
<path d="M27.5 31.6667C29.115 32.4492 30.8333 32.5 32.5 31.6667" stroke="black" stroke-width="2" stroke-linecap="round" stroke-linejoin="round"/>
<path d="M86.1655 39.0122H83.0894L81.2339 29.3687L77.6328 39.2441H76.4976L72.8965 29.3687L70.9678 39.0122H67.9038L71.5049 21.1167H73.1895L77.0591 33.165L80.8433 21.1167H82.5156L86.1655 39.0122ZM98.8555 33.397H89.5171C89.5741 34.4386 89.9321 35.2484 90.5913 35.8262C91.2505 36.404 92.1375 36.6929 93.2524 36.6929C94.644 36.6929 95.702 36.3307 96.4263 35.6064L97.6104 37.938C96.5361 38.8088 94.9329 39.2441 92.8008 39.2441C90.807 39.2441 89.2282 38.6623 88.0645 37.4985C86.9089 36.3267 86.3311 34.695 86.3311 32.6035C86.3311 30.5446 86.9658 28.8763 88.2354 27.5986C89.513 26.321 91.043 25.6821 92.8252 25.6821C94.7214 25.6821 96.2432 26.2477 97.3906 27.3789C98.5381 28.5101 99.1118 29.9505 99.1118 31.7002C99.1118 32.0745 99.0264 32.6401 98.8555 33.397ZM89.627 31.1021H96.0479C95.8363 29.1896 94.7783 28.2334 92.874 28.2334C91.1325 28.2334 90.0501 29.1896 89.627 31.1021ZM109.238 39.0122V37.9136C108.807 38.2798 108.213 38.5931 107.456 38.8535C106.699 39.1139 106.003 39.2441 105.369 39.2441C102.333 39.2441 100.815 37.6328 100.815 34.4102V25.9263H103.867V34.1782C103.867 35.8547 104.62 36.6929 106.125 36.6929C106.817 36.6929 107.46 36.5138 108.054 36.1558C108.648 35.7977 109.043 35.3826 109.238 34.9106V25.9263H112.29V39.0122H109.238ZM124.987 32.4204V39H121.813V21.1289C123.929 21.0394 125.166 20.9946 125.524 20.9946C128.348 20.9946 130.411 21.43 131.713 22.3008C133.023 23.1634 133.678 24.5143 133.678 26.3535C133.678 30.4551 131.261 32.5059 126.427 32.5059C126.069 32.5059 125.589 32.4774 124.987 32.4204ZM124.987 23.8755V29.6006C125.524 29.6576 125.947 29.686 126.256 29.686C127.705 29.686 128.763 29.446 129.43 28.9658C130.097 28.4775 130.431 27.6882 130.431 26.5977C130.431 24.7422 128.938 23.8145 125.951 23.8145C125.618 23.8145 125.296 23.8348 124.987 23.8755ZM146.051 33.397H136.712C136.769 34.4386 137.127 35.2484 137.787 35.8262C138.446 36.404 139.333 36.6929 140.448 36.6929C141.839 36.6929 142.897 36.3307 143.622 35.6064L144.806 37.938C143.731 38.8088 142.128 39.2441 139.996 39.2441C138.002 39.2441 136.424 38.6623 135.26 37.4985C134.104 36.3267 133.526 34.695 133.526 32.6035C133.526 30.5446 134.161 28.8763 135.431 27.5986C136.708 26.321 138.238 25.6821 140.021 25.6821C141.917 25.6821 143.438 26.2477 144.586 27.3789C145.733 28.5101 146.307 29.9505 146.307 31.7002C146.307 32.0745 146.222 32.6401 146.051 33.397ZM136.822 31.1021H143.243C143.032 29.1896 141.974 28.2334 140.069 28.2334C138.328 28.2334 137.245 29.1896 136.822 31.1021ZM155.567 28.7705C155.022 28.4124 154.424 28.2334 153.772 28.2334C153.064 28.2334 152.434 28.5549 151.88 29.1978C151.335 29.8407 151.062 30.626 151.062 31.5537V39H148.011V25.9263H151.062V27.1226C151.917 26.1623 153.052 25.6821 154.468 25.6821C155.51 25.6821 156.307 25.8408 156.861 26.1582L155.567 28.7705ZM165.242 23.3628C164.574 23.1431 164.062 23.0332 163.704 23.0332C163.126 23.0332 162.633 23.2814 162.227 23.7778C161.828 24.2743 161.628 24.8846 161.628 25.6089C161.628 25.7147 161.632 25.8205 161.641 25.9263H164.351V28.4409H161.689V39H158.638V28.4409H156.733V25.9263H158.65C158.715 24.3231 159.187 23.0291 160.066 22.0444C160.953 21.0597 162.096 20.5674 163.496 20.5674C164.22 20.5674 165.103 20.7261 166.145 21.0435L165.242 23.3628ZM168.85 20.8604C169.338 20.8604 169.753 21.0353 170.095 21.3853C170.445 21.7271 170.62 22.1421 170.62 22.6304C170.62 23.1187 170.445 23.5378 170.095 23.8877C169.753 24.2295 169.338 24.4004 168.85 24.4004C168.361 24.4004 167.942 24.2295 167.592 23.8877C167.25 23.5378 167.08 23.1187 167.08 22.6304C167.08 22.1421 167.25 21.7271 167.592 21.3853C167.942 21.0353 168.361 20.8604 168.85 20.8604ZM167.275 39V28.4287H165.603V25.9263H170.363V39H167.275ZM173.703 21.0557L176.754 20.3232V35.0205C176.754 36.6318 177.235 37.5921 178.195 37.9014C177.723 38.7965 176.917 39.2441 175.778 39.2441C174.394 39.2441 173.703 38.2839 173.703 36.3633V21.0557Z" fill="#F6F7F8"/>
<defs>
<filter id="filter0_di_85_578" x="3.5" y="5.625" width="203" height="53" filterUnits="userSpaceOnUse" color-interpolation-filters="sRGB">
<feFlood flood-opacity="0" result="BackgroundImageFix"/>
<feColorMatrix in="SourceAlpha" type="matrix" values="0 0 0 0 0 0 0 0 0 0 0 0 0 0 0 0 0 0 127 0" result="hardAlpha"/>
<feOffset dy="4"/>
<feGaussianBlur stdDeviation="2"/>
<feComposite in2="hardAlpha" operator="out"/>
<feColorMatrix type="matrix" values="0 0 0 0 0 0 0 0 0 0 0 0 0 0 0 0 0 0 0.25 0"/>
<feBlend mode="normal" in2="BackgroundImageFix" result="effect1_dropShadow_85_578"/>
<feBlend mode="normal" in="SourceGraphic" in2="effect1_dropShadow_85_578" result="shape"/>
<feColorMatrix in="SourceAlpha" type="matrix" values="0 0 0 0 0 0 0 0 0 0 0 0 0 0 0 0 0 0 127 0" result="hardAlpha"/>
<feOffset dy="4"/>
<feGaussianBlur stdDeviation="2"/>
<feComposite in2="hardAlpha" operator="arithmetic" k2="-1" k3="1"/>
<feColorMatrix type="matrix" values="0 0 0 0 0 0 0 0 0 0 0 0 0 0 0 0 0 0 0.25 0"/>
<feBlend mode="normal" in2="shape" result="effect2_innerShadow_85_578"/>
</filter>
</defs>
</svg>
