<svg width="248" height="248" viewBox="0 0 248 248" fill="none" xmlns="http://www.w3.org/2000/svg">
<g filter="url(#filter0_di_25_237)">
<rect x="4" width="240" height="240" rx="20" fill="#F6F7F8"/>
</g>
<path d="M89.4518 48.1083C89.2632 48.2214 89.0849 48.3558 88.9207 48.5114L79.9635 56.9944C77.3635 59.4568 77.3456 63.4506 79.9098 65.934L79.9669 65.9929L80.245 66.2791C80.4889 66.5301 80.8476 66.8983 81.3084 67.3694C82.23 68.3119 83.5602 69.6662 85.1977 71.3177C88.472 74.6196 92.9788 79.1128 97.906 83.8744C107.658 93.2984 119.368 104.083 126.346 108.525C134.206 113.552 141.348 116.383 146.562 117.96C149.17 118.749 151.297 119.225 152.793 119.505C153.541 119.646 154.132 119.737 154.547 119.795C154.754 119.824 154.918 119.844 155.035 119.858L155.142 119.87C157.22 120.179 159.057 120.237 160.694 119.913C162.445 119.567 163.816 118.815 164.931 117.758L167.086 115.718C167.246 115.566 167.385 115.401 167.504 115.225C168.32 114.524 169.001 113.69 169.514 112.76C170.218 111.486 170.584 110.069 170.582 108.631C170.222 104.861 166.467 102.684 163.142 100.76C161.469 99.9741 159.976 98.8847 158.747 97.5531L156.3 92.1426H156.321C158.107 92.1426 159.553 90.7724 159.553 89.0817C159.553 87.3909 158.107 86.0208 156.321 86.0208H153.53L151.547 81.6355C152.739 81.1851 153.582 80.0818 153.582 78.7912C153.582 77.1004 152.135 75.7303 150.35 75.7303H148.876L147.239 72.1123C148.954 72.0371 150.319 70.6973 150.319 69.0546C150.319 67.3639 148.872 65.9937 147.087 65.9937H144.471L143.206 63.1952C143.015 62.7579 142.898 62.4431 142.799 62.1749C142.389 60.9013 141.623 59.7562 140.583 58.8604L138.983 57.3416C138.238 56.6628 137.344 56.1651 136.376 55.8773V54.5664C134.451 49.0718 127.435 47.1559 122.729 50.5004L116.177 44.1739C116.766 43.611 117.232 42.9435 117.547 42.2097C117.863 41.4758 118.022 40.6902 118.016 39.8978C118.01 39.1054 117.839 38.322 117.512 37.5925C117.186 36.863 116.71 36.2019 116.113 35.6471C114.317 33.9519 111.884 33 109.349 33C106.813 33 104.38 33.9519 102.584 35.6471L89.4518 48.1083ZM118.576 74.8706L118.584 72.6986C118.584 67.7428 116.552 63.0203 112.92 59.493L99.655 46.6788L106.934 39.775C107.261 39.4641 107.654 39.2229 108.087 39.0674C108.52 38.9119 108.984 38.8458 109.446 38.8734C109.908 38.901 110.359 39.0217 110.768 39.2274C111.177 39.4332 111.536 39.7192 111.819 40.0665C110.639 41.1896 109.977 42.7093 109.977 44.2934C109.977 45.8776 110.639 47.3973 111.819 48.5204L125.455 61.4694C126.686 62.5938 128.33 63.222 130.041 63.222C131.751 63.222 133.395 62.5938 134.627 61.4694L136.228 62.9853C136.603 63.2628 136.869 63.652 136.982 64.0902L136.992 64.1178C137.125 64.4799 137.287 64.9183 137.545 65.4865L137.775 65.9937H134.867C133.082 65.9937 131.635 67.3639 131.635 69.0546C131.635 69.9 132.005 70.658 132.59 71.2118C133.174 71.7657 134.005 72.1155 134.867 72.1155H140.543L142.178 75.7303H139.761C137.976 75.7303 136.529 77.1004 136.529 78.7912C136.529 79.6366 136.899 80.3945 137.484 80.9484C138.068 81.5023 138.9 81.8521 139.761 81.8521H144.947L146.832 86.0208H143.824C142.039 86.0208 140.592 87.3909 140.592 89.0817C140.592 89.9271 140.962 90.685 141.546 91.2389C142.131 91.7927 142.931 92.1134 143.824 92.1426H149.601L153.089 99.856C154.7 102.419 157.088 104.463 159.944 105.721L159.953 105.726C161.503 106.622 164.38 108.285 164.457 109.115C164.457 109.277 164.288 109.776 163.518 110.592C162.651 110.492 161.468 110.334 160.053 110.093C156.895 109.553 152.623 108.604 148.138 106.971C139.083 103.673 129.721 97.8105 126.226 87.4375L126.224 87.4323C124.978 83.7583 122.168 79.4821 118.91 75.2965C118.799 75.1546 118.688 75.0126 118.576 74.8706ZM84.3094 61.856C84.2347 61.768 84.1939 61.6583 84.1939 61.5452C84.1939 61.4304 84.236 61.319 84.313 61.2304L91.1864 54.711C91.8013 55.2821 92.5269 55.9614 93.3403 56.7322C95.996 59.2492 99.5773 62.7332 103.288 66.6077C107.005 70.4883 110.818 74.7266 113.954 78.7559C117.139 82.8471 119.438 86.4881 120.362 89.2126C120.507 89.642 120.66 90.0649 120.82 90.4809L84.317 61.8633C84.3169 61.863 84.3172 61.8633 84.317 61.8633C84.3146 61.8609 84.3118 61.8583 84.3094 61.856Z" fill="#1D3461"/>
<path d="M74.4272 182.937V187.124H80.3354V189.821H74.4272V195.18H82.5327V198H71.2534V180.117H82.667V182.937H74.4272ZM84.498 197.158L85.5845 194.729C86.4959 195.453 87.5254 195.815 88.6729 195.815C89.861 195.815 90.4551 195.392 90.4551 194.545C90.4551 194.049 90.276 193.642 89.918 193.325C89.5599 193.007 88.8641 192.633 87.8306 192.202C85.5763 191.266 84.4492 189.956 84.4492 188.271C84.4492 187.14 84.8805 186.261 85.7432 185.634C86.6058 185 87.7085 184.682 89.0513 184.682C90.4103 184.682 91.688 184.987 92.8843 185.598L92.0054 187.966C91.3381 187.396 90.4103 187.111 89.2222 187.111C88.1561 187.111 87.623 187.535 87.623 188.381C87.623 188.715 87.798 189.016 88.1479 189.284C88.4979 189.553 89.2466 189.915 90.394 190.371C91.5415 190.818 92.3675 191.363 92.8721 192.006C93.3766 192.649 93.6289 193.426 93.6289 194.338C93.6289 195.55 93.1772 196.507 92.2739 197.207C91.3787 197.898 90.158 198.244 88.6118 198.244C87.741 198.244 87.0412 198.171 86.5122 198.024C85.9914 197.886 85.32 197.597 84.498 197.158ZM98.8779 197.67V203.127H95.8262V184.926H98.8779V185.805C99.6429 185.056 100.583 184.682 101.698 184.682C105.864 184.682 107.948 186.977 107.948 191.567C107.948 193.707 107.37 195.355 106.214 196.511C105.067 197.666 103.496 198.244 101.502 198.244C100.542 198.244 99.6673 198.053 98.8779 197.67ZM98.8779 188.125V194.997C99.4313 195.445 100.078 195.668 100.819 195.668C102.227 195.668 103.236 195.335 103.846 194.667C104.465 193.992 104.774 192.93 104.774 191.481C104.774 189.935 104.469 188.849 103.858 188.222C103.248 187.587 102.239 187.27 100.831 187.27C100.099 187.27 99.4476 187.555 98.8779 188.125ZM109.791 191.433C109.791 189.439 110.365 187.815 111.512 186.562C112.668 185.309 114.19 184.682 116.078 184.682C118.063 184.682 119.605 185.284 120.704 186.489C121.803 187.693 122.352 189.341 122.352 191.433C122.352 193.516 121.791 195.172 120.667 196.401C119.553 197.63 118.023 198.244 116.078 198.244C114.092 198.244 112.546 197.626 111.439 196.389C110.34 195.144 109.791 193.492 109.791 191.433ZM112.965 191.433C112.965 194.313 114.002 195.754 116.078 195.754C117.03 195.754 117.783 195.38 118.336 194.631C118.897 193.882 119.178 192.816 119.178 191.433C119.178 188.592 118.145 187.172 116.078 187.172C115.125 187.172 114.369 187.547 113.807 188.295C113.246 189.044 112.965 190.09 112.965 191.433ZM132.362 187.771C131.817 187.412 131.218 187.233 130.567 187.233C129.859 187.233 129.229 187.555 128.675 188.198C128.13 188.841 127.857 189.626 127.857 190.554V198H124.806V184.926H127.857V186.123C128.712 185.162 129.847 184.682 131.263 184.682C132.305 184.682 133.102 184.841 133.656 185.158L132.362 187.771ZM135.963 187.38H134.449V184.926H135.963V182.265L139.015 181.142V184.926H142.604V187.38H139.015V193.105C139.015 194.041 139.161 194.704 139.454 195.095C139.747 195.477 140.26 195.668 140.992 195.668C141.725 195.668 142.408 195.469 143.043 195.07V197.878C142.335 198.122 141.326 198.244 140.016 198.244C138.714 198.244 137.713 197.878 137.013 197.146C136.313 196.405 135.963 195.355 135.963 193.996V187.38ZM147.804 179.86C148.292 179.86 148.707 180.035 149.049 180.385C149.399 180.727 149.574 181.142 149.574 181.63C149.574 182.119 149.399 182.538 149.049 182.888C148.707 183.229 148.292 183.4 147.804 183.4C147.315 183.4 146.896 183.229 146.546 182.888C146.205 182.538 146.034 182.119 146.034 181.63C146.034 181.142 146.205 180.727 146.546 180.385C146.896 180.035 147.315 179.86 147.804 179.86ZM146.229 198V187.429H144.557V184.926H149.317V198H146.229ZM158.302 198.244H157.203L151.295 184.926H154.64L157.765 192.91L161.122 184.926H164.356L158.302 198.244ZM165.211 191.433C165.211 189.439 165.785 187.815 166.932 186.562C168.088 185.309 169.61 184.682 171.498 184.682C173.483 184.682 175.025 185.284 176.124 186.489C177.223 187.693 177.772 189.341 177.772 191.433C177.772 193.516 177.21 195.172 176.087 196.401C174.972 197.63 173.443 198.244 171.498 198.244C169.512 198.244 167.966 197.626 166.859 196.389C165.76 195.144 165.211 193.492 165.211 191.433ZM168.385 191.433C168.385 194.313 169.422 195.754 171.498 195.754C172.45 195.754 173.202 195.38 173.756 194.631C174.317 193.882 174.598 192.816 174.598 191.433C174.598 188.592 173.565 187.172 171.498 187.172C170.545 187.172 169.789 187.547 169.227 188.295C168.666 189.044 168.385 190.09 168.385 191.433Z" fill="#1D3461"/>
<defs>
<filter id="filter0_di_25_237" x="0" y="0" width="248" height="248" filterUnits="userSpaceOnUse" color-interpolation-filters="sRGB">
<feFlood flood-opacity="0" result="BackgroundImageFix"/>
<feColorMatrix in="SourceAlpha" type="matrix" values="0 0 0 0 0 0 0 0 0 0 0 0 0 0 0 0 0 0 127 0" result="hardAlpha"/>
<feOffset dy="4"/>
<feGaussianBlur stdDeviation="2"/>
<feComposite in2="hardAlpha" operator="out"/>
<feColorMatrix type="matrix" values="0 0 0 0 0 0 0 0 0 0 0 0 0 0 0 0 0 0 0.25 0"/>
<feBlend mode="normal" in2="BackgroundImageFix" result="effect1_dropShadow_25_237"/>
<feBlend mode="normal" in="SourceGraphic" in2="effect1_dropShadow_25_237" result="shape"/>
<feColorMatrix in="SourceAlpha" type="matrix" values="0 0 0 0 0 0 0 0 0 0 0 0 0 0 0 0 0 0 127 0" result="hardAlpha"/>
<feOffset dy="4"/>
<feGaussianBlur stdDeviation="2"/>
<feComposite in2="hardAlpha" operator="arithmetic" k2="-1" k3="1"/>
<feColorMatrix type="matrix" values="0 0 0 0 0 0 0 0 0 0 0 0 0 0 0 0 0 0 0.25 0"/>
<feBlend mode="normal" in2="shape" result="effect2_innerShadow_25_237"/>
</filter>
</defs>
</svg>
