<svg width="73" height="73" viewBox="0 0 73 73" fill="none" xmlns="http://www.w3.org/2000/svg">
<mask id="mask0_473_432" style="mask-type:luminance" maskUnits="userSpaceOnUse" x="15" y="5" width="48" height="63">
<path d="M22.813 31.3474C20.6473 40.7005 32.6877 43.0806 29.8453 49.6704C27.0013 56.2586 20.6367 54.9416 21.3469 61.5298C22.0586 68.1196 30.481 68.2124 38.1491 64.243C53.4836 56.3027 56.6835 38.9591 49.7439 31.3474C41.2151 21.9942 24.9786 21.9942 22.813 31.3474Z" fill="white" stroke="white" stroke-width="1.8"/>
<path d="M49.5896 24.0796C50.8765 25.1594 53.2327 24.4699 54.8524 22.5396C56.4721 20.6094 56.7419 18.1692 55.4551 17.0894C54.1682 16.0096 51.812 16.6991 50.1923 18.6294C48.5726 20.5596 48.3028 22.9998 49.5896 24.0796Z" fill="white"/>
<path d="M42.7558 20.2611C44.2782 20.971 46.3757 19.6952 47.4406 17.4115C48.5056 15.1278 48.1346 12.701 46.6122 11.991C45.0897 11.2811 42.9922 12.5569 41.9273 14.8406C40.8624 17.1243 41.2333 19.5511 42.7558 20.2611Z" fill="white"/>
<path d="M35.0819 19.1422C36.7526 19.3178 38.3204 17.4286 38.5838 14.9227C38.8472 12.4167 37.7064 10.2428 36.0357 10.0672C34.3651 9.89161 32.7972 11.7808 32.5338 14.2868C32.2704 16.7928 33.4113 18.9666 35.0819 19.1422Z" fill="white"/>
<path d="M23.3724 17.883C25.7403 17.0211 26.7282 13.7631 25.5791 10.606C24.43 7.44891 21.579 5.58821 19.2112 6.45003C16.8433 7.31185 15.8554 10.5698 17.0045 13.727C18.1535 16.8841 21.0046 18.7448 23.3724 17.883Z" fill="white" stroke="white" stroke-width="1.8"/>
<path d="M55.1105 29.602C56.1903 30.8888 58.6304 30.619 60.5607 28.9993C62.491 27.3796 63.1805 25.0234 62.1007 23.7365C61.0209 22.4497 58.5807 22.7195 56.6504 24.3392C54.7202 25.9589 54.0307 28.3151 55.1105 29.602Z" fill="white"/>
</mask>
<g mask="url(#mask0_473_432)">
<path d="M0 0H73V73H0V0Z" fill="#F6F7F8"/>
</g>
</svg>
