<svg width="25" height="25" viewBox="0 0 25 25" fill="none" xmlns="http://www.w3.org/2000/svg">
<mask id="mask0_473_684" style="mask-type:luminance" maskUnits="userSpaceOnUse" x="4" y="1" width="18" height="23">
<path d="M7.81288 10.7354C7.07121 13.9385 11.1946 14.7536 10.2212 17.0104C9.24725 19.2666 7.06756 18.8156 7.31079 21.0718C7.55454 23.3286 10.4389 23.3604 13.065 22.001C18.3165 19.2817 19.4124 13.3421 17.0358 10.7354C14.115 7.53223 8.55454 7.53223 7.81288 10.7354Z" fill="white" stroke="white" stroke-width="1.8"/>
<path d="M16.9826 8.24632C17.4233 8.61611 18.2302 8.38 18.7849 7.71895C19.3396 7.05789 19.432 6.22223 18.9913 5.85243C18.5506 5.48264 17.7437 5.71875 17.189 6.37981C16.6343 7.04086 16.5419 7.87653 16.9826 8.24632Z" fill="white"/>
<path d="M14.6429 6.9387C15.1643 7.18183 15.8826 6.74491 16.2473 5.96282C16.612 5.18073 16.485 4.34962 15.9636 4.10649C15.4422 3.86336 14.7239 4.30027 14.3592 5.08237C13.9945 5.86446 14.1215 6.69557 14.6429 6.9387Z" fill="white"/>
<path d="M12.015 6.55563C12.5871 6.61577 13.1241 5.96879 13.2143 5.11057C13.3045 4.25236 12.9138 3.50789 12.3416 3.44775C11.7695 3.38762 11.2325 4.03459 11.1423 4.89281C11.0521 5.75103 11.4428 6.4955 12.015 6.55563Z" fill="white"/>
<path d="M8.00468 6.12439C8.81558 5.82924 9.15394 4.71349 8.76041 3.63229C8.36688 2.55108 7.3905 1.91386 6.5796 2.209C5.76869 2.50415 5.43034 3.6199 5.82387 4.7011C6.2174 5.78231 7.19378 6.41953 8.00468 6.12439Z" fill="white" stroke="white" stroke-width="1.8"/>
<path d="M18.8743 10.1377C19.2441 10.5784 20.0798 10.486 20.7408 9.93134C21.4019 9.37665 21.638 8.56972 21.2682 8.12902C20.8984 7.68831 20.0627 7.78072 19.4017 8.33541C18.7406 8.8901 18.5045 9.69703 18.8743 10.1377Z" fill="white"/>
</mask>
<g mask="url(#mask0_473_684)">
<path d="M0 0H25V25H0V0Z" fill="#1D3461"/>
</g>
</svg>
