<svg width="179" height="179" viewBox="0 0 179 179" fill="none" xmlns="http://www.w3.org/2000/svg">
<path d="M167.812 122.451C167.812 127.287 167.259 132.036 166.152 136.697C165.045 141.359 163.384 145.787 161.17 149.982C158.956 154.178 156.363 158.023 153.391 161.52C150.419 165.016 146.952 168.075 142.99 170.697C139.028 173.319 134.833 175.3 130.404 176.64C125.976 177.98 121.169 178.709 115.983 178.825C112.545 178.825 109.107 178.505 105.669 177.864C102.232 177.223 98.9103 176.261 95.7056 174.979C92.5008 173.698 89.4126 172.124 86.4409 170.26C83.4692 168.395 80.7889 166.21 78.3999 163.705L24.123 109.428C22.5498 107.854 21.3553 106.048 20.5396 104.009C19.7238 101.969 19.2868 99.8135 19.2285 97.541C19.2285 94.2197 20.1317 91.1898 21.938 88.4512C23.7443 85.7126 26.1916 83.644 29.2798 82.2456C27.8231 79.6235 27.0947 76.8558 27.0947 73.9424C27.0947 70.6211 27.9979 67.562 29.8042 64.7651C31.6105 61.9683 34.0869 59.8997 37.2334 58.5596C35.7184 55.9958 34.9609 53.228 34.9609 50.2563C34.9609 47.9256 35.3979 45.7406 36.272 43.7012C37.146 41.6618 38.3405 39.8846 39.8555 38.3696C41.3704 36.8547 43.1476 35.6602 45.187 34.7861C47.2264 33.9121 49.4115 33.4751 51.7422 33.4751C54.6556 33.4751 57.4233 34.2034 60.0454 35.6602C61.4438 32.5719 63.5124 30.1247 66.251 28.3184C68.9896 26.512 72.0487 25.6089 75.4282 25.6089C77.6424 25.6089 79.7692 26.0168 81.8086 26.8325C83.848 27.6483 85.6543 28.8719 87.2275 30.5034L134.25 77.5259V61.7061C134.25 59.4919 134.658 57.3651 135.474 55.3257C136.289 53.2863 137.513 51.4508 139.145 49.8193C140.718 48.3044 142.524 47.1099 144.563 46.2358C146.603 45.3618 148.759 44.9248 151.031 44.9248C153.362 44.9248 155.547 45.3618 157.586 46.2358C159.626 47.1099 161.403 48.3044 162.918 49.8193C164.433 51.3343 165.627 53.1115 166.501 55.1509C167.375 57.1903 167.812 59.3753 167.812 61.7061V122.451ZM156.625 122.188V61.7061C156.625 60.1911 156.071 58.88 154.964 57.7729C153.857 56.6659 152.546 56.1123 151.031 56.1123C149.458 56.1123 148.147 56.6367 147.098 57.6855C146.049 58.7344 145.496 60.0745 145.438 61.7061V81.5464C145.438 83.4692 144.913 85.2173 143.864 86.7905C142.815 88.3638 141.388 89.5291 139.582 90.2866C138.999 90.578 138.416 90.7528 137.833 90.811C137.251 90.8693 136.61 90.9276 135.911 90.9858C133.23 90.9858 130.987 90.0827 129.181 88.2764L79.3613 38.457C78.2542 37.3499 76.9432 36.7964 75.4282 36.7964C73.9132 36.7964 72.6022 37.3499 71.4951 38.457C70.388 39.5641 69.8345 40.8752 69.8345 42.3901C69.8345 43.9051 70.388 45.2161 71.4951 46.3232L103.047 77.8755C104.154 78.9826 104.708 80.2936 104.708 81.8086C104.708 83.3236 104.154 84.6346 103.047 85.7417C101.94 86.8488 100.629 87.4023 99.1143 87.4023C97.5993 87.4023 96.2882 86.8488 95.1812 85.7417L55.6753 46.3232C54.5682 45.2161 53.2572 44.6626 51.7422 44.6626C50.2272 44.6626 48.9162 45.2161 47.8091 46.3232C46.702 47.4303 46.1484 48.7414 46.1484 50.2563C46.1484 51.7713 46.702 53.0824 47.8091 54.1895L87.2275 93.6079C88.3346 94.715 88.8882 96.0552 88.8882 97.6284C88.8882 99.1434 88.3346 100.454 87.2275 101.562C86.1204 102.669 84.8094 103.222 83.2944 103.222C81.7795 103.222 80.4684 102.669 79.3613 101.562L47.8091 70.0093C46.702 68.9022 45.3909 68.3486 43.876 68.3486C42.361 68.3486 41.05 68.9022 39.9429 70.0093C38.8358 71.1164 38.2822 72.4274 38.2822 73.9424C38.2822 75.4574 38.8358 76.7684 39.9429 77.8755L75.4282 113.361C76.5353 114.468 77.0889 115.779 77.0889 117.294C77.0889 118.809 76.5353 120.12 75.4282 121.227C74.3211 122.334 73.0101 122.888 71.4951 122.888C69.9801 122.888 68.6691 122.334 67.562 121.227L39.8555 93.6953C38.7484 92.5882 37.4665 92.0347 36.0098 92.0347C34.4948 92.0347 33.1838 92.5591 32.0767 93.6079C30.9696 94.6567 30.416 95.9969 30.416 97.6284C30.416 99.0851 30.9696 100.367 32.0767 101.474L86.2661 155.751C90.1118 159.597 94.6567 162.51 99.9009 164.491C105.145 166.472 110.477 167.492 115.896 167.55C122.014 167.55 127.578 166.298 132.589 163.792C137.6 161.286 141.883 157.907 145.438 153.653C148.992 149.4 151.73 144.593 153.653 139.232C155.576 133.871 156.567 128.19 156.625 122.188ZM100.688 5.59375C100.688 4.07878 101.241 2.76774 102.348 1.66064C103.455 0.553548 104.766 0 106.281 0C111.7 0 116.77 1.01969 121.489 3.05908C126.209 5.09847 130.375 7.89534 133.988 11.4497C137.6 15.0041 140.397 19.1411 142.378 23.8608C144.36 28.5806 145.379 33.679 145.438 39.1562C145.438 40.6712 144.884 41.9823 143.777 43.0894C142.67 44.1965 141.359 44.75 139.844 44.75C138.329 44.75 137.018 44.1965 135.911 43.0894C134.804 41.9823 134.25 40.6712 134.25 39.1562C134.25 35.3105 133.522 31.6979 132.065 28.3184C130.608 24.9388 128.598 21.9963 126.034 19.4907C123.47 16.9852 120.499 14.9749 117.119 13.46C113.74 11.945 110.127 11.1875 106.281 11.1875C104.766 11.1875 103.455 10.634 102.348 9.52686C101.241 8.41976 100.688 7.10872 100.688 5.59375ZM100.688 25.1719C100.688 23.6569 101.241 22.3459 102.348 21.2388C103.455 20.1317 104.766 19.5781 106.281 19.5781C108.962 19.5781 111.496 20.0734 113.885 21.064C116.274 22.0545 118.343 23.453 120.091 25.2593C121.839 27.0656 123.237 29.1632 124.286 31.5522C125.335 33.9412 125.859 36.4759 125.859 39.1562C125.859 40.6712 125.306 41.9823 124.199 43.0894C123.092 44.1965 121.781 44.75 120.266 44.75C118.751 44.75 117.44 44.1965 116.333 43.0894C115.225 41.9823 114.672 40.6712 114.672 39.1562C114.672 36.8255 113.856 34.8444 112.225 33.2129C110.593 31.5814 108.612 30.7656 106.281 30.7656C104.766 30.7656 103.455 30.2121 102.348 29.105C101.241 27.9979 100.688 26.6868 100.688 25.1719ZM44.75 162.219C44.75 163.734 44.1965 165.045 43.0894 166.152C41.9823 167.259 40.6712 167.812 39.1562 167.812C33.7373 167.812 28.668 166.793 23.9482 164.753C19.2285 162.714 15.0623 159.917 11.4497 156.363C7.83708 152.808 5.0402 148.671 3.05908 143.952C1.07796 139.232 0.0582682 134.133 0 128.656C0 127.141 0.553548 125.83 1.66064 124.723C2.76774 123.616 4.07878 123.062 5.59375 123.062C7.10872 123.062 8.41976 123.616 9.52686 124.723C10.634 125.83 11.1875 127.141 11.1875 128.656C11.1875 132.502 11.9159 136.115 13.3726 139.494C14.8293 142.874 16.8104 145.845 19.3159 148.409C21.8215 150.973 24.7931 152.983 28.231 154.44C31.6688 155.897 35.3105 156.625 39.1562 156.625C40.6712 156.625 41.9823 157.179 43.0894 158.286C44.1965 159.393 44.75 160.704 44.75 162.219ZM44.75 142.641C44.75 144.156 44.1965 145.467 43.0894 146.574C41.9823 147.681 40.6712 148.234 39.1562 148.234C36.4176 148.234 33.883 147.739 31.5522 146.749C29.2215 145.758 27.153 144.36 25.3467 142.553C23.5404 140.747 22.1419 138.678 21.1514 136.348C20.1608 134.017 19.6364 131.453 19.5781 128.656C19.5781 127.141 20.1317 125.83 21.2388 124.723C22.3459 123.616 23.6569 123.062 25.1719 123.062C26.6868 123.062 27.9979 123.616 29.105 124.723C30.2121 125.83 30.7656 127.141 30.7656 128.656C30.7656 130.987 31.5814 132.968 33.2129 134.6C34.8444 136.231 36.8255 137.047 39.1562 137.047C40.6712 137.047 41.9823 137.6 43.0894 138.708C44.1965 139.815 44.75 141.126 44.75 142.641Z" fill="#1D3461"/>
</svg>
