<svg width="391" height="391" viewBox="0 0 391 391" fill="none" xmlns="http://www.w3.org/2000/svg">
<path d="M92.3193 331.264V309.542C92.3193 282.421 119.516 260.667 146.625 260.667C179.208 287.819 211.792 287.819 244.375 260.667C271.495 260.667 298.68 282.421 298.68 309.542V331.264" fill="#92D3F5"/>
<path d="M141.194 211.792C119.472 211.792 119.472 179.208 119.472 141.194C119.472 103.181 141.194 65.1667 195.5 65.1667C249.806 65.1667 271.528 103.181 271.528 141.194C271.528 179.208 271.528 211.792 249.806 211.792" fill="#F1B31C"/>
<path d="M135.417 168.347C135.417 217.222 162.227 244.375 195.153 244.375C227.394 244.375 255.236 217.222 255.236 168.347C255.236 152.056 249.806 141.194 249.806 141.194C233.514 124.903 211.792 97.75 211.792 97.75C190.07 114.042 173.778 130.333 141.195 135.764C141.195 135.764 135.417 141.194 135.417 168.347Z" fill="#FCEA2B"/>
<path d="M141.194 211.792C119.472 211.792 119.472 179.208 119.472 141.194C119.472 103.181 141.194 65.1667 195.5 65.1667C249.805 65.1667 271.528 103.181 271.528 141.194C271.528 179.208 271.528 211.792 249.805 211.792M92.3193 325.833V309.542C92.3193 282.421 119.516 260.667 146.625 260.667C179.208 287.819 211.792 287.819 244.375 260.667C271.495 260.667 298.68 282.421 298.68 309.542V325.833" stroke="black" stroke-width="2" stroke-linecap="round" stroke-linejoin="round"/>
<path d="M227.394 162.917C227.394 165.797 226.249 168.56 224.213 170.597C222.176 172.633 219.413 173.778 216.533 173.778C213.652 173.778 210.889 172.633 208.853 170.597C206.816 168.56 205.672 165.797 205.672 162.917C205.672 160.036 206.816 157.274 208.853 155.237C210.889 153.2 213.652 152.056 216.533 152.056C219.413 152.056 222.176 153.2 224.213 155.237C226.249 157.274 227.394 160.036 227.394 162.917ZM183.949 162.917C183.949 165.797 182.805 168.56 180.768 170.597C178.731 172.633 175.969 173.778 173.088 173.778C170.208 173.778 167.445 172.633 165.408 170.597C163.371 168.56 162.227 165.797 162.227 162.917C162.227 160.036 163.371 157.274 165.408 155.237C167.445 153.2 170.208 152.056 173.088 152.056C175.969 152.056 178.731 153.2 180.768 155.237C182.805 157.274 183.949 160.036 183.949 162.917Z" fill="black"/>
<path d="M135.417 168.347C135.417 217.222 162.227 244.375 195.153 244.375C227.394 244.375 255.236 217.222 255.236 168.347C255.236 152.056 249.806 141.194 249.806 141.194C233.514 124.903 211.792 97.75 211.792 97.75C190.07 114.042 173.778 130.333 141.195 135.764C141.195 135.764 135.417 141.194 135.417 168.347Z" stroke="black" stroke-width="2" stroke-linejoin="round"/>
<path d="M179.208 206.361C189.733 211.46 200.931 211.792 211.792 206.361" stroke="black" stroke-width="2" stroke-linecap="round" stroke-linejoin="round"/>
</svg>
