<svg width="200" height="283" viewBox="0 0 200 283" fill="none" xmlns="http://www.w3.org/2000/svg">
<path d="M69.5083 90.4984C69.5083 90.4984 77.7392 83.5863 88.294 86.7982" stroke="#1D3461" stroke-width="6" stroke-miterlimit="10" stroke-linecap="round" stroke-linejoin="round"/>
<path d="M130.587 90.4984C130.587 90.4984 122.357 83.5863 111.802 86.7982" stroke="#1D3461" stroke-width="6" stroke-miterlimit="10" stroke-linecap="round" stroke-linejoin="round"/>
<path d="M154.88 94.1124L134.711 105.541" stroke="#1D3461" stroke-width="6" stroke-miterlimit="10" stroke-linecap="round" stroke-linejoin="round"/>
<path d="M153.253 86.0228C147.059 62.4671 125.633 45.072 100.144 45.0002C74.5823 44.9403 53.0418 62.3211 46.795 85.927" stroke="#1D3461" stroke-width="6" stroke-miterlimit="10" stroke-linecap="round" stroke-linejoin="round"/>
<path d="M48.5662 119.698C56.4595 140.353 76.4491 155.048 99.8804 155.096C123.415 155.151 143.536 140.429 151.458 119.674" stroke="#1D3461" stroke-width="6" stroke-miterlimit="10" stroke-linecap="round" stroke-linejoin="round"/>
<path d="M65.3916 105.792L134.704 105.539C134.704 158.696 65.3916 158.792 65.3916 105.806V105.792Z" stroke="#1D3461" stroke-width="6" stroke-miterlimit="10" stroke-linecap="round" stroke-linejoin="round"/>
<path d="M155 103.279L129.654 127.931" stroke="#1D3461" stroke-width="6" stroke-miterlimit="10" stroke-linecap="round" stroke-linejoin="round"/>
<path d="M45.1196 94.1124L65.2887 105.541" stroke="#1D3461" stroke-width="6" stroke-miterlimit="10" stroke-linecap="round" stroke-linejoin="round"/>
<path d="M45 103.279L70.346 127.931" stroke="#1D3461" stroke-width="6" stroke-miterlimit="10" stroke-linecap="round" stroke-linejoin="round"/>
</svg>
