<svg width="144" height="172" viewBox="0 0 144 172" fill="none" xmlns="http://www.w3.org/2000/svg">
<mask id="mask0_296_2179" style="mask-type:luminance" maskUnits="userSpaceOnUse" x="0" y="0" width="144" height="172">
<path d="M71.875 67.5C76.1265 67.5 80.3365 66.6626 84.2644 65.0356C88.1923 63.4086 91.7613 61.0239 94.7676 58.0176C97.7739 55.0113 100.159 51.4423 101.786 47.5144C103.413 43.5865 104.25 39.3765 104.25 35.125C104.25 30.8735 103.413 26.6635 101.786 22.7356C100.159 18.8077 97.7739 15.2387 94.7676 12.2324C91.7613 9.22612 88.1923 6.8414 84.2644 5.2144C80.3365 3.5874 76.1265 2.75 71.875 2.75C63.2886 2.75 55.0539 6.16093 48.9824 12.2324C42.9109 18.3039 39.5 26.5386 39.5 35.125C39.5 43.7114 42.9109 51.9461 48.9824 58.0176C55.0539 64.0891 63.2886 67.5 71.875 67.5Z" fill="white" stroke="white" stroke-width="4" stroke-linecap="round" stroke-linejoin="round"/>
<path d="M2.5 163.7V169.25H141.25V163.7C141.25 142.98 141.25 132.62 137.217 124.702C133.67 117.74 128.01 112.08 121.048 108.533C113.13 104.5 102.77 104.5 82.05 104.5H61.7C40.98 104.5 30.62 104.5 22.702 108.533C15.7403 112.08 10.0803 117.74 6.533 124.702C2.5 132.62 2.5 142.98 2.5 163.7Z" fill="white" stroke="white" stroke-width="4" stroke-linecap="round" stroke-linejoin="round"/>
</mask>
<g mask="url(#mask0_296_2179)">
<path d="M-16 -25H206V197H-16V-25Z" fill="#1D3461"/>
</g>
</svg>
