<svg width="58" height="58" viewBox="0 0 58 58" fill="none" xmlns="http://www.w3.org/2000/svg">
<path d="M47.3667 50.75L32.1417 35.525C30.9333 36.4917 29.5438 37.2569 27.9729 37.8208C26.4021 38.3847 24.7306 38.6667 22.9583 38.6667C18.5681 38.6667 14.8528 37.1458 11.8127 34.104C8.7725 31.0622 7.25161 27.347 7.25 22.9583C7.25 18.5681 8.77089 14.8528 11.8127 11.8127C14.8544 8.7725 18.5697 7.25161 22.9583 7.25C27.3486 7.25 31.0638 8.77089 34.104 11.8127C37.1442 14.8544 38.6651 18.5697 38.6667 22.9583C38.6667 24.7306 38.3847 26.4021 37.8208 27.9729C37.2569 29.5438 36.4917 30.9333 35.525 32.1417L50.75 47.3667L47.3667 50.75ZM22.9583 33.8333C25.9792 33.8333 28.5473 32.7756 30.6627 30.6603C32.7781 28.5449 33.8349 25.9776 33.8333 22.9583C33.8333 19.9375 32.7756 17.3694 30.6603 15.254C28.5449 13.1386 25.9776 12.0817 22.9583 12.0833C19.9375 12.0833 17.3694 13.141 15.254 15.2564C13.1386 17.3718 12.0817 19.9391 12.0833 22.9583C12.0833 25.9792 13.141 28.5473 15.2564 30.6627C17.3718 32.7781 19.9391 33.8349 22.9583 33.8333Z" fill="#1D3461"/>
</svg>
