<svg width="87" height="87" viewBox="0 0 87 87" fill="none" xmlns="http://www.w3.org/2000/svg">
<circle cx="43.5" cy="43.5" r="43.5" fill="#F6F7F8"/>
<path d="M35.1263 24.0882H32.48C26.2428 24.0882 23.1229 24.0882 21.1858 26.0252C19.2488 27.9623 19.2488 31.0822 19.2488 37.3194V38.6426M35.1263 63.7819H32.48C26.2428 63.7819 23.1229 63.7819 21.1858 61.8449C19.2488 59.9052 19.2488 56.7879 19.2488 50.5507V49.2276M47.4525 18.3908C41.7313 17.3932 38.8707 16.8957 36.9998 18.5549C35.1263 20.2141 35.1263 23.2493 35.1263 29.3172V58.5529C35.1263 64.6208 35.1263 67.656 36.9972 69.3152C38.8681 70.9744 41.7287 70.477 47.4499 69.4793L53.6156 68.4049C59.9507 67.2988 63.1183 66.7457 64.9998 64.4223C66.8813 62.0963 66.8813 58.7355 66.8813 52.0114V35.8587C66.8813 29.1372 66.8813 25.7765 65.0024 23.4504C63.7428 21.8971 61.9116 21.135 58.9425 20.4708M43.065 41.2888V46.5813" stroke="#1D3461" stroke-width="5" stroke-linecap="round"/>
</svg>
