<svg width="25" height="25" viewBox="0 0 25 25" fill="none" xmlns="http://www.w3.org/2000/svg">
<mask id="mask0_437_245" style="mask-type:luminance" maskUnits="userSpaceOnUse" x="4" y="1" width="18" height="23">
<path d="M7.81239 10.7358C7.07072 13.939 11.1942 14.7541 10.2207 17.0108C9.24676 19.2671 7.06707 18.816 7.3103 21.0723C7.55405 23.3291 10.4384 23.3608 13.0645 22.0015C18.316 19.2822 19.4119 13.3426 17.0353 10.7358C14.1145 7.53271 8.55405 7.53271 7.81239 10.7358Z" fill="white" stroke="white" stroke-width="1.8"/>
<path d="M16.9826 8.24656C17.4233 8.61636 18.2302 8.38024 18.7849 7.71919C19.3396 7.05814 19.432 6.22247 18.9913 5.85268C18.5506 5.48288 17.7437 5.719 17.189 6.38005C16.6343 7.0411 16.5419 7.87677 16.9826 8.24656Z" fill="white"/>
<path d="M14.6424 6.93894C15.1638 7.18207 15.8821 6.74516 16.2468 5.96306C16.6115 5.18097 16.4845 4.34986 15.9631 4.10673C15.4417 3.8636 14.7234 4.30052 14.3587 5.08261C13.994 5.8647 14.121 6.69581 14.6424 6.93894Z" fill="white"/>
<path d="M12.0145 6.55563C12.5866 6.61577 13.1236 5.96879 13.2138 5.11057C13.304 4.25236 12.9133 3.50789 12.3411 3.44775C11.769 3.38762 11.2321 4.03459 11.1419 4.89281C11.0516 5.75103 11.4423 6.4955 12.0145 6.55563Z" fill="white"/>
<path d="M8.00419 6.12463C8.8151 5.82949 9.15345 4.71374 8.75992 3.63253C8.3664 2.55133 7.39001 1.9141 6.57911 2.20925C5.76821 2.50439 5.42986 3.62014 5.82338 4.70135C6.21691 5.78255 7.19329 6.41978 8.00419 6.12463Z" fill="white" stroke="white" stroke-width="1.8"/>
<path d="M18.8733 10.1377C19.2431 10.5784 20.0788 10.486 20.7399 9.93134C21.4009 9.37665 21.637 8.56972 21.2672 8.12902C20.8974 7.68831 20.0618 7.78072 19.4007 8.33541C18.7397 8.8901 18.5035 9.69703 18.8733 10.1377Z" fill="white"/>
</mask>
<g mask="url(#mask0_437_245)">
<path d="M0 0H25V25H0V0Z" fill="#1D3461"/>
</g>
</svg>
