<svg width="237" height="50" viewBox="0 0 237 50" fill="none" xmlns="http://www.w3.org/2000/svg">
<mask id="path-1-inside-1_197_2617" fill="white">
<path d="M30.5084 31.7036V45.4417L7.07275 32.6547L19.424 25.7856L30.5084 31.7036Z"/>
</mask>
<path d="M30.5084 45.4417L13.7447 76.1659L65.5084 104.409V45.4417H30.5084ZM30.5084 31.7036H65.5084V10.714L46.9925 0.828457L30.5084 31.7036ZM19.424 25.7856L35.9081 -5.08949L19.0822 -14.0728L2.41274 -4.80222L19.424 25.7856ZM7.07275 32.6547L-9.93849 2.06683L-65.4649 32.9475L-9.69102 63.3789L7.07275 32.6547ZM65.5084 45.4417V31.7036H-4.49158V45.4417H65.5084ZM46.9925 0.828457L35.9081 -5.08949L2.93986 56.6608L14.0243 62.5787L46.9925 0.828457ZM2.41274 -4.80222L-9.93849 2.06683L24.084 63.2426L36.4352 56.3735L2.41274 -4.80222ZM-9.69102 63.3789L13.7447 76.1659L47.2722 14.7175L23.8365 1.93051L-9.69102 63.3789Z" fill="#1D3461" mask="url(#path-1-inside-1_197_2617)"/>
<path d="M30.5843 4.77637L5.95166 18.313V31.8487L30.5843 18.313V4.77637Z" fill="#1D3461"/>
<path d="M33.3589 45.4605L57.9913 31.9251V18.3882L33.3589 31.9251V45.4605Z" fill="#1D3461"/>
<path d="M135.702 4.77637L130.684 6.45286V44.5769H135.702V4.77637ZM189.376 4.77637L184.357 6.45286V25.0689C182.705 23.2417 180.19 21.9686 177.496 21.9686C173.895 21.9686 170.997 23.3577 169.042 25.5599C167.088 27.763 166.071 30.7483 166.071 33.9287C166.071 37.0819 167.08 39.9405 168.996 42.0114C170.912 44.0823 173.73 45.3347 177.194 45.3347C179.933 45.3347 182.612 44.0527 184.357 42.1839V44.5769H189.376V4.77637ZM76.3135 6.36419L70.9941 8.00657V44.5769H76.3135V6.36419ZM88.4725 21.9503L83.454 23.628V44.5769H88.4725V31.3024C88.4725 28.5485 91.0523 26.544 93.6716 26.544C97.0993 26.544 98.9198 28.6129 98.9198 31.3024V44.5769H103.939V30.7965C103.939 26.1428 100.283 22.0191 95.1316 22.0191C92.4033 22.0191 90.0393 23.1737 88.4725 24.6859V21.9503ZM146.426 22.0009L141.409 23.6785V36.6058C141.409 41.2549 145.012 45.3853 150.164 45.3853C152.926 45.3853 155.305 44.2284 156.876 42.6947V44.5769H161.892V22.0009L156.876 23.6785V36.1504C156.876 38.8481 154.295 40.8604 151.676 40.8604C149.932 40.8604 148.639 40.3224 147.768 39.4874C146.897 38.6526 146.426 37.4992 146.426 36.1504V22.0009ZM119.944 22.0191C113.568 22.0191 108.115 27.2709 108.115 33.7277C108.115 40.1372 113.568 45.3853 119.944 45.3853C121.766 45.3853 124.02 44.954 126.167 43.5546L126.485 43.3488V37.6397L125.286 38.9046C125.286 38.9046 124.903 39.3149 124.019 39.776C123.134 40.2361 121.79 40.7085 119.944 40.7085C116.033 40.7085 113.083 37.6108 113.083 33.7277C113.083 29.7892 116.027 26.7454 119.944 26.7454C121.787 26.7454 123.131 27.2272 124.014 27.6997C124.897 28.1713 125.279 28.5932 125.279 28.5932L126.485 29.8973V24.0454L126.156 23.8419C124.02 22.5022 121.78 22.0191 119.944 22.0191ZM204.846 22.0191C198.9 22.0191 193.523 26.6808 193.523 34.182C193.523 37.6555 194.973 40.5027 197.259 42.43C199.544 44.3573 202.638 45.3853 205.955 45.3853C209.772 45.3853 212.175 44.1939 214.222 42.9626L214.56 42.7589V37.7489L213.508 38.3823C211.479 39.6037 209.846 40.7085 205.955 40.7085C203.756 40.7085 202.055 40.1474 200.846 39.2058C199.851 38.4307 199.25 37.3291 198.896 36.0411H216.059L216.07 35.3558C216.148 31.0644 215.055 27.7171 213.051 25.4424C211.045 23.1669 208.152 22.0191 204.846 22.0191ZM177.749 26.6947C181.633 26.6947 184.357 29.5004 184.357 33.677C184.357 37.7465 181.627 40.6075 177.749 40.6075C173.925 40.6075 171.189 37.7465 171.189 33.677C171.189 29.5004 173.919 26.6947 177.749 26.6947ZM204.846 26.796C206.906 26.796 208.363 27.5881 209.344 28.6508C210.126 29.4981 210.5 30.5043 210.655 31.4139H198.941C199.777 28.2437 202.039 26.796 204.846 26.796Z" fill="#1D3461"/>
<path d="M216.339 22.7104C215.707 22.7104 215.181 22.5699 214.759 22.2917C214.336 22.0156 214.027 21.6892 213.83 21.3121C213.632 20.935 213.532 20.6083 213.532 20.3323C213.532 20.0159 213.658 19.7251 213.909 19.4584C214.16 19.194 214.443 19.01 214.759 18.9064L214.938 18.8649C214.977 18.8649 215.003 18.881 215.016 18.9156C215.027 18.9489 215.034 18.9982 215.034 19.0628C215.113 19.8046 215.279 20.4163 215.53 20.8982C215.781 21.3786 216.268 21.6203 216.992 21.6203C217.479 21.6203 217.885 21.4742 218.214 21.1832C218.545 20.8911 218.822 20.4198 219.045 19.7666C219.272 19.1134 219.477 18.2199 219.661 17.0848L221.361 6.2621H221.26C220.996 6.2621 220.647 6.21617 220.212 6.12406C219.553 6.00448 219.047 5.94473 218.692 5.94473C218.073 5.94473 217.612 6.02741 217.309 6.19292C217.005 6.3586 216.716 6.58738 216.44 6.87847C216.36 6.97034 216.29 7.04399 216.229 7.09927C216.17 7.15199 216.115 7.17731 216.064 7.17731C215.972 7.17731 215.926 7.13018 215.926 7.0348L215.944 6.81848C216.064 6.11927 216.39 5.60411 216.923 5.273C217.456 4.9418 218.216 4.77637 219.206 4.77637C219.626 4.77637 220.067 4.8108 220.53 4.87766C220.622 4.89028 220.808 4.90969 221.09 4.93741C221.375 4.96265 221.669 4.97416 221.973 4.97416C222.248 4.97416 222.469 4.96265 222.634 4.93741C222.799 4.90969 222.988 4.85665 223.199 4.77637C222.999 5.34449 222.869 5.8241 222.808 6.21617C222.75 6.60583 222.714 6.85882 222.703 6.97505L221.338 15.8752C220.998 18.0807 220.393 19.7689 219.523 20.9441C218.653 22.1216 217.591 22.7104 216.339 22.7104Z" fill="#1D3461"/>
<path d="M224.433 18.7269C224.38 18.7269 224.337 18.7155 224.304 18.6945C224.273 18.6762 224.258 18.6542 224.258 18.6301C224.258 18.59 224.296 18.505 224.373 18.3725C224.452 18.238 224.512 18.0531 224.552 17.8161C224.604 17.538 224.65 17.2824 224.69 17.0525C224.729 16.8226 224.769 16.6086 224.81 16.4087C225.14 14.5998 225.361 13.3348 225.471 12.6139C225.584 11.8941 225.633 11.3696 225.618 11.0408C225.618 10.8694 225.604 10.744 225.577 10.6636C225.552 10.5841 225.494 10.5442 225.402 10.5442C225.283 10.5442 225.131 10.6442 224.947 10.8429C224.764 11.0396 224.591 11.2698 224.433 11.5329C224.368 11.6525 224.309 11.756 224.254 11.8412C224.201 11.9274 224.158 11.9907 224.125 12.0299C224.094 12.0699 224.058 12.0896 224.019 12.0896C223.967 12.0896 223.927 12.0699 223.9 12.0299C223.875 11.9907 223.863 11.9377 223.863 11.8733C223.863 11.6227 224.003 11.273 224.286 10.8247C224.571 10.3741 224.906 9.97368 225.292 9.6242C225.68 9.27215 226.027 9.09521 226.331 9.09521C226.581 9.09521 226.755 9.19531 226.854 9.39406C226.952 9.59416 227.001 9.90354 227.001 10.3234C227.001 10.9062 226.877 11.6928 226.629 12.6828H226.666C227.918 10.291 229.078 9.09521 230.144 9.09521C230.422 9.09521 230.637 9.1723 230.787 9.32512C230.94 9.47585 231.017 9.69074 231.017 9.96921C231.017 10.2612 230.954 10.5579 230.829 10.8615C230.702 11.165 230.551 11.4169 230.374 11.6157C230.196 11.8123 230.034 11.9101 229.887 11.9101C229.795 11.9101 229.763 11.8503 229.79 11.7308C229.829 11.5467 229.85 11.4032 229.85 11.2984C229.85 10.9798 229.678 10.82 229.336 10.82C228.928 10.82 228.519 11.0581 228.109 11.5329C227.701 12.0089 227.342 12.5898 227.033 13.2763C226.723 13.9639 226.51 14.5918 226.39 15.162C226.234 15.7693 226.135 16.4028 226.096 17.0616C226.068 17.3136 225.951 17.5677 225.747 17.8252C225.545 18.0828 225.312 18.298 225.048 18.4693C224.784 18.6407 224.58 18.7269 224.433 18.7269Z" fill="#1D3461"/>
</svg>
