<svg width="248" height="248" viewBox="0 0 248 248" fill="none" xmlns="http://www.w3.org/2000/svg">
<g filter="url(#filter0_di_25_235)">
<rect x="4" width="240" height="240" rx="20" fill="#F6F7F8"/>
</g>
<path d="M100 85.1687L119.87 59.4137M119.87 59.4137L124.837 120.289L129.805 59.4137M119.87 59.4137H129.805M119.87 59.4137L112.419 99.2169H137.256L129.805 59.4137M149.674 85.1687L129.805 59.4137M124.837 45.3655C127.581 45.3655 129.805 43.2689 129.805 40.6827C129.805 38.0965 127.581 36 124.837 36C122.094 36 119.87 38.0965 119.87 40.6827C119.87 43.2689 122.094 45.3655 124.837 45.3655Z" stroke="#1D3461" stroke-width="10" stroke-linecap="round" stroke-linejoin="round"/>
<path d="M61.0728 183.569L59.7422 186.121C59.3678 185.787 58.79 185.457 58.0088 185.132C57.2275 184.798 56.5562 184.631 55.9946 184.631C54.2368 184.631 52.8493 185.229 51.832 186.426C50.8148 187.614 50.3062 189.209 50.3062 191.211C50.3062 193.115 50.8026 194.637 51.7954 195.776C52.7964 196.916 54.1554 197.485 55.8726 197.485C57.0037 197.485 57.9355 197.176 58.668 196.558V193.042H56.1899V190.332H61.8418V198.34C61.085 198.958 60.1084 199.443 58.9121 199.792C57.724 200.134 56.5399 200.305 55.3599 200.305C52.7964 200.305 50.7619 199.467 49.2563 197.791C47.759 196.106 47.0103 193.884 47.0103 191.125C47.0103 188.367 47.8281 186.125 49.4639 184.399C51.0996 182.674 53.3009 181.812 56.0679 181.812C58.0291 181.812 59.6974 182.397 61.0728 183.569ZM66.8711 181.86C67.3594 181.86 67.7744 182.035 68.1162 182.385C68.4661 182.727 68.6411 183.142 68.6411 183.63C68.6411 184.119 68.4661 184.538 68.1162 184.888C67.7744 185.229 67.3594 185.4 66.8711 185.4C66.3828 185.4 65.9637 185.229 65.6138 184.888C65.272 184.538 65.1011 184.119 65.1011 183.63C65.1011 183.142 65.272 182.727 65.6138 182.385C65.9637 182.035 66.3828 181.86 66.8711 181.86ZM65.2964 200V189.429H63.624V186.926H68.3848V200H65.2964ZM80.3599 200V192.444C80.3599 191.329 80.1442 190.515 79.7129 190.002C79.2897 189.49 78.5939 189.233 77.6255 189.233C77.1779 189.233 76.6978 189.36 76.1851 189.612C75.6805 189.864 75.2858 190.177 75.001 190.552V200H71.9492V186.926H74.1465L74.708 188.147C75.5381 187.17 76.7629 186.682 78.3823 186.682C79.9367 186.682 81.1615 187.15 82.0566 188.086C82.96 189.014 83.4116 190.312 83.4116 191.98V200H80.3599ZM98.3896 194.397H89.0513C89.1082 195.439 89.4663 196.248 90.1255 196.826C90.7847 197.404 91.6717 197.693 92.7866 197.693C94.1782 197.693 95.2362 197.331 95.9604 196.606L97.1445 198.938C96.0703 199.809 94.4671 200.244 92.335 200.244C90.3411 200.244 88.7624 199.662 87.5986 198.499C86.443 197.327 85.8652 195.695 85.8652 193.604C85.8652 191.545 86.5 189.876 87.7695 188.599C89.0472 187.321 90.5771 186.682 92.3594 186.682C94.2555 186.682 95.7773 187.248 96.9248 188.379C98.0723 189.51 98.646 190.951 98.646 192.7C98.646 193.075 98.5605 193.64 98.3896 194.397ZM89.1611 192.102H95.582C95.3704 190.19 94.3125 189.233 92.4082 189.233C90.6667 189.233 89.5843 190.19 89.1611 192.102ZM111.354 187.964L110.047 190.247C109.331 189.571 108.371 189.233 107.167 189.233C106.011 189.233 105.095 189.62 104.42 190.393C103.753 191.158 103.419 192.22 103.419 193.579C103.419 196.322 104.725 197.693 107.337 197.693C108.469 197.693 109.465 197.319 110.328 196.57L111.451 198.975C110.564 199.528 109.787 199.878 109.12 200.024C108.46 200.171 107.679 200.244 106.776 200.244C104.758 200.244 103.163 199.658 101.991 198.486C100.827 197.306 100.245 195.671 100.245 193.579C100.245 191.52 100.884 189.856 102.162 188.586C103.439 187.317 105.181 186.682 107.386 186.682C108.908 186.682 110.23 187.109 111.354 187.964ZM113.038 193.433C113.038 191.439 113.612 189.815 114.759 188.562C115.915 187.309 117.437 186.682 119.325 186.682C121.31 186.682 122.853 187.284 123.951 188.489C125.05 189.693 125.599 191.341 125.599 193.433C125.599 195.516 125.038 197.172 123.915 198.401C122.8 199.63 121.27 200.244 119.325 200.244C117.339 200.244 115.793 199.626 114.686 198.389C113.587 197.144 113.038 195.492 113.038 193.433ZM116.212 193.433C116.212 196.313 117.25 197.754 119.325 197.754C120.277 197.754 121.03 197.38 121.583 196.631C122.145 195.882 122.425 194.816 122.425 193.433C122.425 190.592 121.392 189.172 119.325 189.172C118.373 189.172 117.616 189.547 117.054 190.295C116.493 191.044 116.212 192.09 116.212 193.433ZM128.578 182.056L131.629 181.323V196.021C131.629 197.632 132.11 198.592 133.07 198.901C132.598 199.797 131.792 200.244 130.653 200.244C129.269 200.244 128.578 199.284 128.578 197.363V182.056ZM134.571 193.433C134.571 191.439 135.145 189.815 136.292 188.562C137.448 187.309 138.97 186.682 140.858 186.682C142.844 186.682 144.386 187.284 145.484 188.489C146.583 189.693 147.132 191.341 147.132 193.433C147.132 195.516 146.571 197.172 145.448 198.401C144.333 199.63 142.803 200.244 140.858 200.244C138.872 200.244 137.326 199.626 136.219 198.389C135.121 197.144 134.571 195.492 134.571 193.433ZM137.745 193.433C137.745 196.313 138.783 197.754 140.858 197.754C141.81 197.754 142.563 197.38 143.116 196.631C143.678 195.882 143.958 194.816 143.958 193.433C143.958 190.592 142.925 189.172 140.858 189.172C139.906 189.172 139.149 189.547 138.587 190.295C138.026 191.044 137.745 192.09 137.745 193.433ZM148.609 203.357L150.538 200.977C151.604 201.953 152.792 202.441 154.103 202.441C154.981 202.441 155.706 202.311 156.275 202.051C156.845 201.79 157.13 201.432 157.13 200.977C157.13 200.203 156.499 199.817 155.238 199.817C154.896 199.817 154.387 199.858 153.712 199.939C153.036 200.02 152.528 200.061 152.186 200.061C150.086 200.061 149.037 199.308 149.037 197.803C149.037 197.371 149.212 196.948 149.562 196.533C149.911 196.118 150.318 195.813 150.782 195.618C149.293 194.649 148.548 193.278 148.548 191.504C148.548 190.104 149.061 188.949 150.086 188.037C151.112 187.118 152.373 186.658 153.871 186.658C155.042 186.658 156.023 186.877 156.812 187.317L158.009 185.925L160.121 187.842L158.668 188.904C159.173 189.669 159.425 190.572 159.425 191.614C159.425 193.103 158.969 194.295 158.058 195.19C157.154 196.077 156.011 196.521 154.627 196.521C154.408 196.521 154.115 196.501 153.749 196.46L153.248 196.387C153.191 196.387 152.971 196.476 152.589 196.655C152.215 196.826 152.027 197.005 152.027 197.192C152.027 197.518 152.308 197.681 152.87 197.681C153.122 197.681 153.545 197.62 154.139 197.498C154.733 197.375 155.242 197.314 155.665 197.314C158.635 197.314 160.121 198.507 160.121 200.891C160.121 202.209 159.527 203.243 158.338 203.992C157.15 204.749 155.718 205.127 154.042 205.127C152.04 205.127 150.229 204.537 148.609 203.357ZM151.661 191.516C151.661 192.289 151.873 192.912 152.296 193.384C152.727 193.848 153.305 194.08 154.029 194.08C154.754 194.08 155.311 193.852 155.702 193.396C156.092 192.94 156.288 192.314 156.288 191.516C156.288 190.857 156.076 190.299 155.653 189.844C155.238 189.388 154.697 189.16 154.029 189.16C153.329 189.16 152.76 189.38 152.32 189.819C151.881 190.259 151.661 190.824 151.661 191.516ZM164.527 181.86C165.016 181.86 165.431 182.035 165.772 182.385C166.122 182.727 166.297 183.142 166.297 183.63C166.297 184.119 166.122 184.538 165.772 184.888C165.431 185.229 165.016 185.4 164.527 185.4C164.039 185.4 163.62 185.229 163.27 184.888C162.928 184.538 162.757 184.119 162.757 183.63C162.757 183.142 162.928 182.727 163.27 182.385C163.62 182.035 164.039 181.86 164.527 181.86ZM162.953 200V189.429H161.28V186.926H166.041V200H162.953ZM168.8 199.158L169.886 196.729C170.798 197.453 171.827 197.815 172.975 197.815C174.163 197.815 174.757 197.392 174.757 196.545C174.757 196.049 174.578 195.642 174.22 195.325C173.862 195.007 173.166 194.633 172.132 194.202C169.878 193.266 168.751 191.956 168.751 190.271C168.751 189.14 169.182 188.261 170.045 187.634C170.908 187 172.01 186.682 173.353 186.682C174.712 186.682 175.99 186.987 177.186 187.598L176.307 189.966C175.64 189.396 174.712 189.111 173.524 189.111C172.458 189.111 171.925 189.535 171.925 190.381C171.925 190.715 172.1 191.016 172.45 191.284C172.8 191.553 173.548 191.915 174.696 192.371C175.843 192.818 176.669 193.363 177.174 194.006C177.678 194.649 177.931 195.426 177.931 196.338C177.931 197.55 177.479 198.507 176.576 199.207C175.681 199.898 174.46 200.244 172.914 200.244C172.043 200.244 171.343 200.171 170.814 200.024C170.293 199.886 169.622 199.597 168.8 199.158ZM180.836 189.38H179.322V186.926H180.836V184.265L183.888 183.142V186.926H187.477V189.38H183.888V195.105C183.888 196.041 184.034 196.704 184.327 197.095C184.62 197.477 185.133 197.668 185.865 197.668C186.598 197.668 187.281 197.469 187.916 197.07V199.878C187.208 200.122 186.199 200.244 184.889 200.244C183.587 200.244 182.586 199.878 181.886 199.146C181.186 198.405 180.836 197.355 180.836 195.996V189.38ZM197.56 198.694C197.283 199.15 196.799 199.524 196.107 199.817C195.423 200.102 194.707 200.244 193.958 200.244C192.551 200.244 191.444 199.894 190.638 199.194C189.833 198.486 189.43 197.485 189.43 196.191C189.43 194.678 189.995 193.494 191.126 192.639C192.266 191.785 193.881 191.357 195.973 191.357C196.331 191.357 196.754 191.418 197.242 191.541C197.242 190.002 196.27 189.233 194.325 189.233C193.177 189.233 192.217 189.425 191.444 189.807L190.785 187.439C191.834 186.934 193.084 186.682 194.532 186.682C196.526 186.682 197.987 187.138 198.915 188.049C199.842 188.953 200.306 190.67 200.306 193.201V195.996C200.306 197.738 200.656 198.832 201.356 199.28C201.104 199.719 200.823 199.988 200.514 200.085C200.204 200.191 199.85 200.244 199.452 200.244C199.012 200.244 198.618 200.081 198.268 199.756C197.918 199.43 197.682 199.076 197.56 198.694ZM197.267 193.848C196.746 193.742 196.355 193.689 196.095 193.689C193.686 193.689 192.481 194.478 192.481 196.057C192.481 197.229 193.161 197.815 194.52 197.815C196.351 197.815 197.267 196.899 197.267 195.068V193.848Z" fill="#1D3461"/>
<defs>
<filter id="filter0_di_25_235" x="0" y="0" width="248" height="248" filterUnits="userSpaceOnUse" color-interpolation-filters="sRGB">
<feFlood flood-opacity="0" result="BackgroundImageFix"/>
<feColorMatrix in="SourceAlpha" type="matrix" values="0 0 0 0 0 0 0 0 0 0 0 0 0 0 0 0 0 0 127 0" result="hardAlpha"/>
<feOffset dy="4"/>
<feGaussianBlur stdDeviation="2"/>
<feComposite in2="hardAlpha" operator="out"/>
<feColorMatrix type="matrix" values="0 0 0 0 0 0 0 0 0 0 0 0 0 0 0 0 0 0 0.25 0"/>
<feBlend mode="normal" in2="BackgroundImageFix" result="effect1_dropShadow_25_235"/>
<feBlend mode="normal" in="SourceGraphic" in2="effect1_dropShadow_25_235" result="shape"/>
<feColorMatrix in="SourceAlpha" type="matrix" values="0 0 0 0 0 0 0 0 0 0 0 0 0 0 0 0 0 0 127 0" result="hardAlpha"/>
<feOffset dy="4"/>
<feGaussianBlur stdDeviation="2"/>
<feComposite in2="hardAlpha" operator="arithmetic" k2="-1" k3="1"/>
<feColorMatrix type="matrix" values="0 0 0 0 0 0 0 0 0 0 0 0 0 0 0 0 0 0 0.25 0"/>
<feBlend mode="normal" in2="shape" result="effect2_innerShadow_25_235"/>
</filter>
</defs>
</svg>
