<svg width="248" height="248" viewBox="0 0 248 248" fill="none" xmlns="http://www.w3.org/2000/svg">
<g filter="url(#filter0_di_25_236)">
<rect x="4" width="240" height="240" rx="20" fill="#F6F7F8"/>
</g>
<path d="M124.119 68.9323C131.975 68.9323 138.337 62.9062 138.337 55.4662C138.337 48.0261 131.975 42 124.119 42C116.263 42 109.9 48.0261 109.9 55.4662C109.9 62.9062 116.263 68.9323 124.119 68.9323ZM114.628 110.812L119.178 105.426L108.247 96.8073L100.089 106.469C98.0628 108.859 98.0095 112.26 99.9468 114.717L108.478 125.49C109.882 127.258 112.015 128.183 114.166 128.183C115.641 128.183 117.151 127.746 118.431 126.837C121.577 124.615 122.199 120.39 119.853 117.41L114.628 110.812ZM139.99 96.8073L129.06 105.426L133.61 110.812L128.384 117.41C126.038 120.39 126.66 124.615 129.806 126.837C131.086 127.746 132.579 128.183 134.072 128.183C136.24 128.183 138.373 127.258 139.759 125.49L148.291 114.717C150.228 112.26 150.175 108.859 148.148 106.469L139.99 96.8073ZM156.946 66.4074C154.689 63.3607 150.263 62.6369 147.046 64.7578L139.83 69.5551C130.464 75.7832 117.756 75.7832 108.407 69.5551L101.191 64.7746C97.9739 62.6369 93.5484 63.3775 91.2911 66.4074C89.0339 69.4541 89.8159 73.6455 93.0152 75.7832L100.231 80.5805C103.253 82.5836 106.523 84.0986 109.9 85.2769V90.4782H138.337V85.2937C141.714 84.1154 144.985 82.6005 148.006 80.5974L155.222 75.8001C158.439 73.6455 159.203 69.4541 156.946 66.4074Z" fill="#1D3461"/>
<path d="M80.3237 193.42V200H77.1499V182.129C79.2658 182.039 80.5028 181.995 80.8608 181.995C83.6847 181.995 85.7477 182.43 87.0498 183.301C88.36 184.163 89.0151 185.514 89.0151 187.354C89.0151 191.455 86.5981 193.506 81.7642 193.506C81.4061 193.506 80.9259 193.477 80.3237 193.42ZM80.3237 184.875V190.601C80.8608 190.658 81.284 190.686 81.5933 190.686C83.0418 190.686 84.0998 190.446 84.7671 189.966C85.4344 189.478 85.7681 188.688 85.7681 187.598C85.7681 185.742 84.2747 184.814 81.2881 184.814C80.9544 184.814 80.633 184.835 80.3237 184.875ZM102.138 194.397H92.7993C92.8563 195.439 93.2144 196.248 93.8735 196.826C94.5327 197.404 95.4198 197.693 96.5347 197.693C97.9263 197.693 98.9842 197.331 99.7085 196.606L100.893 198.938C99.8184 199.809 98.2152 200.244 96.083 200.244C94.0892 200.244 92.5104 199.662 91.3467 198.499C90.1911 197.327 89.6133 195.695 89.6133 193.604C89.6133 191.545 90.248 189.876 91.5176 188.599C92.7952 187.321 94.3252 186.682 96.1074 186.682C98.0036 186.682 99.5254 187.248 100.673 188.379C101.82 189.51 102.394 190.951 102.394 192.7C102.394 193.075 102.309 193.64 102.138 194.397ZM92.9092 192.102H99.3301C99.1185 190.19 98.0605 189.233 96.1562 189.233C94.4147 189.233 93.3324 190.19 92.9092 192.102ZM113.258 200V199.207C113.006 199.483 112.579 199.727 111.977 199.939C111.374 200.142 110.752 200.244 110.109 200.244C108.286 200.244 106.85 199.666 105.8 198.511C104.758 197.355 104.237 195.744 104.237 193.677C104.237 191.61 104.835 189.929 106.032 188.635C107.236 187.333 108.742 186.682 110.548 186.682C111.541 186.682 112.444 186.886 113.258 187.292V182.056L116.31 181.323V200H113.258ZM113.258 190.051C112.607 189.53 111.928 189.27 111.22 189.27C109.999 189.27 109.059 189.644 108.4 190.393C107.741 191.134 107.411 192.2 107.411 193.591C107.411 196.309 108.721 197.668 111.342 197.668C111.635 197.668 111.993 197.583 112.416 197.412C112.847 197.233 113.128 197.054 113.258 196.875V190.051ZM121.767 181.86C122.255 181.86 122.67 182.035 123.012 182.385C123.362 182.727 123.537 183.142 123.537 183.63C123.537 184.119 123.362 184.538 123.012 184.888C122.67 185.229 122.255 185.4 121.767 185.4C121.278 185.4 120.859 185.229 120.509 184.888C120.167 184.538 119.997 184.119 119.997 183.63C119.997 183.142 120.167 182.727 120.509 182.385C120.859 182.035 121.278 181.86 121.767 181.86ZM120.192 200V189.429H118.52V186.926H123.28V200H120.192ZM134.12 198.694C133.843 199.15 133.359 199.524 132.667 199.817C131.984 200.102 131.268 200.244 130.519 200.244C129.111 200.244 128.004 199.894 127.199 199.194C126.393 198.486 125.99 197.485 125.99 196.191C125.99 194.678 126.556 193.494 127.687 192.639C128.826 191.785 130.442 191.357 132.533 191.357C132.891 191.357 133.314 191.418 133.803 191.541C133.803 190.002 132.83 189.233 130.885 189.233C129.738 189.233 128.778 189.425 128.004 189.807L127.345 187.439C128.395 186.934 129.644 186.682 131.093 186.682C133.087 186.682 134.547 187.138 135.475 188.049C136.403 188.953 136.867 190.67 136.867 193.201V195.996C136.867 197.738 137.217 198.832 137.917 199.28C137.664 199.719 137.383 199.988 137.074 200.085C136.765 200.191 136.411 200.244 136.012 200.244C135.573 200.244 135.178 200.081 134.828 199.756C134.478 199.43 134.242 199.076 134.12 198.694ZM133.827 193.848C133.306 193.742 132.916 193.689 132.655 193.689C130.246 193.689 129.042 194.478 129.042 196.057C129.042 197.229 129.722 197.815 131.081 197.815C132.912 197.815 133.827 196.899 133.827 195.068V193.848ZM140.639 189.38H139.125V186.926H140.639V184.265L143.69 183.142V186.926H147.279V189.38H143.69V195.105C143.69 196.041 143.837 196.704 144.13 197.095C144.423 197.477 144.936 197.668 145.668 197.668C146.4 197.668 147.084 197.469 147.719 197.07V199.878C147.011 200.122 146.002 200.244 144.691 200.244C143.389 200.244 142.388 199.878 141.688 199.146C140.989 198.405 140.639 197.355 140.639 195.996V189.38ZM157.643 189.771C157.098 189.412 156.5 189.233 155.849 189.233C155.141 189.233 154.51 189.555 153.957 190.198C153.411 190.841 153.139 191.626 153.139 192.554V200H150.087V186.926H153.139V188.123C153.993 187.162 155.128 186.682 156.544 186.682C157.586 186.682 158.384 186.841 158.937 187.158L157.643 189.771ZM167.274 198.694C166.998 199.15 166.514 199.524 165.822 199.817C165.138 200.102 164.422 200.244 163.673 200.244C162.265 200.244 161.159 199.894 160.353 199.194C159.547 198.486 159.145 197.485 159.145 196.191C159.145 194.678 159.71 193.494 160.841 192.639C161.981 191.785 163.596 191.357 165.688 191.357C166.046 191.357 166.469 191.418 166.957 191.541C166.957 190.002 165.985 189.233 164.04 189.233C162.892 189.233 161.932 189.425 161.159 189.807L160.5 187.439C161.549 186.934 162.799 186.682 164.247 186.682C166.241 186.682 167.702 187.138 168.629 188.049C169.557 188.953 170.021 190.67 170.021 193.201V195.996C170.021 197.738 170.371 198.832 171.071 199.28C170.819 199.719 170.538 199.988 170.229 200.085C169.919 200.191 169.565 200.244 169.167 200.244C168.727 200.244 168.332 200.081 167.982 199.756C167.632 199.43 167.396 199.076 167.274 198.694ZM166.981 193.848C166.461 193.742 166.07 193.689 165.81 193.689C163.401 193.689 162.196 194.478 162.196 196.057C162.196 197.229 162.876 197.815 164.235 197.815C166.066 197.815 166.981 196.899 166.981 195.068V193.848Z" fill="#1D3461"/>
<defs>
<filter id="filter0_di_25_236" x="0" y="0" width="248" height="248" filterUnits="userSpaceOnUse" color-interpolation-filters="sRGB">
<feFlood flood-opacity="0" result="BackgroundImageFix"/>
<feColorMatrix in="SourceAlpha" type="matrix" values="0 0 0 0 0 0 0 0 0 0 0 0 0 0 0 0 0 0 127 0" result="hardAlpha"/>
<feOffset dy="4"/>
<feGaussianBlur stdDeviation="2"/>
<feComposite in2="hardAlpha" operator="out"/>
<feColorMatrix type="matrix" values="0 0 0 0 0 0 0 0 0 0 0 0 0 0 0 0 0 0 0.25 0"/>
<feBlend mode="normal" in2="BackgroundImageFix" result="effect1_dropShadow_25_236"/>
<feBlend mode="normal" in="SourceGraphic" in2="effect1_dropShadow_25_236" result="shape"/>
<feColorMatrix in="SourceAlpha" type="matrix" values="0 0 0 0 0 0 0 0 0 0 0 0 0 0 0 0 0 0 127 0" result="hardAlpha"/>
<feOffset dy="4"/>
<feGaussianBlur stdDeviation="2"/>
<feComposite in2="hardAlpha" operator="arithmetic" k2="-1" k3="1"/>
<feColorMatrix type="matrix" values="0 0 0 0 0 0 0 0 0 0 0 0 0 0 0 0 0 0 0.25 0"/>
<feBlend mode="normal" in2="shape" result="effect2_innerShadow_25_236"/>
</filter>
</defs>
</svg>
