<svg width="248" height="248" viewBox="0 0 248 248" fill="none" xmlns="http://www.w3.org/2000/svg">
<g filter="url(#filter0_di_25_232)">
<rect x="4" width="240" height="240" rx="20" fill="#F6F7F8"/>
</g>
<path d="M110.107 30.0046C110.436 30.0046 110.771 30.0046 111.106 30.0331C115.586 30.0491 119.636 31.7776 122.567 34.563L122.568 34.5634C125.543 37.4455 127.46 41.3172 127.719 45.6092L127.721 45.6549V122.58C127.712 129.505 121.787 135.117 114.476 135.125H114.475C108.496 135.12 103.443 131.371 101.789 126.22L101.764 126.131C96.4426 125.941 91.6801 123.819 88.2053 120.49L88.2035 120.488C84.5105 117.045 82.2184 112.263 82.2053 106.975V105.874C77.1264 103.494 73.1087 99.6932 70.6549 95.0257L70.589 94.8871C68.9569 91.892 68 88.3503 68 84.597C68 81.8643 68.5073 79.2437 69.4375 76.8152L69.3844 76.974C70.9626 72.2729 74.0217 68.3725 78.0364 65.6579L78.1066 65.6127C77.8516 64.5305 77.7009 63.2847 77.6918 62.0071V62.0008C77.6904 61.9162 77.6896 61.8163 77.6896 61.7162C77.6896 52.9551 83.9596 45.5809 92.4818 43.3988L92.6221 43.368C93.4864 39.907 95.3538 36.9402 97.9154 34.6666L97.9253 34.6577C101.079 31.7953 105.36 30.0261 110.077 30.0043H110.081L110.107 30.0046ZM120.228 46.0145C120.166 41.1755 116.079 37.2597 110.994 37.1292L110.981 37.1289H110.106C104.566 37.2698 100.087 41.3852 99.7264 46.5663L99.7247 46.5966L99.5299 49.5551L96.4208 49.9008C90.0939 50.6074 85.2324 55.6564 85.2324 61.7808C85.2324 61.8564 85.2331 61.9317 85.2346 62.0071L85.2343 61.9959C85.2812 63.4726 85.5741 64.8707 86.0752 66.174L86.044 66.0812L87.0437 68.8789L84.3245 70.299C80.6592 72.1763 77.9022 75.2707 76.6286 78.9969L76.5969 79.1041L76.5269 79.2981C75.9166 80.8722 75.5636 82.6898 75.5636 84.5856C75.5636 87.1977 76.2337 89.6616 77.4204 91.8313L77.3766 91.7434C79.4605 95.763 83.0885 98.8109 87.5101 100.23L87.6333 100.264L91.8121 101.524L89.8728 105.197C89.7896 105.635 89.7421 106.139 89.7421 106.654C89.7421 106.761 89.7443 106.868 89.7482 106.974L89.7479 106.958C89.8422 113.589 95.4928 118.94 102.485 119.029H108.742V122.58C108.75 125.583 111.319 128.016 114.489 128.024H114.49C117.661 128.016 120.23 125.583 120.238 122.581V122.58L120.228 46.0145ZM97.2754 80.6807C86.3439 80.0391 77.7351 71.4857 77.7351 61.0281C77.7351 60.7974 77.7394 60.5678 77.7475 60.3393L77.7464 60.3723C78.0827 55.3706 80.3481 50.9236 83.8382 47.6443L83.8396 47.643C87.3003 44.3403 91.9901 42.1969 97.2047 41.8801L97.2654 41.877L97.7053 48.9778C91.0027 49.4256 85.6819 54.4648 85.2116 60.772L85.2092 60.8125C85.2081 60.8702 85.2077 60.9383 85.2077 61.0066C85.2077 67.6946 90.6886 73.1705 97.6285 73.6251L97.6703 73.6271L97.2754 80.6807ZM127.726 108.852H120.228C120.22 100.881 113.4 94.4216 104.984 94.4135H104.983V87.3128C117.538 87.3261 127.712 96.9614 127.726 108.851L127.726 108.852ZM109.482 62.6967V55.5959C115.415 55.5906 120.223 51.037 120.228 45.4186V45.4182H127.726C127.714 54.9566 119.553 62.686 109.483 62.6968H109.481L109.482 62.6967ZM137.848 30.0047C142.559 30.0286 146.829 31.7917 149.986 34.6499L149.979 34.6438C152.551 36.9262 154.418 39.893 155.258 43.2369L155.282 43.3542C163.945 45.5667 170.215 52.9409 170.215 61.7022C170.215 61.8021 170.214 61.902 170.212 62.0017L170.213 61.9867C170.203 63.2707 170.053 64.5165 169.775 65.717L169.798 65.5986C173.883 68.3582 176.942 72.2587 178.475 76.8049L178.52 76.9599C179.397 79.2296 179.904 81.8502 179.904 84.5829C179.904 88.3363 178.947 91.8779 177.252 95.001L177.315 94.8727C174.796 99.6791 170.778 103.479 165.846 105.798L165.699 105.86V106.958C165.693 112.246 163.41 117.028 159.728 120.472L159.726 120.474C156.249 123.805 151.487 125.927 146.202 126.115L146.165 126.116C144.486 131.356 139.433 135.105 133.455 135.111H133.454C126.142 135.102 120.217 129.491 120.209 122.567V45.6407C120.465 41.2959 122.383 37.4169 125.365 34.5271L125.362 34.5304C128.294 31.745 132.344 30.0166 136.82 30H136.823L137.848 30.0047ZM158.091 105.193L156.152 101.519L160.331 100.26C164.876 98.8065 168.503 95.7586 170.542 91.8362L170.588 91.7387C171.73 89.6568 172.401 87.1931 172.401 84.5809C172.401 82.6851 172.048 80.8676 171.401 79.1837L171.437 79.2934L171.367 79.0993C170.062 75.2656 167.305 72.1715 163.724 70.3339L163.64 70.2943L160.921 68.8741L161.92 66.0764C162.39 64.8658 162.683 63.4677 162.73 62.011L162.73 61.991C162.731 61.9271 162.732 61.8516 162.732 61.776C162.732 55.6515 157.871 50.6025 151.603 49.9014L151.544 49.8959L148.435 49.5504L148.24 46.5918C147.877 41.3804 143.398 37.265 137.872 37.1243L137.858 37.1239H136.983C131.885 37.2547 127.798 41.1705 127.736 46.0037V122.58C127.744 125.583 130.313 128.016 133.483 128.024H133.484C136.655 128.016 139.224 125.583 139.232 122.581V119.029H145.48C152.482 118.94 158.132 113.589 158.226 106.967V106.958C158.229 106.881 158.231 106.79 158.231 106.699C158.231 106.168 158.18 105.649 158.083 105.144L158.092 105.197L158.091 105.193ZM150.179 80.6807L149.764 73.5799C156.746 73.1234 162.227 67.6476 162.227 60.9593C162.227 60.8861 162.226 60.813 162.225 60.7402V60.7511C161.737 54.4164 156.422 49.3932 149.771 48.9518L149.729 48.9498L150.169 41.849C155.444 42.1687 160.134 44.3119 163.593 47.6135L163.595 47.6147C167.082 50.8921 169.345 55.3338 169.68 60.2723L169.683 60.3297C169.691 60.5384 169.696 60.7835 169.696 61.0294C169.696 71.4793 161.1 80.0276 150.239 80.6779L150.179 80.6808V80.6807ZM127.726 108.852H120.228C120.242 96.9615 130.416 87.3262 142.97 87.3128H142.971V94.4135C134.555 94.4217 127.735 100.881 127.726 108.851V108.852ZM138.473 62.6967C128.401 62.6859 120.24 54.9564 120.228 45.4191V45.4182H127.726C127.731 51.037 132.54 55.5903 138.472 55.5957H138.472L138.473 62.6967Z" fill="#1D3461"/>
<path d="M74.4521 191.42V198H71.2783V180.129C73.3942 180.039 74.6312 179.995 74.9893 179.995C77.8132 179.995 79.8761 180.43 81.1782 181.301C82.4884 182.163 83.1436 183.514 83.1436 185.354C83.1436 189.455 80.7266 191.506 75.8926 191.506C75.5345 191.506 75.0544 191.477 74.4521 191.42ZM74.4521 182.875V188.601C74.9893 188.658 75.4124 188.686 75.7217 188.686C77.1702 188.686 78.2282 188.446 78.8955 187.966C79.5628 187.478 79.8965 186.688 79.8965 185.598C79.8965 183.742 78.4032 182.814 75.4165 182.814C75.0828 182.814 74.7614 182.835 74.4521 182.875ZM84.9624 197.158L86.0488 194.729C86.9603 195.453 87.9897 195.815 89.1372 195.815C90.3254 195.815 90.9194 195.392 90.9194 194.545C90.9194 194.049 90.7404 193.642 90.3823 193.325C90.0243 193.007 89.3285 192.633 88.2949 192.202C86.0407 191.266 84.9136 189.956 84.9136 188.271C84.9136 187.14 85.3449 186.261 86.2075 185.634C87.0701 185 88.1729 184.682 89.5156 184.682C90.8747 184.682 92.1523 184.987 93.3486 185.598L92.4697 187.966C91.8024 187.396 90.8747 187.111 89.6865 187.111C88.6204 187.111 88.0874 187.535 88.0874 188.381C88.0874 188.715 88.2624 189.016 88.6123 189.284C88.9622 189.553 89.7109 189.915 90.8584 190.371C92.0059 190.818 92.8319 191.363 93.3364 192.006C93.841 192.649 94.0933 193.426 94.0933 194.338C94.0933 195.55 93.6416 196.507 92.7383 197.207C91.8431 197.898 90.6224 198.244 89.0762 198.244C88.2054 198.244 87.5055 198.171 86.9766 198.024C86.4557 197.886 85.7843 197.597 84.9624 197.158ZM98.9272 179.86C99.4155 179.86 99.8306 180.035 100.172 180.385C100.522 180.727 100.697 181.142 100.697 181.63C100.697 182.119 100.522 182.538 100.172 182.888C99.8306 183.229 99.4155 183.4 98.9272 183.4C98.439 183.4 98.0199 183.229 97.6699 182.888C97.3281 182.538 97.1572 182.119 97.1572 181.63C97.1572 181.142 97.3281 180.727 97.6699 180.385C98.0199 180.035 98.439 179.86 98.9272 179.86ZM97.3525 198V187.429H95.6802V184.926H100.441V198H97.3525ZM114.259 185.964L112.953 188.247C112.237 187.571 111.277 187.233 110.072 187.233C108.917 187.233 108.001 187.62 107.326 188.393C106.658 189.158 106.325 190.22 106.325 191.579C106.325 194.322 107.631 195.693 110.243 195.693C111.374 195.693 112.371 195.319 113.234 194.57L114.357 196.975C113.47 197.528 112.693 197.878 112.025 198.024C111.366 198.171 110.585 198.244 109.682 198.244C107.663 198.244 106.068 197.658 104.896 196.486C103.733 195.306 103.151 193.671 103.151 191.579C103.151 189.52 103.79 187.856 105.067 186.586C106.345 185.317 108.087 184.682 110.292 184.682C111.814 184.682 113.136 185.109 114.259 185.964ZM115.944 191.433C115.944 189.439 116.518 187.815 117.665 186.562C118.821 185.309 120.342 184.682 122.23 184.682C124.216 184.682 125.758 185.284 126.857 186.489C127.956 187.693 128.505 189.341 128.505 191.433C128.505 193.516 127.943 195.172 126.82 196.401C125.705 197.63 124.175 198.244 122.23 198.244C120.245 198.244 118.699 197.626 117.592 196.389C116.493 195.144 115.944 193.492 115.944 191.433ZM119.118 191.433C119.118 194.313 120.155 195.754 122.23 195.754C123.183 195.754 123.935 195.38 124.489 194.631C125.05 193.882 125.331 192.816 125.331 191.433C125.331 188.592 124.298 187.172 122.23 187.172C121.278 187.172 120.521 187.547 119.96 188.295C119.398 189.044 119.118 190.09 119.118 191.433ZM125.124 179.592L122.365 183.168H120.045L122.108 179.592H125.124ZM131.483 180.056L134.535 179.323V194.021C134.535 195.632 135.015 196.592 135.976 196.901C135.504 197.797 134.698 198.244 133.559 198.244C132.175 198.244 131.483 197.284 131.483 195.363V180.056ZM137.477 191.433C137.477 189.439 138.051 187.815 139.198 186.562C140.354 185.309 141.876 184.682 143.764 184.682C145.749 184.682 147.292 185.284 148.39 186.489C149.489 187.693 150.038 189.341 150.038 191.433C150.038 193.516 149.477 195.172 148.354 196.401C147.239 197.63 145.709 198.244 143.764 198.244C141.778 198.244 140.232 197.626 139.125 196.389C138.026 195.144 137.477 193.492 137.477 191.433ZM140.651 191.433C140.651 194.313 141.688 195.754 143.764 195.754C144.716 195.754 145.469 195.38 146.022 194.631C146.583 193.882 146.864 192.816 146.864 191.433C146.864 188.592 145.831 187.172 143.764 187.172C142.812 187.172 142.055 187.547 141.493 188.295C140.932 189.044 140.651 190.09 140.651 191.433ZM151.515 201.357L153.444 198.977C154.51 199.953 155.698 200.441 157.008 200.441C157.887 200.441 158.611 200.311 159.181 200.051C159.751 199.79 160.036 199.432 160.036 198.977C160.036 198.203 159.405 197.817 158.144 197.817C157.802 197.817 157.293 197.858 156.618 197.939C155.942 198.02 155.434 198.061 155.092 198.061C152.992 198.061 151.942 197.308 151.942 195.803C151.942 195.371 152.117 194.948 152.467 194.533C152.817 194.118 153.224 193.813 153.688 193.618C152.199 192.649 151.454 191.278 151.454 189.504C151.454 188.104 151.967 186.949 152.992 186.037C154.018 185.118 155.279 184.658 156.776 184.658C157.948 184.658 158.929 184.877 159.718 185.317L160.915 183.925L163.026 185.842L161.574 186.904C162.078 187.669 162.331 188.572 162.331 189.614C162.331 191.103 161.875 192.295 160.963 193.19C160.06 194.077 158.917 194.521 157.533 194.521C157.313 194.521 157.021 194.501 156.654 194.46L156.154 194.387C156.097 194.387 155.877 194.476 155.495 194.655C155.12 194.826 154.933 195.005 154.933 195.192C154.933 195.518 155.214 195.681 155.775 195.681C156.028 195.681 156.451 195.62 157.045 195.498C157.639 195.375 158.148 195.314 158.571 195.314C161.541 195.314 163.026 196.507 163.026 198.891C163.026 200.209 162.432 201.243 161.244 201.992C160.056 202.749 158.624 203.127 156.947 203.127C154.945 203.127 153.135 202.537 151.515 201.357ZM154.567 189.516C154.567 190.289 154.778 190.912 155.202 191.384C155.633 191.848 156.211 192.08 156.935 192.08C157.659 192.08 158.217 191.852 158.607 191.396C158.998 190.94 159.193 190.314 159.193 189.516C159.193 188.857 158.982 188.299 158.559 187.844C158.144 187.388 157.602 187.16 156.935 187.16C156.235 187.16 155.666 187.38 155.226 187.819C154.787 188.259 154.567 188.824 154.567 189.516ZM164.186 191.433C164.186 189.439 164.76 187.815 165.907 186.562C167.063 185.309 168.585 184.682 170.473 184.682C172.458 184.682 174 185.284 175.099 186.489C176.198 187.693 176.747 189.341 176.747 191.433C176.747 193.516 176.186 195.172 175.062 196.401C173.948 197.63 172.418 198.244 170.473 198.244C168.487 198.244 166.941 197.626 165.834 196.389C164.735 195.144 164.186 193.492 164.186 191.433ZM167.36 191.433C167.36 194.313 168.397 195.754 170.473 195.754C171.425 195.754 172.178 195.38 172.731 194.631C173.292 193.882 173.573 192.816 173.573 191.433C173.573 188.592 172.54 187.172 170.473 187.172C169.521 187.172 168.764 187.547 168.202 188.295C167.641 189.044 167.36 190.09 167.36 191.433Z" fill="#1D3461"/>
<defs>
<filter id="filter0_di_25_232" x="0" y="0" width="248" height="248" filterUnits="userSpaceOnUse" color-interpolation-filters="sRGB">
<feFlood flood-opacity="0" result="BackgroundImageFix"/>
<feColorMatrix in="SourceAlpha" type="matrix" values="0 0 0 0 0 0 0 0 0 0 0 0 0 0 0 0 0 0 127 0" result="hardAlpha"/>
<feOffset dy="4"/>
<feGaussianBlur stdDeviation="2"/>
<feComposite in2="hardAlpha" operator="out"/>
<feColorMatrix type="matrix" values="0 0 0 0 0 0 0 0 0 0 0 0 0 0 0 0 0 0 0.25 0"/>
<feBlend mode="normal" in2="BackgroundImageFix" result="effect1_dropShadow_25_232"/>
<feBlend mode="normal" in="SourceGraphic" in2="effect1_dropShadow_25_232" result="shape"/>
<feColorMatrix in="SourceAlpha" type="matrix" values="0 0 0 0 0 0 0 0 0 0 0 0 0 0 0 0 0 0 127 0" result="hardAlpha"/>
<feOffset dy="4"/>
<feGaussianBlur stdDeviation="2"/>
<feComposite in2="hardAlpha" operator="arithmetic" k2="-1" k3="1"/>
<feColorMatrix type="matrix" values="0 0 0 0 0 0 0 0 0 0 0 0 0 0 0 0 0 0 0.25 0"/>
<feBlend mode="normal" in2="shape" result="effect2_innerShadow_25_232"/>
</filter>
</defs>
</svg>
