<svg width="423" height="90" viewBox="0 0 423 90" fill="none" xmlns="http://www.w3.org/2000/svg">
<mask id="path-1-inside-1_17_360" fill="white">
<path d="M54.3901 56.4605V80.9267L12.6094 58.1543L34.629 45.9212L54.3901 56.4605Z"/>
</mask>
<path d="M54.3901 80.9267L37.64 111.658L89.3901 139.864V80.9267H54.3901ZM54.3901 56.4605H89.3901V35.4604L70.8607 25.5781L54.3901 56.4605ZM34.629 45.9212L51.0995 15.0388L34.2874 6.07238L17.6315 15.3257L34.629 45.9212ZM12.6094 58.1543L-4.38813 27.5588L-59.9872 58.4471L-4.14074 88.8859L12.6094 58.1543ZM89.3901 80.9267V56.4605H19.3901V80.9267H89.3901ZM70.8607 25.5781L51.0995 15.0388L18.1584 76.8036L37.9196 87.3428L70.8607 25.5781ZM17.6315 15.3257L-4.38813 27.5588L29.6069 88.7498L51.6265 76.5167L17.6315 15.3257ZM-4.14074 88.8859L37.64 111.658L71.1402 50.195L29.3595 27.4227L-4.14074 88.8859Z" fill="white" mask="url(#path-1-inside-1_17_360)"/>
<path d="M54.5254 8.50615L10.6106 32.6135V56.7192L54.5254 32.6135V8.50615Z" fill="white"/>
<path d="M59.4717 80.9602L103.386 56.8549V32.7471L59.4717 56.8549V80.9602Z" fill="white"/>
<path d="M241.928 8.50615L232.981 11.4918V79.3869H241.928V8.50615ZM337.617 8.50615L328.669 11.4918V44.6451C325.725 41.391 321.24 39.1238 316.437 39.1238C310.017 39.1238 304.851 41.5976 301.365 45.5196C297.882 49.4431 296.069 54.7596 296.069 60.4236C296.069 66.039 297.868 71.13 301.283 74.818C304.699 78.5062 309.723 80.7364 315.899 80.7364C320.781 80.7364 325.559 78.4534 328.669 75.1253V79.3869H337.617V8.50615ZM136.051 11.3339L126.567 14.2588V79.3869H136.051V11.3339ZM157.728 39.0912L148.781 42.079V79.3869H157.728V55.7463C157.728 50.8419 162.327 47.2721 166.996 47.2721C173.107 47.2721 176.353 50.9566 176.353 55.7463V79.3869H185.3V54.8455C185.3 46.5577 178.784 39.2138 169.599 39.2138C164.735 39.2138 160.521 41.2699 157.728 43.9631V39.0912ZM261.047 39.1814L252.102 42.169V65.1911C252.102 73.4708 258.526 80.8266 267.71 80.8266C272.634 80.8266 276.875 78.7663 279.676 76.035V79.3869H288.619V39.1814L279.676 42.169V64.3802C279.676 69.1844 275.075 72.7682 270.406 72.7682C267.297 72.7682 264.991 71.81 263.439 70.3231C261.887 68.8363 261.047 66.7823 261.047 64.3802V39.1814ZM213.835 39.2138C202.467 39.2138 192.746 48.5666 192.746 60.0655C192.746 71.4803 202.467 80.8266 213.835 80.8266C217.083 80.8266 221.101 80.0586 224.929 77.5663L225.496 77.1998V67.0324L223.358 69.2852C223.358 69.2852 222.676 70.0158 221.099 70.837C219.522 71.6564 217.126 72.4977 213.835 72.4977C206.862 72.4977 201.603 66.9809 201.603 60.0655C201.603 53.0516 206.852 47.6308 213.835 47.6308C217.12 47.6308 219.516 48.4889 221.091 49.3304C222.665 50.1702 223.345 50.9216 223.345 50.9216L225.496 53.244V42.8223L224.91 42.46C221.101 40.0741 217.108 39.2138 213.835 39.2138ZM365.197 39.2138C354.596 39.2138 345.009 47.5158 345.009 60.8746C345.009 67.0606 347.596 72.1313 351.671 75.5635C355.744 78.9959 361.26 80.8266 367.174 80.8266C373.978 80.8266 378.263 78.7049 381.912 76.512L382.514 76.1492V67.2269L380.638 68.355C377.022 70.5302 374.11 72.4977 367.174 72.4977C363.254 72.4977 360.221 71.4985 358.065 69.8215C356.291 68.4411 355.22 66.4793 354.589 64.1856H385.186L385.207 62.9651C385.346 55.3225 383.397 49.3613 379.823 45.3103C376.247 41.2579 371.091 39.2138 365.197 39.2138ZM316.888 47.5406C323.812 47.5406 328.669 52.5371 328.669 59.9753C328.669 67.2226 323.802 72.3179 316.888 72.3179C310.071 72.3179 305.193 67.2226 305.193 59.9753C305.193 52.5371 310.06 47.5406 316.888 47.5406ZM365.197 47.721C368.869 47.721 371.466 49.1317 373.215 51.0242C374.609 52.533 375.277 54.325 375.553 55.9449H354.669C356.16 50.2992 360.192 47.721 365.197 47.721Z" fill="white"/>
<path d="M385.686 40.4448C384.56 40.4448 383.622 40.1947 382.868 39.6992C382.115 39.2076 381.564 38.6261 381.214 37.9547C380.859 37.283 380.681 36.7012 380.681 36.2098C380.681 35.6463 380.906 35.1283 381.353 34.6533C381.801 34.1826 382.305 33.8548 382.868 33.6704L383.188 33.5964C383.257 33.5964 383.304 33.6252 383.327 33.6866C383.347 33.746 383.36 33.8339 383.36 33.9488C383.501 35.2699 383.796 36.3593 384.244 37.2176C384.691 38.073 385.559 38.5035 386.849 38.5035C387.718 38.5035 388.443 38.2433 389.028 37.725C389.618 37.2049 390.112 36.3656 390.511 35.2023C390.915 34.039 391.281 32.4478 391.609 30.4263L394.639 11.1521H394.46C393.988 11.1521 393.366 11.0703 392.592 10.9063C391.416 10.6933 390.513 10.5869 389.88 10.5869C388.777 10.5869 387.955 10.7341 387.415 11.0289C386.874 11.3239 386.358 11.7314 385.866 12.2498C385.723 12.4134 385.598 12.5446 385.489 12.643C385.385 12.7369 385.287 12.782 385.195 12.782C385.031 12.782 384.949 12.6981 384.949 12.5282L384.982 12.143C385.195 10.8977 385.776 9.98028 386.727 9.3906C387.677 8.80078 389.032 8.50615 390.798 8.50615C391.545 8.50615 392.331 8.56746 393.157 8.68654C393.321 8.70902 393.653 8.74359 394.157 8.79295C394.664 8.83791 395.188 8.85839 395.729 8.85839C396.22 8.85839 396.614 8.83791 396.909 8.79295C397.204 8.74359 397.539 8.64912 397.916 8.50615C397.56 9.51792 397.328 10.3721 397.22 11.0703C397.115 11.7642 397.052 12.2148 397.032 12.4218L394.599 28.2721C393.992 32.1998 392.913 35.2064 391.363 37.2993C389.81 39.3962 387.918 40.4448 385.686 40.4448Z" fill="white"/>
<path d="M400.116 33.351C400.021 33.351 399.945 33.3307 399.886 33.2934C399.831 33.2608 399.804 33.2216 399.804 33.1786C399.804 33.1073 399.872 32.9558 400.009 32.72C400.15 32.4804 400.257 32.151 400.328 31.729C400.421 31.2337 400.502 30.7785 400.574 30.3691C400.644 29.9596 400.715 29.5785 400.787 29.2226C401.377 26.001 401.77 23.7483 401.967 22.4644C402.167 21.1826 402.256 20.2485 402.229 19.6628C402.229 19.3577 402.204 19.1343 402.155 18.9912C402.11 18.8496 402.008 18.7785 401.844 18.7785C401.631 18.7785 401.361 18.9566 401.033 19.3104C400.705 19.6607 400.398 20.0707 400.116 20.5393C400.001 20.7523 399.894 20.9366 399.796 21.0883C399.702 21.2419 399.626 21.3546 399.567 21.4243C399.511 21.4956 399.448 21.5307 399.378 21.5307C399.284 21.5307 399.214 21.4956 399.165 21.4243C399.12 21.3546 399.1 21.2601 399.1 21.1455C399.1 20.6992 399.35 20.0764 399.853 19.278C400.361 18.4755 400.959 17.7625 401.647 17.1401C402.339 16.5131 402.958 16.198 403.499 16.198C403.945 16.198 404.256 16.3763 404.432 16.7302C404.606 17.0866 404.694 17.6376 404.694 18.3853C404.694 19.4232 404.473 20.824 404.031 22.5872H404.096C406.329 18.3275 408.397 16.198 410.298 16.198C410.793 16.198 411.176 16.3353 411.444 16.6074C411.717 16.8759 411.854 17.2586 411.854 17.7545C411.854 18.2745 411.741 18.803 411.518 19.3436C411.293 19.884 411.022 20.3327 410.707 20.6867C410.389 21.0368 410.101 21.211 409.839 21.211C409.675 21.211 409.618 21.1045 409.666 20.8917C409.736 20.5639 409.773 20.3083 409.773 20.1216C409.773 19.5543 409.466 19.2696 408.856 19.2696C408.129 19.2696 407.4 19.6937 406.669 20.5393C405.942 21.387 405.303 22.4214 404.752 23.644C404.199 24.8686 403.818 25.9869 403.605 27.0024C403.327 28.0839 403.15 29.212 403.081 30.3854C403.031 30.8341 402.823 31.2867 402.458 31.7453C402.098 32.204 401.682 32.5872 401.213 32.8922C400.742 33.1975 400.378 33.351 400.116 33.351Z" fill="white"/>
</svg>
