<svg width="150" height="153" viewBox="0 0 150 153" fill="none" xmlns="http://www.w3.org/2000/svg">
<path d="M59.0348 52.2477L75.3515 68.924C76.2596 69.8504 76.2596 71.3746 75.3515 72.301L72.0413 75.6781C71.1332 76.6046 69.6392 76.6046 68.7311 75.6781L52.4143 59.0019L39.1441 72.5401L55.4902 89.2164C56.3983 90.1428 56.3983 91.667 55.4902 92.5935L52.18 95.9706C51.2718 96.897 49.7779 96.897 48.8697 95.9706L32.5237 79.2644L24.7901 87.1543C19.7222 92.3245 17.2908 99.4373 18.0524 106.7L20.1323 125.707L0.681086 145.551C-0.227029 146.477 -0.227029 148.002 0.681086 148.928L3.99131 152.305C4.89942 153.232 6.39342 153.232 7.30153 152.305L26.7235 132.491L45.3545 134.613C52.3557 135.39 59.3863 132.999 64.5127 127.739L117.799 73.3769L78.0466 32.822L59.0348 52.2477ZM149.319 24.3643L126.118 0.694843C125.21 -0.231614 123.716 -0.231614 122.808 0.694843L119.498 4.07193C118.589 4.99839 118.589 6.52256 119.498 7.44902L127.788 15.9067L114.518 29.4449L97.9372 12.5296L92.9572 7.44902C92.0491 6.52256 90.5551 6.52256 89.647 7.44902L79.7163 17.5803C78.8082 18.5067 78.8082 20.0309 79.7163 20.9574L84.6963 26.0379L124.448 66.6526L129.428 71.7332C130.336 72.6597 131.83 72.6597 132.738 71.7332L142.669 61.5721C143.577 60.6456 143.577 59.1214 142.669 58.195L121.138 36.229L134.408 22.6907L142.698 31.1484C143.607 32.0749 145.101 32.0749 146.009 31.1484L149.319 27.7713C150.227 26.815 150.227 25.3207 149.319 24.3643Z" fill="#F6F7F8"/>
</svg>
