<svg width="120" height="141" viewBox="0 0 120 141" fill="none" xmlns="http://www.w3.org/2000/svg">
<path d="M83.427 42.8296C83.427 42.8296 85.172 63.6622 86.6667 62.4888C91.6667 58.5633 92.7787 48.3635 92.7787 34.2672C92.779 7.78048 64.3167 1.79691 54.4723 0.251261C38.3333 -2.28277 39.3657 15.1738 38.1067 15.6636C17.605 35.2349 33.3333 62.4888 33.3333 62.4888C33.3333 62.4888 36.1287 29.6193 46.7393 30.353C66.7017 46.0101 83.427 42.8296 83.427 42.8296Z" fill="#1D3461"/>
<path fill-rule="evenodd" clip-rule="evenodd" d="M28.1087 107.403C25.244 109.474 23.3333 113.198 23.3333 117.447C23.3333 123.951 27.8103 129.223 33.3333 129.223C38.8563 129.223 43.3333 123.951 43.3333 117.447C43.3333 111.464 39.5453 106.523 34.6397 105.769C34.5303 105.308 34.4163 104.777 34.3003 104.18C33.901 102.126 33.52 99.5194 33.2363 96.8418C32.952 94.1598 32.7757 91.5003 32.764 89.3294C32.7597 88.5341 32.778 87.8409 32.8153 87.2595C34.0977 86.8261 35.3837 86.4355 36.6667 86.0916C38.1377 85.6971 39.0083 87.742 39.7137 89.3989C39.812 89.6294 39.907 89.8527 40 90.0608H53.5463C56.599 90.06 58.108 90.0604 59.6343 90.0608C61.1257 90.0612 62.6353 90.0616 65.617 90.0608H79.1643C79.925 88.3587 81.6573 85.6422 83.3333 86.0916C85.121 86.571 86.915 87.1402 88.6963 87.791L88.6853 87.7977C88.6813 87.7887 88.6817 87.7902 88.6857 87.8032C88.7013 87.8585 88.7747 88.1149 88.8473 88.6715C88.9303 89.3055 88.988 90.1291 89.0117 91.1203C89.059 93.1003 88.9647 95.5067 88.7657 97.9311C88.5663 100.353 88.2703 102.698 87.937 104.548C87.8633 104.958 87.7897 105.333 87.7173 105.67H83.3333C82.0707 105.67 80.9167 106.51 80.352 107.84L77.0187 115.691C76.787 116.236 76.6667 116.837 76.6667 117.447V125.298C76.6667 127.466 78.159 129.223 80 129.223H86.6667V121.372H83.3333V118.373L85.3933 113.521H94.6067L96.6667 118.373V121.372H93.3333V129.223H100C101.841 129.223 103.333 127.466 103.333 125.298V117.447C103.333 116.837 103.213 116.236 102.981 115.691L99.648 107.84C99.0833 106.51 97.9293 105.67 96.6667 105.67H94.5477C94.9037 103.579 95.2 101.135 95.401 98.6876C95.6187 96.0418 95.7327 93.2958 95.6757 90.9005L95.673 90.7925C108.965 97.4059 120 108.285 120 119.684V141H0V119.684C0 107.78 12.0331 96.4445 26.1033 89.9403C26.1413 92.3804 26.3377 95.1424 26.6207 97.8141C26.9263 100.698 27.343 103.571 27.802 105.933C27.9003 106.439 28.0027 106.931 28.1087 107.403ZM33.3333 121.43C35.128 121.43 36.6667 119.701 36.6667 117.447C36.6667 115.192 35.128 113.463 33.3333 113.463C31.5387 113.463 30 115.192 30 117.447C30 119.701 31.5387 121.43 33.3333 121.43Z" fill="#1D3461"/>
<mask id="mask0_17_348" style="mask-type:luminance" maskUnits="userSpaceOnUse" x="0" y="86" width="120" height="55">
<path fill-rule="evenodd" clip-rule="evenodd" d="M28.1087 107.403C25.244 109.474 23.3333 113.198 23.3333 117.447C23.3333 123.951 27.8103 129.223 33.3333 129.223C38.8563 129.223 43.3333 123.951 43.3333 117.447C43.3333 111.464 39.5453 106.523 34.6397 105.769C34.5303 105.308 34.4163 104.777 34.3003 104.18C33.901 102.126 33.52 99.5194 33.2363 96.8418C32.952 94.1598 32.7757 91.5003 32.764 89.3294C32.7597 88.5341 32.778 87.8409 32.8153 87.2595C34.0977 86.8261 35.3837 86.4355 36.6667 86.0916C38.1377 85.6971 39.0083 87.742 39.7137 89.3989C39.812 89.6294 39.907 89.8527 40 90.0608H53.5463C56.599 90.06 58.108 90.0604 59.6343 90.0608C61.1257 90.0612 62.6353 90.0616 65.617 90.0608H79.1643C79.925 88.3587 81.6573 85.6422 83.3333 86.0916C85.121 86.571 86.915 87.1402 88.6963 87.791L88.6853 87.7977C88.6813 87.7887 88.6817 87.7902 88.6857 87.8032C88.7013 87.8585 88.7747 88.1149 88.8473 88.6715C88.9303 89.3055 88.988 90.1291 89.0117 91.1203C89.059 93.1003 88.9647 95.5067 88.7657 97.9311C88.5663 100.353 88.2703 102.698 87.937 104.548C87.8633 104.958 87.7897 105.333 87.7173 105.67H83.3333C82.0707 105.67 80.9167 106.51 80.352 107.84L77.0187 115.691C76.787 116.236 76.6667 116.837 76.6667 117.447V125.298C76.6667 127.466 78.159 129.223 80 129.223H86.6667V121.372H83.3333V118.373L85.3933 113.521H94.6067L96.6667 118.373V121.372H93.3333V129.223H100C101.841 129.223 103.333 127.466 103.333 125.298V117.447C103.333 116.837 103.213 116.236 102.981 115.691L99.648 107.84C99.0833 106.51 97.9293 105.67 96.6667 105.67H94.5477C94.9037 103.579 95.2 101.135 95.401 98.6876C95.6187 96.0418 95.7327 93.2958 95.6757 90.9005L95.673 90.7925C108.965 97.4059 120 108.285 120 119.684V141H0V119.684C0 107.78 12.0331 96.4445 26.1033 89.9403C26.1413 92.3804 26.3377 95.1424 26.6207 97.8141C26.9263 100.698 27.343 103.571 27.802 105.933C27.9003 106.439 28.0027 106.931 28.1087 107.403ZM33.3333 121.43C35.128 121.43 36.6667 119.701 36.6667 117.447C36.6667 115.192 35.128 113.463 33.3333 113.463C31.5387 113.463 30 115.192 30 117.447C30 119.701 31.5387 121.43 33.3333 121.43Z" fill="white"/>
</mask>
<g mask="url(#mask0_17_348)">
<path d="M28.1086 107.403L31.5966 114.094L35.8196 111.041L34.5539 105.398L28.1086 107.403ZM34.6396 105.769L28.2183 107.88L29.4036 112.883L33.7772 113.554L34.6396 105.769ZM32.8153 87.2595L30.9759 79.713L26.5166 81.2204L26.1673 86.6687L32.8153 87.2595ZM39.9999 90.0608L34.1009 93.7182L35.9756 97.9119H39.9999V90.0608ZM79.1643 90.0608V97.9119H83.1886L85.0632 93.7182L79.1643 90.0608ZM88.6962 87.791L91.6776 94.8134L106.511 86.0795L90.6716 80.2924L88.6962 87.791ZM88.6852 87.7977L82.7246 91.3146L85.7086 98.328L91.6663 94.8201L88.6852 87.7977ZM88.6856 87.8032L95.1806 86.0339L95.1076 85.6618L95.0042 85.2999L88.6856 87.8032ZM88.6856 87.8032L82.1903 89.5728L82.2643 89.9493L82.3692 90.3155L88.6856 87.8032ZM88.6856 87.8032L95.0042 85.2999L95.0019 85.2912L88.6856 87.8032ZM87.7173 105.67V113.521H92.9096L94.1809 107.592L87.7173 105.67ZM86.6666 129.223V137.074H93.3333V129.223H86.6666ZM86.6666 121.372H93.3333V113.521H86.6666V121.372ZM83.3333 121.372H76.6666V129.223H83.3333V121.372ZM83.3333 118.373L77.3702 114.862L76.6666 116.52V118.373H83.3333ZM85.3932 113.521V105.67H81.2732L79.4306 110.01L85.3932 113.521ZM94.6066 113.521L100.569 110.01L98.7266 105.67H94.6066V113.521ZM96.6666 118.373H103.333V116.52L102.63 114.862L96.6666 118.373ZM96.6666 121.372V129.223H103.333V121.372H96.6666ZM93.3333 121.372V113.521H86.6666V121.372H93.3333ZM93.3333 129.223H86.6666V137.074H93.3333V129.223ZM94.5476 105.67L88.0113 104.126L86.4109 113.521H94.5476V105.67ZM95.6756 90.9004L102.34 90.6802V90.67L95.6756 90.9004ZM95.6729 90.7925L98.2676 83.5604L88.7046 78.8019L89.0093 91.0229L95.6729 90.7925ZM120 141V148.851H126.667V141H120ZM-8.15392e-05 141H-6.66675V148.851H-8.15392e-05V141ZM26.1033 89.9403L32.7689 89.797L32.5943 78.5051L23.6672 82.632L26.1033 89.9403ZM29.9999 117.447C29.9999 116.039 30.6243 114.797 31.5966 114.094L24.6203 100.712C19.8633 104.152 16.6666 110.356 16.6666 117.447H29.9999ZM33.3333 121.372C31.4923 121.372 29.9999 119.615 29.9999 117.447H16.6666C16.6666 128.287 24.1286 137.074 33.3333 137.074V121.372ZM36.6666 117.447C36.6666 119.615 35.1743 121.372 33.3333 121.372V137.074C42.5379 137.074 49.9999 128.287 49.9999 117.447H36.6666ZM33.7772 113.554C35.4056 113.805 36.6666 115.458 36.6666 117.447H49.9999C49.9999 107.469 43.6846 99.2415 35.5019 97.9841L33.7772 113.554ZM41.0609 103.659C40.9846 103.337 40.8959 102.926 40.7989 102.428L27.8019 105.933C27.9369 106.627 28.0763 107.28 28.2183 107.88L41.0609 103.659ZM40.7989 102.428C40.4593 100.68 40.1133 98.3406 39.8516 95.8698L26.6206 97.8141C26.9263 100.698 27.3429 103.571 27.8019 105.933L40.7989 102.428ZM39.8516 95.8698C39.5882 93.3841 39.4399 91.0488 39.4306 89.2804L26.0976 89.3789C26.1113 91.9517 26.3156 94.9351 26.6206 97.8141L39.8516 95.8698ZM39.4306 89.2804C39.4273 88.6436 39.4426 88.1702 39.4629 87.8503L26.1673 86.6687C26.1133 87.5115 26.0923 88.425 26.0976 89.3789L39.4306 89.2804ZM35.1863 78.4364C33.7799 78.8137 32.3743 79.2404 30.9759 79.713L34.6546 94.806C35.8209 94.4115 36.9872 94.0578 38.1469 93.7469L35.1863 78.4364ZM45.6732 85.8797C45.4186 85.2818 44.6616 83.4003 43.5266 81.8497C42.2619 80.122 39.3623 77.3168 35.1863 78.4364L38.1469 93.7469C37.0326 94.0456 35.8666 93.8768 34.8799 93.3425C34.0226 92.8785 33.5599 92.2826 33.4279 92.1021C33.2853 91.9077 33.2659 91.8324 33.3636 92.0334C33.4593 92.2296 33.5639 92.4711 33.7543 92.9178L45.6732 85.8797ZM45.8989 86.4033C45.8426 86.2769 45.7779 86.1258 45.6732 85.8797L33.7543 92.9178C33.8459 93.1333 33.9713 93.4285 34.1009 93.7182L45.8989 86.4033ZM53.5462 82.2097H39.9999V97.9119H53.5462V82.2097ZM59.6369 82.2097C58.1099 82.2093 56.6003 82.2089 53.5462 82.2097V97.9119C56.5976 97.9111 58.1069 97.9115 59.6329 97.9119L59.6369 82.2097ZM65.6169 82.2097C62.6366 82.2104 61.1276 82.2101 59.6369 82.2097L59.6329 97.9119C61.1246 97.9123 62.6352 97.9127 65.6182 97.9119L65.6169 82.2097ZM79.1643 82.2097H65.6169L65.6182 97.9119H79.1643V82.2097ZM84.8136 78.4364C80.4966 77.2788 77.3713 80.3792 76.2839 81.6114C74.8876 83.193 73.8689 85.0521 73.2649 86.4033L85.0632 93.7182C85.1169 93.5985 85.2099 93.414 85.3246 93.2248C85.3789 93.1353 85.4283 93.0615 85.4686 93.0049C85.5099 92.9472 85.5309 92.9237 85.5272 92.9276C85.5256 92.9296 85.4776 92.9845 85.3789 93.0681C85.2826 93.1498 85.0989 93.2927 84.8259 93.4379C84.2673 93.7351 83.1893 94.1049 81.8529 93.7469L84.8136 78.4364ZM90.6716 80.2924C88.7319 79.5838 86.7726 78.962 84.8136 78.4364L81.8529 93.7469C83.4689 94.1803 85.0979 94.6969 86.7209 95.2896L90.6716 80.2924ZM91.6663 94.8201L91.6776 94.8134L85.7149 80.7686L85.7039 80.7753L91.6663 94.8201ZM95.0042 85.2999C94.9976 85.2767 95.0112 85.3246 95.0249 85.374C95.0309 85.396 95.0549 85.4828 95.0829 85.5951C95.0966 85.6512 95.1232 85.7611 95.1529 85.9009C95.1716 85.9896 95.2436 86.3295 95.2929 86.7735C95.3149 86.9729 95.3669 87.4813 95.3429 88.1333C95.3366 88.299 95.3286 90.6429 93.8242 92.7894C92.8396 94.1944 91.3319 95.3285 89.4666 95.5884C87.8126 95.8192 86.5259 95.2712 85.8589 94.9041C84.6446 94.2356 83.9256 93.297 83.7943 93.1306C83.3552 92.5727 83.0853 92.0573 83.0539 91.9992C82.9642 91.8324 82.8989 91.6973 82.8699 91.6365C82.8092 91.5089 82.7649 91.4076 82.7552 91.3856C82.7396 91.3491 82.7276 91.3209 82.7246 91.3146L94.6456 84.2808C94.6419 84.2721 94.6289 84.2419 94.6126 84.2038C94.6022 84.1803 94.5573 84.0774 94.4962 83.9495C94.4669 83.8878 94.4016 83.7524 94.3116 83.5856C94.2799 83.5267 94.0103 83.0113 93.5709 82.4534C93.4396 82.287 92.7206 81.3484 91.5062 80.6799C90.8392 80.3124 89.5522 79.7644 87.8982 79.9952C86.0332 80.2555 84.5256 81.3892 83.5409 82.7946C82.0366 84.9411 82.0283 87.285 82.0223 87.4507C81.9979 88.1027 82.0499 88.6115 82.0723 88.8109C82.1216 89.2549 82.1936 89.5952 82.2122 89.6843C82.2419 89.8245 82.2686 89.9352 82.2826 89.9913C82.3109 90.1051 82.3353 90.1931 82.3419 90.2174C82.3512 90.2519 82.3593 90.2794 82.3616 90.2881C82.3633 90.294 82.3646 90.299 82.3652 90.3014C82.3662 90.3042 82.3669 90.3065 82.3669 90.3069L95.0042 85.2999ZM95.4363 87.4762C95.3019 86.4481 95.1343 85.7544 95.0042 85.2999L82.3669 90.3069C82.3669 90.3069 82.3579 90.2763 82.3476 90.2374C82.3372 90.1993 82.3269 90.1605 82.3169 90.1212C82.2969 90.0423 82.2822 89.9768 82.2716 89.9261C82.2506 89.826 82.2499 89.8009 82.2586 89.8672L95.4363 87.4762ZM95.6756 90.9004C95.6473 89.7043 95.5749 88.5345 95.4363 87.4762L82.2586 89.8672C82.2859 90.0761 82.3289 90.5538 82.3476 91.3405L95.6756 90.9004ZM95.4009 98.6876C95.6186 96.0418 95.7326 93.2958 95.6756 90.9004L82.3476 91.3405C82.3849 92.9048 82.3109 94.9713 82.1299 97.1751L95.4009 98.6876ZM94.4586 106.178C94.8546 103.98 95.1836 101.336 95.4009 98.6876L82.1299 97.1751C81.9492 99.3702 81.6862 101.416 81.4156 102.919L94.4586 106.178ZM94.1809 107.592C94.2766 107.146 94.3693 106.674 94.4586 106.178L81.4156 102.919C81.3572 103.243 81.3026 103.519 81.2536 103.747L94.1809 107.592ZM83.3333 113.521H87.7173V97.8189H83.3333V113.521ZM86.3146 111.351C85.7499 112.681 84.5959 113.521 83.3333 113.521V97.8189C79.5456 97.8189 76.0829 100.339 74.3889 104.329L86.3146 111.351ZM82.9812 119.202L86.3146 111.351L74.3889 104.329L71.0556 112.18L82.9812 119.202ZM83.3333 117.447C83.3333 118.056 83.2129 118.657 82.9812 119.202L71.0556 112.18C70.3613 113.815 69.9999 115.618 69.9999 117.447H83.3333ZM83.3333 125.298V117.447H69.9999V125.298H83.3333ZM79.9999 121.372C81.8409 121.372 83.3333 123.13 83.3333 125.298H69.9999C69.9999 131.802 74.4769 137.074 79.9999 137.074V121.372ZM86.6666 121.372H79.9999V137.074H86.6666V121.372ZM79.9999 121.372V129.223H93.3333V121.372H79.9999ZM83.3333 129.223H86.6666V113.521H83.3333V129.223ZM76.6666 118.373V121.372H89.9999V118.373H76.6666ZM79.4306 110.01L77.3702 114.862L89.2962 121.884L91.3562 117.032L79.4306 110.01ZM94.6066 105.67H85.3932V121.372H94.6066V105.67ZM102.63 114.862L100.569 110.01L88.6436 117.032L90.7036 121.884L102.63 114.862ZM103.333 121.372V118.373H89.9999V121.372H103.333ZM93.3333 129.223H96.6666V113.521H93.3333V129.223ZM99.9999 129.223V121.372H86.6666V129.223H99.9999ZM99.9999 121.372H93.3333V137.074H99.9999V121.372ZM96.6666 125.298C96.6666 123.13 98.1589 121.372 99.9999 121.372V137.074C105.523 137.074 110 131.802 110 125.298H96.6666ZM96.6666 117.447V125.298H110V117.447H96.6666ZM97.0186 119.202C96.7869 118.657 96.6666 118.056 96.6666 117.447H110C110 115.618 109.639 113.815 108.944 112.18L97.0186 119.202ZM93.6852 111.351L97.0186 119.202L108.944 112.18L105.611 104.329L93.6852 111.351ZM96.6666 113.521C95.4039 113.521 94.2499 112.681 93.6852 111.351L105.611 104.329C103.917 100.339 100.454 97.8189 96.6666 97.8189V113.521ZM94.5476 113.521H96.6666V97.8189H94.5476V113.521ZM88.7656 97.9311C88.5819 100.164 88.3153 102.34 88.0113 104.126L101.084 107.214C101.492 104.818 101.818 102.106 102.037 99.4436L88.7656 97.9311ZM89.0116 91.1203C89.0589 93.1003 88.9646 95.5067 88.7656 97.9311L102.037 99.4436C102.272 96.5772 102.407 93.4909 102.34 90.6802L89.0116 91.1203ZM89.0093 91.0229L89.0119 91.1309L102.34 90.67L102.337 90.5621L89.0093 91.0229ZM126.667 119.684C126.667 110.939 122.482 103.453 117.425 97.7655C112.272 91.9698 105.441 87.1296 98.2676 83.5604L93.0782 98.0246C99.1966 101.069 104.53 104.975 108.217 109.121C112 113.376 113.333 117.029 113.333 119.684H126.667ZM126.667 141V119.684H113.333V141H126.667ZM-8.15392e-05 148.851H120V133.149H-8.15392e-05V148.851ZM-6.66675 119.684V141H6.66658V119.684H-6.66675ZM23.6672 82.632C16.0813 86.1387 8.79255 91.0516 3.27578 96.9941C-2.11895 102.805 -6.66675 110.56 -6.66675 119.684H6.66658C6.66658 116.904 8.13535 113.039 12.2747 108.58C16.2919 104.253 22.0553 100.246 28.5392 97.2485L23.6672 82.632ZM19.4379 90.0831C19.4809 92.8754 19.7023 95.9252 20.0053 98.7861L33.2362 96.8418C32.9729 94.3593 32.8013 91.885 32.7689 89.797L19.4379 90.0831ZM20.0053 98.7861C20.3329 101.877 20.7846 105.016 21.3033 107.685L34.3003 104.18C33.9009 102.126 33.5199 99.5194 33.2362 96.8418L20.0053 98.7861ZM21.3033 107.685C21.4159 108.263 21.5356 108.841 21.6629 109.409L34.5539 105.398C34.4696 105.021 34.3849 104.614 34.3003 104.18L21.3033 107.685ZM29.9999 117.447C29.9999 115.332 31.4739 113.579 33.3333 113.579V129.281C38.7819 129.281 43.3333 124.069 43.3333 117.447H29.9999ZM33.3333 121.314C31.4739 121.314 29.9999 119.561 29.9999 117.447H43.3333C43.3333 110.823 38.7819 105.612 33.3333 105.612V121.314ZM36.6666 117.447C36.6666 119.561 35.1926 121.314 33.3333 121.314V105.612C27.8846 105.612 23.3333 110.823 23.3333 117.447H36.6666ZM33.3333 113.579C35.1926 113.579 36.6666 115.332 36.6666 117.447H23.3333C23.3333 124.069 27.8846 129.281 33.3333 129.281V113.579Z" fill="#1D3461"/>
</g>
</svg>
