<svg width="138" height="170" viewBox="0 0 138 170" fill="none" xmlns="http://www.w3.org/2000/svg">
<path d="M96.5996 34.2677V14.1653H110.4V0H27.5996V14.1674H41.4004V34.2635C17.0404 45.2073 0 70.1292 0 99.1695C0 138.284 30.8889 170 69 170C107.105 170 138 138.284 138 99.1674C138 70.1271 120.96 45.2051 96.5996 34.2677ZM55.1992 44.3594V14.1674H82.8008V44.3615C101.951 49.4254 117.072 64.753 122.253 84.2945C105.321 87.261 87.8951 85.3889 71.6434 78.4571C55.4579 71.5679 38.2747 69.0986 21.3005 70.7434C28.6305 57.8489 40.7587 48.178 55.1992 44.3594ZM69 155.833C38.5148 155.833 13.7988 130.462 13.7988 99.1674C13.7988 94.5604 14.3639 90.0915 15.3761 85.8032C32.431 82.739 49.9848 84.5707 66.3587 91.5429C79.4308 97.1125 93.1778 99.9005 106.931 99.9005C112.7 99.9005 118.447 99.2927 124.168 98.3089C124.168 98.6 124.203 98.8784 124.203 99.1674C124.201 130.462 99.4852 155.833 69 155.833Z" fill="#F6F7F8"/>
<path d="M37.9497 120.417C43.6659 120.417 48.2998 115.66 48.2998 109.792C48.2998 103.924 43.6659 99.1672 37.9497 99.1672C32.2335 99.1672 27.5996 103.924 27.5996 109.792C27.5996 115.66 32.2335 120.417 37.9497 120.417Z" fill="#F6F7F8"/>
<path d="M96.5996 127.5C100.41 127.5 103.499 124.329 103.499 120.417C103.499 116.505 100.41 113.334 96.5996 113.334C92.7892 113.334 89.7002 116.505 89.7002 120.417C89.7002 124.329 92.7892 127.5 96.5996 127.5Z" fill="#F6F7F8"/>
<path d="M55.1992 141.665C59.0096 141.665 62.0986 138.494 62.0986 134.583C62.0986 130.671 59.0096 127.5 55.1992 127.5C51.3888 127.5 48.2998 130.671 48.2998 134.583C48.2998 138.494 51.3888 141.665 55.1992 141.665Z" fill="#F6F7F8"/>
</svg>
