<svg width="200" height="42" viewBox="0 0 200 42" fill="none" xmlns="http://www.w3.org/2000/svg">
<mask id="path-1-inside-1_9_35" fill="white">
<path d="M25.7454 26.6307V38.1708L5.96851 27.4297L16.3915 21.6597L25.7454 26.6307Z"/>
</mask>
<path d="M25.7454 38.1708L9.04119 68.9273L60.7454 97.0085V38.1708H25.7454ZM25.7454 26.6307H60.7454V5.59562L42.1705 -4.27587L25.7454 26.6307ZM16.3915 21.6597L32.8165 -9.24694L16.0509 -18.1569L-0.559889 -8.96142L16.3915 21.6597ZM5.96851 27.4297L-10.9829 -3.19141L-66.8265 27.7228L-10.7357 58.1863L5.96851 27.4297ZM60.7454 38.1708V26.6307H-9.25456V38.1708H60.7454ZM42.1705 -4.27587L32.8165 -9.24694L-0.0335374 52.5663L9.32042 57.5373L42.1705 -4.27587ZM-0.559889 -8.96142L-10.9829 -3.19141L22.9199 58.0508L33.3429 52.2808L-0.559889 -8.96142ZM-10.7357 58.1863L9.04119 68.9273L42.4497 7.41416L22.6728 -3.32692L-10.7357 58.1863Z" fill="#1D3461" mask="url(#path-1-inside-1_9_35)"/>
<path d="M25.8095 4.01208L5.02246 15.3829V26.7528L25.8095 15.3829V4.01208Z" fill="#1D3461"/>
<path d="M28.1509 38.1866L48.9377 26.8168V15.4459L28.1509 26.8168V38.1866Z" fill="#1D3461"/>
<path d="M114.516 4.01208L110.281 5.42034V37.4445H114.516V4.01208ZM159.811 4.01208L155.576 5.42034V21.0578C154.182 19.5229 152.059 18.4535 149.786 18.4535C146.747 18.4535 144.301 19.6204 142.651 21.4703C141.002 23.3209 140.145 25.8285 140.145 28.5001C140.145 31.1487 140.996 33.55 142.612 35.2895C144.229 37.0291 146.607 38.0811 149.531 38.0811C151.842 38.0811 154.103 37.0042 155.576 35.4345V37.4445H159.811V4.01208ZM64.3995 5.34586L59.9106 6.72546V37.4445H64.3995V5.34586ZM74.6603 18.4382L70.4253 19.8474V37.4445H74.6603V26.2939C74.6603 23.9807 76.8374 22.2969 79.0478 22.2969C81.9403 22.2969 83.4766 24.0348 83.4766 26.2939V37.4445H87.7119V25.869C87.7119 21.9599 84.6273 18.496 80.2798 18.496C77.9774 18.496 75.9825 19.4658 74.6603 20.7361V18.4382ZM123.566 18.4807L119.332 19.8899V30.7488C119.332 34.6541 122.373 38.1236 126.721 38.1236C129.051 38.1236 131.059 37.1518 132.385 35.8635V37.4445H136.618V18.4807L132.385 19.8899V30.3663C132.385 32.6323 130.207 34.3227 127.996 34.3227C126.525 34.3227 125.434 33.8707 124.699 33.1694C123.964 32.4681 123.566 31.4993 123.566 30.3663V18.4807ZM101.219 18.496C95.8379 18.496 91.2364 22.9075 91.2364 28.3312C91.2364 33.7152 95.8379 38.1236 101.219 38.1236C102.756 38.1236 104.658 37.7613 106.47 36.5858L106.739 36.4129V31.6173L105.726 32.6798C105.726 32.6798 105.404 33.0244 104.657 33.4118C103.911 33.7983 102.777 34.1951 101.219 34.1951C97.9183 34.1951 95.4288 31.593 95.4288 28.3312C95.4288 25.0229 97.9133 22.4661 101.219 22.4661C102.774 22.4661 103.908 22.8708 104.653 23.2677C105.399 23.6638 105.721 24.0182 105.721 24.0182L106.739 25.1137V20.198L106.461 20.0271C104.658 18.9018 102.768 18.496 101.219 18.496ZM172.866 18.496C167.848 18.496 163.31 22.4118 163.31 28.7128C163.31 31.6305 164.535 34.0222 166.464 35.6411C168.392 37.2601 171.002 38.1236 173.802 38.1236C177.023 38.1236 179.051 37.1229 180.778 36.0885L181.063 35.9174V31.709L180.175 32.2411C178.463 33.2671 177.085 34.1951 173.802 34.1951C171.946 34.1951 170.511 33.7238 169.49 32.9328C168.651 32.2817 168.144 31.3564 167.845 30.2745H182.328L182.338 29.6988C182.404 26.094 181.481 23.2823 179.789 21.3716C178.097 19.4601 175.656 18.496 172.866 18.496ZM149.999 22.4235C153.276 22.4235 155.576 24.7803 155.576 28.2886C155.576 31.707 153.272 34.1103 149.999 34.1103C146.772 34.1103 144.463 31.707 144.463 28.2886C144.463 24.7803 146.767 22.4235 149.999 22.4235ZM172.866 22.5086C174.604 22.5086 175.833 23.174 176.661 24.0666C177.321 24.7783 177.637 25.6235 177.768 26.3876H167.883C168.588 23.7247 170.497 22.5086 172.866 22.5086Z" fill="#1D3461"/>
<path d="M182.565 19.0766C182.032 19.0766 181.588 18.9587 181.231 18.725C180.874 18.4931 180.613 18.2188 180.448 17.9021C180.28 17.5853 180.196 17.3109 180.196 17.0791C180.196 16.8133 180.302 16.569 180.514 16.345C180.726 16.1229 180.964 15.9683 181.231 15.8814L181.382 15.8465C181.415 15.8465 181.437 15.86 181.448 15.889C181.458 15.917 181.464 15.9585 181.464 16.0127C181.53 16.6358 181.67 17.1496 181.882 17.5545C182.094 17.9579 182.505 18.161 183.115 18.161C183.526 18.161 183.869 18.0383 184.147 17.7938C184.426 17.5485 184.66 17.1526 184.848 16.6039C185.04 16.0552 185.213 15.3047 185.368 14.3512L186.803 5.2601H186.718C186.494 5.2601 186.2 5.22152 185.833 5.14415C185.277 5.0437 184.849 4.99351 184.55 4.99351C184.028 4.99351 183.639 5.06296 183.383 5.20199C183.127 5.34116 182.883 5.53334 182.65 5.77785C182.582 5.85502 182.523 5.91689 182.472 5.96332C182.422 6.00761 182.376 6.02888 182.332 6.02888C182.254 6.02888 182.216 5.98929 182.216 5.90917L182.231 5.72746C182.332 5.14012 182.607 4.70739 183.057 4.42925C183.507 4.15105 184.149 4.01208 184.984 4.01208C185.338 4.01208 185.71 4.04101 186.101 4.09717C186.179 4.10777 186.336 4.12408 186.574 4.14736C186.814 4.16857 187.062 4.17823 187.319 4.17823C187.551 4.17823 187.737 4.16857 187.877 4.14736C188.016 4.12408 188.175 4.07952 188.354 4.01208C188.185 4.48931 188.075 4.89218 188.024 5.22152C187.975 5.54884 187.945 5.76135 187.935 5.85898L186.783 13.3351C186.496 15.1877 185.986 16.6058 185.252 17.593C184.517 18.582 183.621 19.0766 182.565 19.0766Z" fill="#1D3461"/>
<path d="M189.395 15.7307C189.35 15.7307 189.314 15.7211 189.286 15.7036C189.26 15.6882 189.248 15.6697 189.248 15.6494C189.248 15.6158 189.28 15.5443 189.345 15.4331C189.411 15.3201 189.462 15.1647 189.496 14.9656C189.539 14.7321 189.578 14.5173 189.612 14.3242C189.645 14.1311 189.679 13.9513 189.713 13.7835C189.992 12.2639 190.178 11.2014 190.271 10.5958C190.366 9.99123 190.408 9.55064 190.395 9.27439C190.395 9.13046 190.384 9.02511 190.36 8.9576C190.339 8.89084 190.291 8.85729 190.213 8.85729C190.112 8.85729 189.984 8.9413 189.829 9.10818C189.674 9.27338 189.529 9.46677 189.395 9.6878C189.341 9.78825 189.29 9.87521 189.244 9.94674C189.199 10.0192 189.163 10.0724 189.135 10.1052C189.109 10.1389 189.079 10.1554 189.046 10.1554C189.001 10.1554 188.968 10.1389 188.945 10.1052C188.924 10.0724 188.914 10.0278 188.914 9.97372C188.914 9.76322 189.032 9.46945 189.271 9.09288C189.511 8.71436 189.794 8.37805 190.12 8.08448C190.448 7.78877 190.74 7.64014 190.996 7.64014C191.208 7.64014 191.355 7.72421 191.438 7.89116C191.521 8.05925 191.562 8.31913 191.562 8.67182C191.562 9.16139 191.458 9.82207 191.248 10.6537H191.279C192.336 8.64457 193.315 7.64014 194.215 7.64014C194.449 7.64014 194.63 7.70489 194.757 7.83325C194.886 7.95987 194.951 8.14038 194.951 8.37429C194.951 8.61955 194.898 8.86883 194.792 9.12381C194.686 9.37873 194.558 9.59037 194.408 9.75731C194.258 9.92245 194.122 10.0046 193.998 10.0046C193.92 10.0046 193.893 9.95439 193.916 9.85401C193.949 9.69941 193.967 9.57883 193.967 9.49079C193.967 9.22319 193.821 9.08892 193.532 9.08892C193.188 9.08892 192.843 9.28895 192.497 9.6878C192.153 10.0877 191.85 10.5755 191.589 11.1522C191.328 11.7298 191.147 12.2573 191.047 12.7363C190.915 13.2464 190.832 13.7785 190.799 14.3319C190.775 14.5436 190.676 14.757 190.504 14.9734C190.333 15.1897 190.136 15.3705 189.914 15.5143C189.692 15.6583 189.519 15.7307 189.395 15.7307Z" fill="#1D3461"/>
</svg>
