<svg width="1010" height="164" viewBox="0 0 1010 164" fill="none" xmlns="http://www.w3.org/2000/svg">
<rect x="10" y="14" width="1000" height="150" rx="20" fill="black" fill-opacity="0.2"/>
<rect width="1000" height="150" rx="20" fill="#F6F7F8"/>
<path d="M39.7356 89L37.7503 83.4893H28.4358L26.5432 89H21.1809L32.0169 61.4463H34.1321L45.0608 89H39.7356ZM33.0745 69.7588L29.8089 79.7969H36.3401L33.0745 69.7588ZM43.1527 94.1025L46.0843 90.4844C47.7047 91.9688 49.5107 92.7109 51.5023 92.7109C52.8382 92.7109 53.9391 92.513 54.805 92.1172C55.6709 91.7214 56.1038 91.1771 56.1038 90.4844C56.1038 89.3092 55.1452 88.7217 53.2279 88.7217C52.7083 88.7217 51.9352 88.7835 50.9085 88.9072C49.8818 89.0309 49.1087 89.0928 48.5892 89.0928C45.3978 89.0928 43.8021 87.9486 43.8021 85.6602C43.8021 85.0046 44.068 84.3613 44.5999 83.7305C45.1318 83.0996 45.7503 82.6357 46.4554 82.3389C44.1917 80.8669 43.0599 78.7826 43.0599 76.0859C43.0599 73.9583 43.8392 72.2018 45.3978 70.8164C46.9564 69.4186 48.8737 68.7197 51.1497 68.7197C52.931 68.7197 54.4215 69.0537 55.6214 69.7217L57.4398 67.6064L60.6497 70.5195L58.4417 72.1338C59.2086 73.2965 59.5921 74.6696 59.5921 76.2529C59.5921 78.5166 58.8994 80.3288 57.514 81.6895C56.1409 83.0378 54.403 83.7119 52.3001 83.7119C51.9661 83.7119 51.5208 83.681 50.9642 83.6191L50.2034 83.5078C50.1168 83.5078 49.7829 83.6439 49.2015 83.916C48.6325 84.1758 48.348 84.4479 48.348 84.7324C48.348 85.2272 48.7747 85.4746 49.6282 85.4746C50.0117 85.4746 50.6549 85.3818 51.5579 85.1963C52.4609 85.0107 53.234 84.918 53.8773 84.918C58.3922 84.918 60.6497 86.7301 60.6497 90.3545C60.6497 92.3584 59.7467 93.9294 57.9407 95.0674C56.1348 96.2178 53.9577 96.793 51.4095 96.793C48.3665 96.793 45.6142 95.8962 43.1527 94.1025ZM47.7913 76.1045C47.7913 77.2796 48.1129 78.2259 48.7562 78.9434C49.4118 79.6484 50.29 80.001 51.3909 80.001C52.4918 80.001 53.3392 79.6546 53.9329 78.9619C54.5267 78.2692 54.8236 77.3167 54.8236 76.1045C54.8236 75.1025 54.5019 74.2552 53.8587 73.5625C53.2279 72.8698 52.4053 72.5234 51.3909 72.5234C50.3271 72.5234 49.4613 72.8574 48.7933 73.5254C48.1253 74.1934 47.7913 75.0531 47.7913 76.1045ZM78.4095 80.4834H64.2152C64.3018 82.0667 64.8461 83.2975 65.848 84.1758C66.85 85.054 68.1983 85.4932 69.8929 85.4932C72.0082 85.4932 73.6162 84.9427 74.7171 83.8418L76.517 87.3857C74.8841 88.7093 72.4473 89.3711 69.2064 89.3711C66.1758 89.3711 63.7761 88.4867 62.0072 86.7178C60.2507 84.9365 59.3724 82.4564 59.3724 79.2773C59.3724 76.1478 60.3373 73.612 62.267 71.6699C64.209 69.7279 66.5345 68.7568 69.2435 68.7568C72.1257 68.7568 74.4388 69.6165 76.183 71.3359C77.9271 73.0553 78.7992 75.2448 78.7992 77.9043C78.7992 78.4733 78.6693 79.333 78.4095 80.4834ZM64.3822 76.9951H74.142C73.8203 74.0882 72.2123 72.6348 69.3177 72.6348C66.6706 72.6348 65.0254 74.0882 64.3822 76.9951ZM92.2729 89V77.5146C92.2729 75.82 91.9451 74.583 91.2895 73.8037C90.6462 73.0244 89.5886 72.6348 88.1166 72.6348C87.4363 72.6348 86.7064 72.8265 85.9272 73.21C85.1602 73.5934 84.5603 74.0697 84.1273 74.6387V89H79.4887V69.1279H82.8285L83.682 70.9834C84.9438 69.499 86.8054 68.7568 89.267 68.7568C91.6296 68.7568 93.4913 69.4681 94.852 70.8906C96.225 72.3008 96.9115 74.2738 96.9115 76.8096V89H92.2729ZM111.684 89V87.7939C111.301 88.2145 110.651 88.5856 109.736 88.9072C108.82 89.2165 107.874 89.3711 106.897 89.3711C104.126 89.3711 101.943 88.4928 100.347 86.7363C98.7638 84.9798 97.9721 82.5306 97.9721 79.3887C97.9721 76.2467 98.8813 73.6924 100.7 71.7256C102.53 69.7464 104.819 68.7568 107.565 68.7568C109.074 68.7568 110.447 69.0661 111.684 69.6846V61.7246L116.323 60.6113V89H111.684ZM111.684 73.8779C110.694 73.0863 109.662 72.6904 108.585 72.6904C106.73 72.6904 105.301 73.2594 104.299 74.3975C103.297 75.5231 102.796 77.1436 102.796 79.2588C102.796 83.3903 104.788 85.4561 108.771 85.4561C109.216 85.4561 109.761 85.3262 110.404 85.0664C111.059 84.7943 111.486 84.5221 111.684 84.25V73.8779ZM135.678 80.4834H121.484C121.57 82.0667 122.115 83.2975 123.117 84.1758C124.119 85.054 125.467 85.4932 127.162 85.4932C129.277 85.4932 130.885 84.9427 131.986 83.8418L133.786 87.3857C132.153 88.7093 129.716 89.3711 126.475 89.3711C123.444 89.3711 121.045 88.4867 119.276 86.7178C117.519 84.9365 116.641 82.4564 116.641 79.2773C116.641 76.1478 117.606 73.612 119.536 71.6699C121.478 69.7279 123.803 68.7568 126.512 68.7568C129.394 68.7568 131.708 69.6165 133.452 71.3359C135.196 73.0553 136.068 75.2448 136.068 77.9043C136.068 78.4733 135.938 79.333 135.678 80.4834ZM121.651 76.9951H131.411C131.089 74.0882 129.481 72.6348 126.586 72.6348C123.939 72.6348 122.294 74.0882 121.651 76.9951ZM150.955 61.4277C151.697 61.4277 152.328 61.6937 152.847 62.2256C153.379 62.7451 153.645 63.376 153.645 64.1182C153.645 64.8604 153.379 65.4974 152.847 66.0293C152.328 66.5488 151.697 66.8086 150.955 66.8086C150.212 66.8086 149.575 66.5488 149.044 66.0293C148.524 65.4974 148.264 64.8604 148.264 64.1182C148.264 63.376 148.524 62.7451 149.044 62.2256C149.575 61.6937 150.212 61.4277 150.955 61.4277ZM142.457 96.793V92.6553C144.931 92.6553 146.6 92.3584 147.466 91.7646C148.345 91.1833 148.784 90.1318 148.784 88.6104V72.9502H145.203V69.1279H153.422V88.5361C153.422 91.3812 152.526 93.4655 150.732 94.7891C148.951 96.125 146.192 96.793 142.457 96.793ZM167.156 87.0146C166.735 87.7074 165.999 88.2764 164.948 88.7217C163.909 89.1546 162.82 89.3711 161.682 89.3711C159.542 89.3711 157.86 88.8392 156.635 87.7754C155.411 86.6992 154.798 85.1777 154.798 83.2109C154.798 80.9102 155.658 79.1104 157.378 77.8115C159.109 76.5127 161.565 75.8633 164.744 75.8633C165.288 75.8633 165.931 75.9561 166.673 76.1416C166.673 73.8037 165.195 72.6348 162.239 72.6348C160.495 72.6348 159.035 72.9255 157.86 73.5068L156.858 69.9072C158.454 69.1403 160.352 68.7568 162.554 68.7568C165.585 68.7568 167.805 69.4495 169.215 70.835C170.626 72.208 171.331 74.818 171.331 78.665V82.9141C171.331 85.5612 171.863 87.2249 172.926 87.9053C172.543 88.5732 172.116 88.9814 171.646 89.1299C171.176 89.2907 170.638 89.3711 170.032 89.3711C169.364 89.3711 168.764 89.1237 168.232 88.6289C167.7 88.1341 167.341 87.596 167.156 87.0146ZM166.711 79.6484C165.919 79.4876 165.325 79.4072 164.929 79.4072C161.268 79.4072 159.437 80.6071 159.437 83.0068C159.437 84.7881 160.47 85.6787 162.536 85.6787C165.319 85.6787 166.711 84.2871 166.711 81.5039V79.6484ZM168.195 61.0195L164.002 66.4561H160.476L163.612 61.0195H168.195ZM180.521 87.7197L182.173 84.0273C183.558 85.1283 185.123 85.6787 186.867 85.6787C188.673 85.6787 189.576 85.0355 189.576 83.749C189.576 82.9945 189.304 82.376 188.759 81.8936C188.215 81.4111 187.158 80.8421 185.587 80.1865C182.16 78.764 180.447 76.7725 180.447 74.2119C180.447 72.4925 181.103 71.1566 182.414 70.2041C183.725 69.2393 185.401 68.7568 187.442 68.7568C189.508 68.7568 191.45 69.2207 193.268 70.1484L191.932 73.748C190.918 72.8822 189.508 72.4492 187.702 72.4492C186.081 72.4492 185.271 73.0924 185.271 74.3789C185.271 74.8861 185.537 75.3438 186.069 75.752C186.601 76.1602 187.739 76.7106 189.483 77.4033C191.227 78.0837 192.483 78.9124 193.25 79.8896C194.017 80.8669 194.4 82.0482 194.4 83.4336C194.4 85.2767 193.714 86.7301 192.341 87.7939C190.98 88.8454 189.124 89.3711 186.774 89.3711C185.451 89.3711 184.387 89.2598 183.583 89.0371C182.791 88.8268 181.771 88.3877 180.521 87.7197ZM207.874 89.0186V87.3486C207.218 87.9053 206.315 88.3815 205.165 88.7773C204.014 89.1732 202.957 89.3711 201.992 89.3711C197.378 89.3711 195.071 86.9219 195.071 82.0234V69.1279H199.71V81.6709C199.71 84.2191 200.854 85.4932 203.142 85.4932C204.194 85.4932 205.171 85.221 206.074 84.6768C206.977 84.1325 207.577 83.5016 207.874 82.7842V69.1279H212.512V89.0186H207.874ZM225.541 87.0146C225.12 87.7074 224.384 88.2764 223.333 88.7217C222.294 89.1546 221.205 89.3711 220.067 89.3711C217.927 89.3711 216.245 88.8392 215.02 87.7754C213.796 86.6992 213.183 85.1777 213.183 83.2109C213.183 80.9102 214.043 79.1104 215.762 77.8115C217.494 76.5127 219.95 75.8633 223.129 75.8633C223.673 75.8633 224.316 75.9561 225.058 76.1416C225.058 73.8037 223.58 72.6348 220.624 72.6348C218.88 72.6348 217.42 72.9255 216.245 73.5068L215.243 69.9072C216.839 69.1403 218.737 68.7568 220.939 68.7568C223.97 68.7568 226.19 69.4495 227.6 70.835C229.011 72.208 229.716 74.818 229.716 78.665V82.9141C229.716 85.5612 230.247 87.2249 231.311 87.9053C230.928 88.5732 230.501 88.9814 230.031 89.1299C229.561 89.2907 229.023 89.3711 228.417 89.3711C227.749 89.3711 227.149 89.1237 226.617 88.6289C226.085 88.1341 225.726 87.596 225.541 87.0146ZM225.095 79.6484C224.304 79.4876 223.71 79.4072 223.314 79.4072C219.653 79.4072 217.822 80.6071 217.822 83.0068C217.822 84.7881 218.855 85.6787 220.921 85.6787C223.704 85.6787 225.095 84.2871 225.095 81.5039V79.6484ZM255.717 70.7051L253.731 74.1748C252.643 73.1481 251.183 72.6348 249.352 72.6348C247.596 72.6348 246.204 73.2223 245.178 74.3975C244.163 75.5602 243.656 77.1745 243.656 79.2402C243.656 83.4089 245.641 85.4932 249.612 85.4932C251.332 85.4932 252.847 84.9242 254.158 83.7861L255.865 87.4414C254.517 88.2826 253.335 88.8145 252.321 89.0371C251.319 89.2598 250.132 89.3711 248.759 89.3711C245.691 89.3711 243.266 88.4805 241.485 86.6992C239.716 84.9056 238.832 82.4193 238.832 79.2402C238.832 76.1107 239.803 73.5811 241.745 71.6514C243.687 69.7217 246.334 68.7568 249.686 68.7568C252 68.7568 254.01 69.4062 255.717 70.7051ZM255.237 79.0176C255.237 75.987 256.109 73.5192 257.853 71.6143C259.61 69.7093 261.923 68.7568 264.793 68.7568C267.811 68.7568 270.155 69.6722 271.825 71.5029C273.495 73.3337 274.33 75.8385 274.33 79.0176C274.33 82.1842 273.476 84.7015 271.769 86.5693C270.075 88.4372 267.749 89.3711 264.793 89.3711C261.775 89.3711 259.424 88.431 257.742 86.5508C256.072 84.6582 255.237 82.1471 255.237 79.0176ZM260.061 79.0176C260.061 83.3965 261.639 85.5859 264.793 85.5859C266.24 85.5859 267.384 85.0169 268.225 83.8789C269.079 82.7409 269.506 81.1204 269.506 79.0176C269.506 74.7005 267.935 72.542 264.793 72.542C263.346 72.542 262.195 73.111 261.342 74.249C260.488 75.387 260.061 76.9766 260.061 79.0176ZM287.804 89V77.5146C287.804 75.82 287.476 74.583 286.82 73.8037C286.177 73.0244 285.119 72.6348 283.647 72.6348C282.967 72.6348 282.237 72.8265 281.458 73.21C280.691 73.5934 280.091 74.0697 279.658 74.6387V89H275.019V69.1279H278.359L279.213 70.9834C280.475 69.499 282.336 68.7568 284.798 68.7568C287.16 68.7568 289.022 69.4681 290.383 70.8906C291.756 72.3008 292.442 74.2738 292.442 76.8096V89H287.804ZM293.206 87.7197L294.857 84.0273C296.243 85.1283 297.808 85.6787 299.552 85.6787C301.358 85.6787 302.261 85.0355 302.261 83.749C302.261 82.9945 301.989 82.376 301.444 81.8936C300.9 81.4111 299.842 80.8421 298.271 80.1865C294.845 78.764 293.132 76.7725 293.132 74.2119C293.132 72.4925 293.787 71.1566 295.099 70.2041C296.41 69.2393 298.086 68.7568 300.127 68.7568C302.193 68.7568 304.135 69.2207 305.953 70.1484L304.617 73.748C303.603 72.8822 302.193 72.4492 300.387 72.4492C298.766 72.4492 297.956 73.0924 297.956 74.3789C297.956 74.8861 298.222 75.3438 298.754 75.752C299.286 76.1602 300.424 76.7106 302.168 77.4033C303.912 78.0837 305.168 78.9124 305.935 79.8896C306.701 80.8669 307.085 82.0482 307.085 83.4336C307.085 85.2767 306.398 86.7301 305.025 87.7939C303.665 88.8454 301.809 89.3711 299.459 89.3711C298.135 89.3711 297.072 89.2598 296.268 89.0371C295.476 88.8268 294.455 88.3877 293.206 87.7197ZM320.559 89.0186V87.3486C319.903 87.9053 319 88.3815 317.85 88.7773C316.699 89.1732 315.642 89.3711 314.677 89.3711C310.063 89.3711 307.756 86.9219 307.756 82.0234V69.1279H312.395V81.6709C312.395 84.2191 313.539 85.4932 315.827 85.4932C316.879 85.4932 317.856 85.221 318.759 84.6768C319.662 84.1325 320.262 83.5016 320.559 82.7842V69.1279H325.197V89.0186H320.559ZM327.965 61.7246L332.604 60.6113V82.9512C332.604 85.4004 333.333 86.86 334.793 87.3301C334.076 88.6908 332.851 89.3711 331.119 89.3711C329.016 89.3711 327.965 87.9115 327.965 84.9922V61.7246ZM336.039 72.8574H333.738V69.1279H336.039V65.083L340.678 63.376V69.1279H346.133V72.8574H340.678V81.5596C340.678 82.9821 340.9 83.9902 341.346 84.584C341.791 85.1654 342.57 85.4561 343.684 85.4561C344.797 85.4561 345.836 85.153 346.801 84.5469V88.8145C345.725 89.1855 344.191 89.3711 342.199 89.3711C340.22 89.3711 338.699 88.8145 337.635 87.7012C336.571 86.5755 336.039 84.9798 336.039 82.9141V72.8574ZM358.419 87.0146C357.998 87.7074 357.262 88.2764 356.211 88.7217C355.172 89.1546 354.083 89.3711 352.945 89.3711C350.805 89.3711 349.123 88.8392 347.899 87.7754C346.674 86.6992 346.062 85.1777 346.062 83.2109C346.062 80.9102 346.921 79.1104 348.641 77.8115C350.373 76.5127 352.828 75.8633 356.007 75.8633C356.551 75.8633 357.194 75.9561 357.937 76.1416C357.937 73.8037 356.458 72.6348 353.502 72.6348C351.758 72.6348 350.298 72.9255 349.123 73.5068L348.121 69.9072C349.717 69.1403 351.616 68.7568 353.818 68.7568C356.848 68.7568 359.068 69.4495 360.479 70.835C361.889 72.208 362.594 74.818 362.594 78.665V82.9141C362.594 85.5612 363.126 87.2249 364.19 87.9053C363.806 88.5732 363.379 88.9814 362.909 89.1299C362.439 89.2907 361.901 89.3711 361.295 89.3711C360.627 89.3711 360.027 89.1237 359.495 88.6289C358.963 88.1341 358.605 87.596 358.419 87.0146ZM357.974 79.6484C357.182 79.4876 356.588 79.4072 356.193 79.4072C352.531 79.4072 350.7 80.6071 350.7 83.0068C350.7 84.7881 351.733 85.6787 353.799 85.6787C356.582 85.6787 357.974 84.2871 357.974 81.5039V79.6484ZM388.595 70.7051L386.61 74.1748C385.521 73.1481 384.061 72.6348 382.231 72.6348C380.474 72.6348 379.083 73.2223 378.056 74.3975C377.042 75.5602 376.534 77.1745 376.534 79.2402C376.534 83.4089 378.52 85.4932 382.49 85.4932C384.21 85.4932 385.725 84.9242 387.036 83.7861L388.743 87.4414C387.395 88.2826 386.214 88.8145 385.199 89.0371C384.197 89.2598 383.01 89.3711 381.637 89.3711C378.569 89.3711 376.145 88.4805 374.363 86.6992C372.595 84.9056 371.71 82.4193 371.71 79.2402C371.71 76.1107 372.681 73.5811 374.623 71.6514C376.565 69.7217 379.212 68.7568 382.565 68.7568C384.878 68.7568 386.888 69.4062 388.595 70.7051ZM388.115 79.0176C388.115 75.987 388.988 73.5192 390.732 71.6143C392.488 69.7093 394.801 68.7568 397.671 68.7568C400.689 68.7568 403.033 69.6722 404.703 71.5029C406.373 73.3337 407.208 75.8385 407.208 79.0176C407.208 82.1842 406.355 84.7015 404.648 86.5693C402.953 88.4372 400.628 89.3711 397.671 89.3711C394.653 89.3711 392.303 88.431 390.62 86.5508C388.95 84.6582 388.115 82.1471 388.115 79.0176ZM392.94 79.0176C392.94 83.3965 394.517 85.5859 397.671 85.5859C399.118 85.5859 400.263 85.0169 401.104 83.8789C401.957 82.7409 402.384 81.1204 402.384 79.0176C402.384 74.7005 400.813 72.542 397.671 72.542C396.224 72.542 395.073 73.111 394.22 74.249C393.366 75.387 392.94 76.9766 392.94 79.0176ZM430.906 89V76.5498C430.906 73.9398 429.737 72.6348 427.399 72.6348C426.706 72.6348 426.038 72.8389 425.395 73.2471C424.752 73.6553 424.3 74.1253 424.04 74.6572V89H419.402V75.8262C419.402 74.849 419.099 74.0758 418.492 73.5068C417.886 72.9255 417.033 72.6348 415.932 72.6348C415.351 72.6348 414.713 72.8512 414.021 73.2842C413.34 73.7171 412.846 74.1934 412.536 74.7129V89H407.898V69.1279H411.089L412.035 70.8721C413.322 69.4619 414.986 68.7568 417.027 68.7568C419.661 68.7568 421.647 69.4743 422.983 70.9092C423.564 70.2536 424.374 69.734 425.413 69.3506C426.452 68.9548 427.491 68.7568 428.531 68.7568C430.745 68.7568 432.464 69.3939 433.689 70.668C434.926 71.9297 435.544 73.6676 435.544 75.8818V89H430.906ZM444.642 79.0176C444.642 75.987 445.514 73.5192 447.258 71.6143C449.015 69.7093 451.328 68.7568 454.198 68.7568C457.216 68.7568 459.56 69.6722 461.23 71.5029C462.9 73.3337 463.735 75.8385 463.735 79.0176C463.735 82.1842 462.881 84.7015 461.174 86.5693C459.48 88.4372 457.154 89.3711 454.198 89.3711C451.179 89.3711 448.829 88.431 447.147 86.5508C445.477 84.6582 444.642 82.1471 444.642 79.0176ZM449.466 79.0176C449.466 83.3965 451.043 85.5859 454.198 85.5859C455.645 85.5859 456.789 85.0169 457.63 83.8789C458.484 82.7409 458.911 81.1204 458.911 79.0176C458.911 74.7005 457.34 72.542 454.198 72.542C452.75 72.542 451.6 73.111 450.746 74.249C449.893 75.387 449.466 76.9766 449.466 79.0176ZM463.2 87.7197L464.851 84.0273C466.236 85.1283 467.801 85.6787 469.545 85.6787C471.351 85.6787 472.254 85.0355 472.254 83.749C472.254 82.9945 471.982 82.376 471.438 81.8936C470.894 81.4111 469.836 80.8421 468.265 80.1865C464.839 78.764 463.125 76.7725 463.125 74.2119C463.125 72.4925 463.781 71.1566 465.092 70.2041C466.403 69.2393 468.079 68.7568 470.121 68.7568C472.186 68.7568 474.128 69.2207 475.947 70.1484L474.611 73.748C473.596 72.8822 472.186 72.4492 470.38 72.4492C468.76 72.4492 467.95 73.0924 467.95 74.3789C467.95 74.8861 468.216 75.3438 468.747 75.752C469.279 76.1602 470.417 76.7106 472.162 77.4033C473.906 78.0837 475.161 78.9124 475.928 79.8896C476.695 80.8669 477.079 82.0482 477.079 83.4336C477.079 85.2767 476.392 86.7301 475.019 87.7939C473.658 88.8454 471.803 89.3711 469.453 89.3711C468.129 89.3711 467.065 89.2598 466.261 89.0371C465.469 88.8268 464.449 88.3877 463.2 87.7197ZM509.184 89V76.5498C509.184 73.9398 508.015 72.6348 505.677 72.6348C504.985 72.6348 504.317 72.8389 503.673 73.2471C503.03 73.6553 502.579 74.1253 502.319 74.6572V89H497.68V75.8262C497.68 74.849 497.377 74.0758 496.771 73.5068C496.165 72.9255 495.311 72.6348 494.21 72.6348C493.629 72.6348 492.992 72.8512 492.299 73.2842C491.619 73.7171 491.124 74.1934 490.815 74.7129V89H486.176V69.1279H489.368L490.314 70.8721C491.6 69.4619 493.264 68.7568 495.305 68.7568C497.94 68.7568 499.925 69.4743 501.261 70.9092C501.843 70.2536 502.653 69.734 503.692 69.3506C504.731 68.9548 505.77 68.7568 506.809 68.7568C509.023 68.7568 510.743 69.3939 511.967 70.668C513.204 71.9297 513.823 73.6676 513.823 75.8818V89H509.184ZM533.531 80.4834H519.336C519.423 82.0667 519.967 83.2975 520.969 84.1758C521.971 85.054 523.32 85.4932 525.014 85.4932C527.129 85.4932 528.737 84.9427 529.838 83.8418L531.638 87.3857C530.005 88.7093 527.569 89.3711 524.328 89.3711C521.297 89.3711 518.897 88.4867 517.128 86.7178C515.372 84.9365 514.494 82.4564 514.494 79.2773C514.494 76.1478 515.459 73.612 517.388 71.6699C519.33 69.7279 521.656 68.7568 524.365 68.7568C527.247 68.7568 529.56 69.6165 531.304 71.3359C533.048 73.0553 533.92 75.2448 533.92 77.9043C533.92 78.4733 533.791 79.333 533.531 80.4834ZM519.503 76.9951H529.263C528.942 74.0882 527.334 72.6348 524.439 72.6348C521.792 72.6348 520.147 74.0882 519.503 76.9951ZM535.408 61.7246L540.046 60.6113V82.9512C540.046 85.4004 540.776 86.86 542.236 87.3301C541.518 88.6908 540.294 89.3711 538.562 89.3711C536.459 89.3711 535.408 87.9115 535.408 84.9922V61.7246ZM555.635 89V76.7539C555.635 75.5293 555.252 74.5459 554.485 73.8037C553.718 73.0615 552.716 72.6904 551.479 72.6904C550.712 72.6904 549.939 72.9007 549.16 73.3213C548.38 73.7295 547.824 74.1995 547.49 74.7314V89H542.777V61.7246L547.49 60.6113V70.3896C548.69 69.3011 550.341 68.7568 552.444 68.7568C554.93 68.7568 556.86 69.4495 558.233 70.835C559.606 72.208 560.293 74.181 560.293 76.7539V89H555.635ZM560.964 79.0176C560.964 75.987 561.836 73.5192 563.58 71.6143C565.336 69.7093 567.649 68.7568 570.519 68.7568C573.537 68.7568 575.881 69.6722 577.551 71.5029C579.221 73.3337 580.056 75.8385 580.056 79.0176C580.056 82.1842 579.203 84.7015 577.496 86.5693C575.801 88.4372 573.476 89.3711 570.519 89.3711C567.501 89.3711 565.151 88.431 563.468 86.5508C561.798 84.6582 560.964 82.1471 560.964 79.0176ZM565.788 79.0176C565.788 83.3965 567.365 85.5859 570.519 85.5859C571.966 85.5859 573.111 85.0169 573.952 83.8789C574.805 82.7409 575.232 81.1204 575.232 79.0176C575.232 74.7005 573.661 72.542 570.519 72.542C569.072 72.542 567.922 73.111 567.068 74.249C566.214 75.387 565.788 76.9766 565.788 79.0176ZM592.231 73.4512C591.402 72.9069 590.493 72.6348 589.504 72.6348C588.427 72.6348 587.469 73.1234 586.628 74.1006C585.799 75.0778 585.384 76.2715 585.384 77.6816V89H580.746V69.1279H585.384V70.9463C586.683 69.4867 588.409 68.7568 590.561 68.7568C592.144 68.7568 593.357 68.998 594.198 69.4805L592.231 73.4512ZM611.698 80.4834H597.504C597.59 82.0667 598.135 83.2975 599.136 84.1758C600.138 85.054 601.487 85.4932 603.181 85.4932C605.297 85.4932 606.905 84.9427 608.006 83.8418L609.805 87.3857C608.173 88.7093 605.736 89.3711 602.495 89.3711C599.464 89.3711 597.065 88.4867 595.296 86.7178C593.539 84.9365 592.661 82.4564 592.661 79.2773C592.661 76.1478 593.626 73.612 595.555 71.6699C597.497 69.7279 599.823 68.7568 602.532 68.7568C605.414 68.7568 607.727 69.6165 609.471 71.3359C611.216 73.0553 612.088 75.2448 612.088 77.9043C612.088 78.4733 611.958 79.333 611.698 80.4834ZM597.671 76.9951H607.43C607.109 74.0882 605.501 72.6348 602.606 72.6348C599.959 72.6348 598.314 74.0882 597.671 76.9951ZM611.552 87.7197L613.204 84.0273C614.589 85.1283 616.154 85.6787 617.898 85.6787C619.704 85.6787 620.607 85.0355 620.607 83.749C620.607 82.9945 620.335 82.376 619.791 81.8936C619.247 81.4111 618.189 80.8421 616.618 80.1865C613.191 78.764 611.478 76.7725 611.478 74.2119C611.478 72.4925 612.134 71.1566 613.445 70.2041C614.756 69.2393 616.432 68.7568 618.473 68.7568C620.539 68.7568 622.481 69.2207 624.3 70.1484L622.964 73.748C621.949 72.8822 620.539 72.4492 618.733 72.4492C617.113 72.4492 616.302 73.0924 616.302 74.3789C616.302 74.8861 616.568 75.3438 617.1 75.752C617.632 76.1602 618.77 76.7106 620.514 77.4033C622.259 78.0837 623.514 78.9124 624.281 79.8896C625.048 80.8669 625.431 82.0482 625.431 83.4336C625.431 85.2767 624.745 86.7301 623.372 87.7939C622.011 88.8454 620.156 89.3711 617.805 89.3711C616.482 89.3711 615.418 89.2598 614.614 89.0371C613.822 88.8268 612.802 88.3877 611.552 87.7197ZM657.537 89V76.5498C657.537 73.9398 656.368 72.6348 654.03 72.6348C653.337 72.6348 652.669 72.8389 652.026 73.2471C651.383 73.6553 650.932 74.1253 650.672 74.6572V89H646.033V75.8262C646.033 74.849 645.73 74.0758 645.124 73.5068C644.518 72.9255 643.664 72.6348 642.563 72.6348C641.982 72.6348 641.345 72.8512 640.652 73.2842C639.972 73.7171 639.477 74.1934 639.168 74.7129V89H634.529V69.1279H637.721L638.667 70.8721C639.953 69.4619 641.617 68.7568 643.658 68.7568C646.293 68.7568 648.278 69.4743 649.614 70.9092C650.196 70.2536 651.006 69.734 652.045 69.3506C653.084 68.9548 654.123 68.7568 655.162 68.7568C657.376 68.7568 659.096 69.3939 660.32 70.668C661.557 71.9297 662.176 73.6676 662.176 75.8818V89H657.537ZM681.884 80.4834H667.689C667.776 82.0667 668.32 83.2975 669.322 84.1758C670.324 85.054 671.672 85.4932 673.367 85.4932C675.482 85.4932 677.09 84.9427 678.191 83.8418L679.991 87.3857C678.358 88.7093 675.921 89.3711 672.681 89.3711C669.65 89.3711 667.25 88.4867 665.481 86.7178C663.725 84.9365 662.847 82.4564 662.847 79.2773C662.847 76.1478 663.811 73.612 665.741 71.6699C667.683 69.7279 670.009 68.7568 672.718 68.7568C675.6 68.7568 677.913 69.6165 679.657 71.3359C681.401 73.0553 682.273 75.2448 682.273 77.9043C682.273 78.4733 682.143 79.333 681.884 80.4834ZM667.856 76.9951H677.616C677.294 74.0882 675.686 72.6348 672.792 72.6348C670.145 72.6348 668.5 74.0882 667.856 76.9951ZM678.284 61.0195L674.091 66.4561H670.565L673.701 61.0195H678.284ZM695.747 89V87.7939C695.363 88.2145 694.714 88.5856 693.799 88.9072C692.883 89.2165 691.937 89.3711 690.96 89.3711C688.189 89.3711 686.006 88.4928 684.41 86.7363C682.827 84.9798 682.035 82.5306 682.035 79.3887C682.035 76.2467 682.944 73.6924 684.763 71.7256C686.593 69.7464 688.882 68.7568 691.628 68.7568C693.137 68.7568 694.51 69.0661 695.747 69.6846V61.7246L700.386 60.6113V89H695.747ZM695.747 73.8779C694.757 73.0863 693.724 72.6904 692.648 72.6904C690.793 72.6904 689.364 73.2594 688.362 74.3975C687.36 75.5231 686.859 77.1436 686.859 79.2588C686.859 83.3903 688.851 85.4561 692.834 85.4561C693.279 85.4561 693.823 85.3262 694.467 85.0664C695.122 84.7943 695.549 84.5221 695.747 84.25V73.8779ZM705.64 61.4277C706.382 61.4277 707.013 61.6937 707.532 62.2256C708.064 62.7451 708.33 63.376 708.33 64.1182C708.33 64.8604 708.064 65.4974 707.532 66.0293C707.013 66.5488 706.382 66.8086 705.64 66.8086C704.897 66.8086 704.26 66.5488 703.729 66.0293C703.209 65.4974 702.949 64.8604 702.949 64.1182C702.949 63.376 703.209 62.7451 703.729 62.2256C704.26 61.6937 704.897 61.4277 705.64 61.4277ZM703.246 89V72.9316H700.704V69.1279H707.94V89H703.246ZM725.904 70.7051L723.919 74.1748C722.83 73.1481 721.371 72.6348 719.54 72.6348C717.784 72.6348 716.392 73.2223 715.365 74.3975C714.351 75.5602 713.844 77.1745 713.844 79.2402C713.844 83.4089 715.829 85.4932 719.8 85.4932C721.519 85.4932 723.035 84.9242 724.346 83.7861L726.053 87.4414C724.704 88.2826 723.523 88.8145 722.509 89.0371C721.507 89.2598 720.319 89.3711 718.946 89.3711C715.879 89.3711 713.454 88.4805 711.673 86.6992C709.904 84.9056 709.02 82.4193 709.02 79.2402C709.02 76.1107 709.991 73.5811 711.933 71.6514C713.875 69.7217 716.522 68.7568 719.874 68.7568C722.187 68.7568 724.197 69.4062 725.904 70.7051ZM725.425 79.0176C725.425 75.987 726.297 73.5192 728.041 71.6143C729.798 69.7093 732.111 68.7568 734.98 68.7568C737.999 68.7568 740.343 69.6722 742.013 71.5029C743.683 73.3337 744.518 75.8385 744.518 79.0176C744.518 82.1842 743.664 84.7015 741.957 86.5693C740.262 88.4372 737.937 89.3711 734.98 89.3711C731.962 89.3711 729.612 88.431 727.93 86.5508C726.26 84.6582 725.425 82.1471 725.425 79.0176ZM730.249 79.0176C730.249 83.3965 731.826 85.5859 734.98 85.5859C736.428 85.5859 737.572 85.0169 738.413 83.8789C739.267 82.7409 739.693 81.1204 739.693 79.0176C739.693 74.7005 738.122 72.542 734.98 72.542C733.533 72.542 732.383 73.111 731.529 74.249C730.676 75.387 730.249 76.9766 730.249 79.0176ZM743.983 87.7197L745.634 84.0273C747.019 85.1283 748.584 85.6787 750.328 85.6787C752.134 85.6787 753.037 85.0355 753.037 83.749C753.037 82.9945 752.765 82.376 752.221 81.8936C751.677 81.4111 750.619 80.8421 749.048 80.1865C745.622 78.764 743.908 76.7725 743.908 74.2119C743.908 72.4925 744.564 71.1566 745.875 70.2041C747.186 69.2393 748.862 68.7568 750.903 68.7568C752.969 68.7568 754.911 69.2207 756.73 70.1484L755.394 73.748C754.379 72.8822 752.969 72.4492 751.163 72.4492C749.543 72.4492 748.733 73.0924 748.733 74.3789C748.733 74.8861 748.998 75.3438 749.53 75.752C750.062 76.1602 751.2 76.7106 752.944 77.4033C754.689 78.0837 755.944 78.9124 756.711 79.8896C757.478 80.8669 757.861 82.0482 757.861 83.4336C757.861 85.2767 757.175 86.7301 755.802 87.7939C754.441 88.8454 752.586 89.3711 750.235 89.3711C748.912 89.3711 747.848 89.2598 747.044 89.0371C746.252 88.8268 745.232 88.3877 743.983 87.7197ZM778.018 87.0146C777.597 87.7074 776.861 88.2764 775.81 88.7217C774.771 89.1546 773.682 89.3711 772.544 89.3711C770.404 89.3711 768.722 88.8392 767.497 87.7754C766.273 86.6992 765.66 85.1777 765.66 83.2109C765.66 80.9102 766.52 79.1104 768.239 77.8115C769.971 76.5127 772.427 75.8633 775.606 75.8633C776.15 75.8633 776.793 75.9561 777.535 76.1416C777.535 73.8037 776.057 72.6348 773.101 72.6348C771.357 72.6348 769.897 72.9255 768.722 73.5068L767.72 69.9072C769.316 69.1403 771.214 68.7568 773.416 68.7568C776.447 68.7568 778.667 69.4495 780.077 70.835C781.487 72.208 782.193 74.818 782.193 78.665V82.9141C782.193 85.5612 782.724 87.2249 783.788 87.9053C783.405 88.5732 782.978 88.9814 782.508 89.1299C782.038 89.2907 781.5 89.3711 780.894 89.3711C780.226 89.3711 779.626 89.1237 779.094 88.6289C778.562 88.1341 778.203 87.596 778.018 87.0146ZM777.572 79.6484C776.781 79.4876 776.187 79.4072 775.791 79.4072C772.13 79.4072 770.299 80.6071 770.299 83.0068C770.299 84.7881 771.332 85.6787 773.398 85.6787C776.181 85.6787 777.572 84.2871 777.572 81.5039V79.6484ZM805.392 89V87.7939C805.008 88.2145 804.359 88.5856 803.444 88.9072C802.528 89.2165 801.582 89.3711 800.605 89.3711C797.834 89.3711 795.651 88.4928 794.055 86.7363C792.472 84.9798 791.68 82.5306 791.68 79.3887C791.68 76.2467 792.589 73.6924 794.407 71.7256C796.238 69.7464 798.527 68.7568 801.273 68.7568C802.782 68.7568 804.155 69.0661 805.392 69.6846V61.7246L810.031 60.6113V89H805.392ZM805.392 73.8779C804.402 73.0863 803.369 72.6904 802.293 72.6904C800.438 72.6904 799.009 73.2594 798.007 74.3975C797.005 75.5231 796.504 77.1436 796.504 79.2588C796.504 83.3903 798.496 85.4561 802.479 85.4561C802.924 85.4561 803.468 85.3262 804.112 85.0664C804.767 84.7943 805.194 84.5221 805.392 84.25V73.8779ZM815.284 61.4277C816.027 61.4277 816.657 61.6937 817.177 62.2256C817.709 62.7451 817.975 63.376 817.975 64.1182C817.975 64.8604 817.709 65.4974 817.177 66.0293C816.657 66.5488 816.027 66.8086 815.284 66.8086C814.542 66.8086 813.905 66.5488 813.373 66.0293C812.854 65.4974 812.594 64.8604 812.594 64.1182C812.594 63.376 812.854 62.7451 813.373 62.2256C813.905 61.6937 814.542 61.4277 815.284 61.4277ZM812.891 89V72.9316H810.349V69.1279H817.585V89H812.891ZM818.739 87.7197L820.39 84.0273C821.775 85.1283 823.34 85.6787 825.084 85.6787C826.89 85.6787 827.793 85.0355 827.793 83.749C827.793 82.9945 827.521 82.376 826.977 81.8936C826.433 81.4111 825.375 80.8421 823.804 80.1865C820.378 78.764 818.664 76.7725 818.664 74.2119C818.664 72.4925 819.32 71.1566 820.631 70.2041C821.942 69.2393 823.619 68.7568 825.66 68.7568C827.725 68.7568 829.667 69.2207 831.486 70.1484L830.15 73.748C829.135 72.8822 827.725 72.4492 825.919 72.4492C824.299 72.4492 823.489 73.0924 823.489 74.3789C823.489 74.8861 823.755 75.3438 824.286 75.752C824.818 76.1602 825.956 76.7106 827.701 77.4033C829.445 78.0837 830.7 78.9124 831.467 79.8896C832.234 80.8669 832.618 82.0482 832.618 83.4336C832.618 85.2767 831.931 86.7301 830.558 87.7939C829.197 88.8454 827.342 89.3711 824.992 89.3711C823.668 89.3711 822.604 89.2598 821.8 89.0371C821.009 88.8268 819.988 88.3877 818.739 87.7197ZM837.556 88.499V96.793H832.917V69.1279H837.556V70.4639C838.719 69.3258 840.148 68.7568 841.842 68.7568C848.175 68.7568 851.342 72.2451 851.342 79.2217C851.342 82.4749 850.464 84.9798 848.707 86.7363C846.963 88.4928 844.576 89.3711 841.545 89.3711C840.086 89.3711 838.756 89.0804 837.556 88.499ZM837.556 73.9893V84.4355C838.397 85.1159 839.381 85.4561 840.506 85.4561C842.646 85.4561 844.18 84.9489 845.108 83.9346C846.048 82.9079 846.518 81.2936 846.518 79.0918C846.518 76.7415 846.054 75.0902 845.126 74.1377C844.199 73.1729 842.665 72.6904 840.525 72.6904C839.411 72.6904 838.422 73.1234 837.556 73.9893ZM851.104 79.0176C851.104 75.987 851.976 73.5192 853.72 71.6143C855.477 69.7093 857.79 68.7568 860.66 68.7568C863.678 68.7568 866.022 69.6722 867.692 71.5029C869.362 73.3337 870.197 75.8385 870.197 79.0176C870.197 82.1842 869.343 84.7015 867.636 86.5693C865.941 88.4372 863.616 89.3711 860.66 89.3711C857.641 89.3711 855.291 88.431 853.609 86.5508C851.939 84.6582 851.104 82.1471 851.104 79.0176ZM855.928 79.0176C855.928 83.3965 857.505 85.5859 860.66 85.5859C862.107 85.5859 863.251 85.0169 864.092 83.8789C864.946 82.7409 865.372 81.1204 865.372 79.0176C865.372 74.7005 863.801 72.542 860.66 72.542C859.212 72.542 858.062 73.111 857.208 74.249C856.355 75.387 855.928 76.9766 855.928 79.0176ZM869.662 87.7197L871.313 84.0273C872.698 85.1283 874.263 85.6787 876.007 85.6787C877.813 85.6787 878.716 85.0355 878.716 83.749C878.716 82.9945 878.444 82.376 877.9 81.8936C877.356 81.4111 876.298 80.8421 874.727 80.1865C871.301 78.764 869.587 76.7725 869.587 74.2119C869.587 72.4925 870.243 71.1566 871.554 70.2041C872.865 69.2393 874.542 68.7568 876.583 68.7568C878.648 68.7568 880.59 69.2207 882.409 70.1484L881.073 73.748C880.058 72.8822 878.648 72.4492 876.842 72.4492C875.222 72.4492 874.412 73.0924 874.412 74.3789C874.412 74.8861 874.678 75.3438 875.209 75.752C875.741 76.1602 876.879 76.7106 878.624 77.4033C880.368 78.0837 881.623 78.9124 882.39 79.8896C883.157 80.8669 883.541 82.0482 883.541 83.4336C883.541 85.2767 882.854 86.7301 881.481 87.7939C880.12 88.8454 878.265 89.3711 875.915 89.3711C874.591 89.3711 873.527 89.2598 872.723 89.0371C871.931 88.8268 870.911 88.3877 869.662 87.7197ZM887.848 61.4277C888.59 61.4277 889.221 61.6937 889.741 62.2256C890.273 62.7451 890.539 63.376 890.539 64.1182C890.539 64.8604 890.273 65.4974 889.741 66.0293C889.221 66.5488 888.59 66.8086 887.848 66.8086C887.106 66.8086 886.469 66.5488 885.937 66.0293C885.417 65.4974 885.158 64.8604 885.158 64.1182C885.158 63.376 885.417 62.7451 885.937 62.2256C886.469 61.6937 887.106 61.4277 887.848 61.4277ZM885.455 89V72.9316H882.913V69.1279H890.149V89H885.455ZM908.113 70.7051L906.127 74.1748C905.039 73.1481 903.579 72.6348 901.749 72.6348C899.992 72.6348 898.6 73.2223 897.574 74.3975C896.559 75.5602 896.052 77.1745 896.052 79.2402C896.052 83.4089 898.038 85.4932 902.008 85.4932C903.728 85.4932 905.243 84.9242 906.554 83.7861L908.261 87.4414C906.913 88.2826 905.732 88.8145 904.717 89.0371C903.715 89.2598 902.528 89.3711 901.155 89.3711C898.087 89.3711 895.663 88.4805 893.881 86.6992C892.112 84.9056 891.228 82.4193 891.228 79.2402C891.228 76.1107 892.199 73.5811 894.141 71.6514C896.083 69.7217 898.73 68.7568 902.083 68.7568C904.396 68.7568 906.406 69.4062 908.113 70.7051ZM896.609 96.8857L895.848 94.5293C896.269 94.6406 896.702 94.6963 897.147 94.6963C898.767 94.6963 899.578 94.1335 899.578 93.0078C899.578 92.5996 899.448 92.2038 899.188 91.8203C898.941 91.4368 898.625 91.1956 898.242 91.0967L899.819 89.4453C902.045 89.903 903.159 91.1833 903.159 93.2861C903.159 94.4736 902.72 95.4014 901.841 96.0693C900.963 96.7497 899.825 97.0898 898.427 97.0898C897.796 97.0898 897.19 97.0218 896.609 96.8857ZM919.991 87.0146C919.57 87.7074 918.834 88.2764 917.783 88.7217C916.744 89.1546 915.655 89.3711 914.517 89.3711C912.377 89.3711 910.695 88.8392 909.47 87.7754C908.246 86.6992 907.633 85.1777 907.633 83.2109C907.633 80.9102 908.493 79.1104 910.213 77.8115C911.944 76.5127 914.4 75.8633 917.579 75.8633C918.123 75.8633 918.766 75.9561 919.508 76.1416C919.508 73.8037 918.03 72.6348 915.074 72.6348C913.33 72.6348 911.87 72.9255 910.695 73.5068L909.693 69.9072C911.289 69.1403 913.187 68.7568 915.389 68.7568C918.42 68.7568 920.64 69.4495 922.05 70.835C923.461 72.208 924.166 74.818 924.166 78.665V82.9141C924.166 85.5612 924.698 87.2249 925.761 87.9053C925.378 88.5732 924.951 88.9814 924.481 89.1299C924.011 89.2907 923.473 89.3711 922.867 89.3711C922.199 89.3711 921.599 89.1237 921.067 88.6289C920.535 88.1341 920.176 87.596 919.991 87.0146ZM919.546 79.6484C918.754 79.4876 918.16 79.4072 917.764 79.4072C914.103 79.4072 912.272 80.6071 912.272 83.0068C912.272 84.7881 913.305 85.6787 915.371 85.6787C918.154 85.6787 919.546 84.2871 919.546 81.5039V79.6484ZM912.105 67.0127H909.415C909.65 65.6025 910.12 64.4583 910.825 63.5801C911.542 62.6895 912.427 62.2441 913.478 62.2441C914.443 62.2441 915.408 62.4854 916.373 62.9678C917.338 63.4378 917.956 63.6729 918.228 63.6729C918.983 63.6729 919.521 63.1966 919.842 62.2441H922.589C922.118 64.0872 921.543 65.3428 920.863 66.0107C920.183 66.6787 919.329 67.0127 918.302 67.0127C917.535 67.0127 916.657 66.7777 915.668 66.3076C914.69 65.8252 914.053 65.584 913.756 65.584C913.113 65.584 912.563 66.0602 912.105 67.0127ZM924.855 79.0176C924.855 75.987 925.727 73.5192 927.471 71.6143C929.228 69.7093 931.541 68.7568 934.411 68.7568C937.429 68.7568 939.773 69.6722 941.443 71.5029C943.113 73.3337 943.948 75.8385 943.948 79.0176C943.948 82.1842 943.094 84.7015 941.387 86.5693C939.693 88.4372 937.367 89.3711 934.411 89.3711C931.393 89.3711 929.042 88.431 927.36 86.5508C925.69 84.6582 924.855 82.1471 924.855 79.0176ZM929.679 79.0176C929.679 83.3965 931.256 85.5859 934.411 85.5859C935.858 85.5859 937.002 85.0169 937.843 83.8789C938.697 82.7409 939.124 81.1204 939.124 79.0176C939.124 74.7005 937.553 72.542 934.411 72.542C932.964 72.542 931.813 73.111 930.96 74.249C930.106 75.387 929.679 76.9766 929.679 79.0176ZM950.037 81.9121H948.107C947.142 75.7272 946.66 71.404 946.66 68.9424V61.335H951.484V68.9238C951.484 71.3978 951.002 75.7272 950.037 81.9121ZM949.22 83.2852C950.061 83.2852 950.773 83.582 951.354 84.1758C951.948 84.7695 952.245 85.487 952.245 86.3281C952.245 87.1693 951.948 87.8867 951.354 88.4805C950.773 89.0742 950.061 89.3711 949.22 89.3711C948.379 89.3711 947.662 89.0742 947.068 88.4805C946.474 87.8867 946.177 87.1693 946.177 86.3281C946.177 85.487 946.474 84.7695 947.068 84.1758C947.662 83.582 948.379 83.2852 949.22 83.2852ZM960.95 81.9121H959.02C958.055 75.7272 957.573 71.404 957.573 68.9424V61.335H962.397V68.9238C962.397 71.3978 961.915 75.7272 960.95 81.9121ZM960.133 83.2852C960.975 83.2852 961.686 83.582 962.267 84.1758C962.861 84.7695 963.158 85.487 963.158 86.3281C963.158 87.1693 962.861 87.8867 962.267 88.4805C961.686 89.0742 960.975 89.3711 960.133 89.3711C959.292 89.3711 958.575 89.0742 957.981 88.4805C957.387 87.8867 957.09 87.1693 957.09 86.3281C957.09 85.487 957.387 84.7695 957.981 84.1758C958.575 83.582 959.292 83.2852 960.133 83.2852ZM971.863 81.9121H969.933C968.969 75.7272 968.486 71.404 968.486 68.9424V61.335H973.31V68.9238C973.31 71.3978 972.828 75.7272 971.863 81.9121ZM971.047 83.2852C971.888 83.2852 972.599 83.582 973.18 84.1758C973.774 84.7695 974.071 85.487 974.071 86.3281C974.071 87.1693 973.774 87.8867 973.18 88.4805C972.599 89.0742 971.888 89.3711 971.047 89.3711C970.205 89.3711 969.488 89.0742 968.894 88.4805C968.301 87.8867 968.004 87.1693 968.004 86.3281C968.004 85.487 968.301 84.7695 968.894 84.1758C969.488 83.582 970.205 83.2852 971.047 83.2852Z" fill="#1D3461"/>
</svg>
