<svg width="248" height="248" viewBox="0 0 248 248" fill="none" xmlns="http://www.w3.org/2000/svg">
<g filter="url(#filter0_di_25_233)">
<rect x="4" width="240" height="240" rx="20" fill="#F6F7F8"/>
</g>
<path fill-rule="evenodd" clip-rule="evenodd" d="M96.9021 46.9187C95.7595 46.9187 94.8333 47.7959 94.8333 48.878C94.8333 48.9392 94.8362 48.9998 94.842 49.0595C95.4866 48.9404 96.1526 48.878 96.8341 48.878C97.5625 48.878 98.2736 48.9494 98.9596 49.0851C98.967 49.017 98.971 48.948 98.971 48.878C98.971 47.7959 98.0448 46.9187 96.9021 46.9187ZM102.812 50.6791C103.005 50.1115 103.109 49.5063 103.109 48.878C103.109 45.6317 100.33 43 96.9021 43C93.4743 43 90.6955 45.6317 90.6955 48.878C90.6955 49.4791 90.7908 50.059 90.9678 50.6052C88.2625 52.373 86.4897 55.3297 86.4897 58.6782C86.4897 59.7043 86.6561 60.6936 86.9649 61.6233H85.672C84.7163 61.6233 83.6562 61.9891 82.7382 62.4453C81.7558 62.9333 80.6942 63.6452 79.7108 64.5756C77.7333 66.4466 76 69.2794 76 73.0079C76 77.5835 77.5982 80.9295 79.5779 83.1564C80.5576 84.2584 81.627 85.0821 82.6319 85.6425C82.8188 85.7467 83.0108 85.8458 83.2063 85.9379L78.3229 105.673L77.7275 108.079H80.3372H83.6032V123.074C83.6032 125.918 86.0512 128.236 89.0537 128.236C92.0562 128.236 94.5042 125.918 94.5042 123.074V108.081H99.1988V123.074C99.1988 125.918 101.647 128.236 104.649 128.236C107.652 128.236 110.1 125.918 110.1 123.074V108.079H113.547H116.156L115.561 105.673L113.694 98.127C114.041 98.7461 114.73 99.1678 115.522 99.1678C116.664 99.1678 117.591 98.2906 117.591 97.2084V95.9021C117.591 94.82 118.517 93.9428 119.659 93.9428C120.802 93.9428 121.728 94.82 121.728 95.9021V123.333C121.728 124.415 122.654 125.292 123.797 125.292C124.94 125.292 125.866 124.415 125.866 123.333V95.9021C125.866 92.9582 123.581 90.5198 120.599 90.0911C122.565 88.7631 123.336 86.2651 122.309 84.0991L113.574 65.6741C112.406 63.2104 109.82 61.6253 106.968 61.6253H106.702C107.012 60.695 107.178 59.7051 107.178 58.6782C107.178 55.376 105.454 52.4547 102.812 50.6791ZM96.8341 52.7967C93.407 52.7967 90.6274 55.4292 90.6274 58.6782C90.6274 59.7514 90.9306 60.7573 91.4603 61.6233H91.5199L92.1407 62.3446C93.2697 63.6563 94.9825 64.4885 96.9021 64.4885C98.821 64.4885 100.533 63.6569 101.662 62.3461L101.938 62.0256C102.633 61.0757 103.041 59.922 103.041 58.6782C103.041 55.4292 100.261 52.7967 96.8341 52.7967ZM85.672 65.542H89.4504C91.3274 67.3542 93.9419 68.4785 96.8341 68.4785C99.7251 68.4785 102.339 67.355 104.216 65.544H106.968C108.191 65.544 109.299 66.2233 109.799 67.2791L118.534 85.7042C118.768 86.1977 118.535 86.7775 118.014 86.9991C117.493 87.2207 116.881 87.0003 116.647 86.5067L109.918 72.3133L105.962 73.1158V83.8289V84.0554L106.017 84.276L110.937 104.161H108.031H105.962V106.12V123.074C105.962 123.754 105.367 124.318 104.649 124.318C103.932 124.318 103.336 123.754 103.336 123.074V106.122V104.163H101.268H92.4354H90.3665V106.122V123.074C90.3665 123.754 89.771 124.318 89.0537 124.318C88.3364 124.318 87.7408 123.754 87.7408 123.074V106.12V104.161H85.672H82.9469L87.6724 85.0639L88.2491 82.7328H88.2534V82.7156L88.2621 82.6803H88.2534V72.4283H84.1158V81.8745C83.6751 81.5604 83.203 81.1497 82.7432 80.6326C81.3969 79.1183 80.1377 76.6679 80.1377 73.0079C80.1377 70.5138 81.276 68.6338 82.6351 67.3479C83.32 66.7 84.0429 66.2221 84.6605 65.9153C85.2531 65.621 85.599 65.5563 85.6626 65.5443C85.6722 65.5426 85.6754 65.542 85.672 65.542ZM112.872 88.1118C113.562 89.5668 114.909 90.5473 116.433 90.8798C114.646 91.9118 113.453 93.7749 113.453 95.9021V97.1532L110.1 83.6024V82.2636L112.872 88.1118Z" fill="#1D3461"/>
<path fill-rule="evenodd" clip-rule="evenodd" d="M136.083 58.6781C136.083 55.4291 138.863 52.7966 142.29 52.7966C145.717 52.7966 148.497 55.4291 148.497 58.6781C148.497 61.9273 145.717 64.5597 142.29 64.5597C138.863 64.5597 136.083 61.9273 136.083 58.6781ZM142.29 48.8779C136.576 48.8779 131.946 53.2664 131.946 58.6781C131.946 59.7043 132.112 60.6935 132.421 61.6232H131.187C130.231 61.6232 129.171 61.989 128.253 62.4452C127.27 62.9332 126.209 63.6451 125.225 64.5756C123.248 66.4465 121.515 69.2793 121.515 73.0078C121.515 77.595 123.121 80.946 125.107 83.1728C126.09 84.2746 127.162 85.0971 128.169 85.6549C128.474 85.8236 128.792 85.9794 129.118 86.1128V123.074C129.118 125.918 131.566 128.236 134.568 128.236L134.576 128.236H134.6L134.608 128.236C137.611 128.236 140.059 125.918 140.059 123.074V102.203H144.713V123.074C144.713 125.918 147.161 128.236 150.164 128.236L150.171 128.236H150.196L150.204 128.236C153.206 128.236 155.654 125.918 155.654 123.074V86.3654L156.153 87.7191C156.854 89.6222 158.67 90.8558 160.666 90.9923C158.983 92.0439 157.873 93.8502 157.873 95.9021V97.2083C157.873 98.2905 158.8 99.1677 159.942 99.1677C161.085 99.1677 162.011 98.2905 162.011 97.2083V95.9021C162.011 94.8199 162.937 93.9427 164.08 93.9427C165.222 93.9427 166.149 94.8199 166.149 95.9021V123.333C166.149 124.415 167.075 125.292 168.218 125.292C169.36 125.292 170.286 124.415 170.286 123.333V95.9021C170.286 92.6752 167.541 90.0556 164.141 90.0242C165.896 88.7783 166.681 86.557 165.92 84.4916L159.19 66.2236C158.175 63.4699 155.432 61.6252 152.353 61.6252H152.159C152.468 60.6949 152.634 59.705 152.634 58.6781C152.634 53.2664 148.004 48.8779 142.29 48.8779ZM131.187 65.5419H134.906C136.784 67.3541 139.398 68.4784 142.29 68.4784C145.181 68.4784 147.795 67.3549 149.672 65.5439H152.353C153.673 65.5439 154.848 66.3345 155.283 67.5146L162.013 85.7827C162.201 86.2935 161.916 86.8521 161.377 87.0304C160.838 87.2087 160.248 86.9389 160.06 86.4281L155.539 74.1567L151.517 74.8021V123.074C151.517 123.753 150.921 124.318 150.204 124.318L150.196 124.317H150.171L150.164 124.318C149.446 124.318 148.851 123.753 148.851 123.074V100.244V98.2846H146.782H137.99H135.921V100.244V123.074C135.921 123.753 135.325 124.318 134.608 124.318L134.6 124.317H134.576L134.568 124.318C133.851 124.318 133.256 123.753 133.256 123.074V84.6167V82.6573H133.249V72.39H129.112V81.4696C128.833 81.2323 128.548 80.9578 128.268 80.6439C126.918 79.1303 125.652 76.6768 125.652 73.0078C125.652 70.5137 126.791 68.6337 128.15 67.3478C128.835 66.6999 129.557 66.222 130.175 65.9152C130.768 65.6209 131.114 65.5562 131.177 65.5443C131.187 65.5425 131.19 65.5419 131.187 65.5419Z" fill="#1D3461"/>
<path d="M91.1265 183.569L89.7959 186.121C89.4215 185.787 88.8438 185.457 88.0625 185.132C87.2812 184.798 86.6099 184.631 86.0483 184.631C84.2905 184.631 82.903 185.229 81.8857 186.426C80.8685 187.614 80.3599 189.209 80.3599 191.211C80.3599 193.115 80.8563 194.637 81.8491 195.776C82.8501 196.916 84.2091 197.485 85.9263 197.485C87.0575 197.485 87.9893 197.176 88.7217 196.558V193.042H86.2437V190.332H91.8955V198.34C91.1387 198.958 90.1621 199.443 88.9658 199.792C87.7777 200.134 86.5936 200.305 85.4136 200.305C82.8501 200.305 80.8156 199.467 79.3101 197.791C77.8127 196.106 77.064 193.884 77.064 191.125C77.064 188.367 77.8818 186.125 79.5176 184.399C81.1533 182.674 83.3547 181.812 86.1216 181.812C88.0828 181.812 89.7511 182.397 91.1265 183.569ZM106.202 194.397H96.8638C96.9207 195.439 97.2788 196.248 97.938 196.826C98.5972 197.404 99.4842 197.693 100.599 197.693C101.991 197.693 103.049 197.331 103.773 196.606L104.957 198.938C103.883 199.809 102.28 200.244 100.147 200.244C98.1536 200.244 96.5749 199.662 95.4111 198.499C94.2555 197.327 93.6777 195.695 93.6777 193.604C93.6777 191.545 94.3125 189.876 95.582 188.599C96.8597 187.321 98.3896 186.682 100.172 186.682C102.068 186.682 103.59 187.248 104.737 188.379C105.885 189.51 106.458 190.951 106.458 192.7C106.458 193.075 106.373 193.64 106.202 194.397ZM96.9736 192.102H103.395C103.183 190.19 102.125 189.233 100.221 189.233C98.4792 189.233 97.3968 190.19 96.9736 192.102ZM116.468 189.771C115.923 189.412 115.325 189.233 114.674 189.233C113.966 189.233 113.335 189.555 112.782 190.198C112.236 190.841 111.964 191.626 111.964 192.554V200H108.912V186.926H111.964V188.123C112.818 187.162 113.954 186.682 115.37 186.682C116.411 186.682 117.209 186.841 117.762 187.158L116.468 189.771ZM121.998 181.86C122.486 181.86 122.901 182.035 123.243 182.385C123.593 182.727 123.768 183.142 123.768 183.63C123.768 184.119 123.593 184.538 123.243 184.888C122.901 185.229 122.486 185.4 121.998 185.4C121.51 185.4 121.091 185.229 120.741 184.888C120.399 184.538 120.228 184.119 120.228 183.63C120.228 183.142 120.399 182.727 120.741 182.385C121.091 182.035 121.51 181.86 121.998 181.86ZM120.423 200V189.429H118.751V186.926H123.512V200H120.423ZM134.352 198.694C134.075 199.15 133.591 199.524 132.899 199.817C132.215 200.102 131.499 200.244 130.75 200.244C129.343 200.244 128.236 199.894 127.43 199.194C126.625 198.486 126.222 197.485 126.222 196.191C126.222 194.678 126.787 193.494 127.918 192.639C129.058 191.785 130.673 191.357 132.765 191.357C133.123 191.357 133.546 191.418 134.034 191.541C134.034 190.002 133.062 189.233 131.117 189.233C129.969 189.233 129.009 189.425 128.236 189.807L127.577 187.439C128.626 186.934 129.876 186.682 131.324 186.682C133.318 186.682 134.779 187.138 135.707 188.049C136.634 188.953 137.098 190.67 137.098 193.201V195.996C137.098 197.738 137.448 198.832 138.148 199.28C137.896 199.719 137.615 199.988 137.306 200.085C136.996 200.191 136.642 200.244 136.244 200.244C135.804 200.244 135.41 200.081 135.06 199.756C134.71 199.43 134.474 199.076 134.352 198.694ZM134.059 193.848C133.538 193.742 133.147 193.689 132.887 193.689C130.478 193.689 129.273 194.478 129.273 196.057C129.273 197.229 129.953 197.815 131.312 197.815C133.143 197.815 134.059 196.899 134.059 195.068V193.848ZM140.87 189.38H139.356V186.926H140.87V184.265L143.922 183.142V186.926H147.511V189.38H143.922V195.105C143.922 196.041 144.068 196.704 144.361 197.095C144.654 197.477 145.167 197.668 145.899 197.668C146.632 197.668 147.315 197.469 147.95 197.07V199.878C147.242 200.122 146.233 200.244 144.923 200.244C143.621 200.244 142.62 199.878 141.92 199.146C141.22 198.405 140.87 197.355 140.87 195.996V189.38ZM157.875 189.771C157.329 189.412 156.731 189.233 156.08 189.233C155.372 189.233 154.741 189.555 154.188 190.198C153.643 190.841 153.37 191.626 153.37 192.554V200H150.318V186.926H153.37V188.123C154.225 187.162 155.36 186.682 156.776 186.682C157.818 186.682 158.615 186.841 159.168 187.158L157.875 189.771ZM167.506 198.694C167.229 199.15 166.745 199.524 166.053 199.817C165.37 200.102 164.653 200.244 163.905 200.244C162.497 200.244 161.39 199.894 160.584 199.194C159.779 198.486 159.376 197.485 159.376 196.191C159.376 194.678 159.942 193.494 161.073 192.639C162.212 191.785 163.827 191.357 165.919 191.357C166.277 191.357 166.7 191.418 167.188 191.541C167.188 190.002 166.216 189.233 164.271 189.233C163.124 189.233 162.163 189.425 161.39 189.807L160.731 187.439C161.781 186.934 163.03 186.682 164.479 186.682C166.472 186.682 167.933 187.138 168.861 188.049C169.789 188.953 170.252 190.67 170.252 193.201V195.996C170.252 197.738 170.602 198.832 171.302 199.28C171.05 199.719 170.769 199.988 170.46 200.085C170.151 200.191 169.797 200.244 169.398 200.244C168.958 200.244 168.564 200.081 168.214 199.756C167.864 199.43 167.628 199.076 167.506 198.694ZM167.213 193.848C166.692 193.742 166.301 193.689 166.041 193.689C163.632 193.689 162.428 194.478 162.428 196.057C162.428 197.229 163.107 197.815 164.466 197.815C166.297 197.815 167.213 196.899 167.213 195.068V193.848Z" fill="#1D3461"/>
<defs>
<filter id="filter0_di_25_233" x="0" y="0" width="248" height="248" filterUnits="userSpaceOnUse" color-interpolation-filters="sRGB">
<feFlood flood-opacity="0" result="BackgroundImageFix"/>
<feColorMatrix in="SourceAlpha" type="matrix" values="0 0 0 0 0 0 0 0 0 0 0 0 0 0 0 0 0 0 127 0" result="hardAlpha"/>
<feOffset dy="4"/>
<feGaussianBlur stdDeviation="2"/>
<feComposite in2="hardAlpha" operator="out"/>
<feColorMatrix type="matrix" values="0 0 0 0 0 0 0 0 0 0 0 0 0 0 0 0 0 0 0.25 0"/>
<feBlend mode="normal" in2="BackgroundImageFix" result="effect1_dropShadow_25_233"/>
<feBlend mode="normal" in="SourceGraphic" in2="effect1_dropShadow_25_233" result="shape"/>
<feColorMatrix in="SourceAlpha" type="matrix" values="0 0 0 0 0 0 0 0 0 0 0 0 0 0 0 0 0 0 127 0" result="hardAlpha"/>
<feOffset dy="4"/>
<feGaussianBlur stdDeviation="2"/>
<feComposite in2="hardAlpha" operator="arithmetic" k2="-1" k3="1"/>
<feColorMatrix type="matrix" values="0 0 0 0 0 0 0 0 0 0 0 0 0 0 0 0 0 0 0.25 0"/>
<feBlend mode="normal" in2="shape" result="effect2_innerShadow_25_233"/>
</filter>
</defs>
</svg>
