<svg width="248" height="248" viewBox="0 0 248 248" fill="none" xmlns="http://www.w3.org/2000/svg">
<g filter="url(#filter0_di_25_234)">
<rect x="4" width="240" height="240" rx="20" fill="#F6F7F8"/>
</g>
<path fill-rule="evenodd" clip-rule="evenodd" d="M121.14 42.5408C121.058 41.316 121.252 40.0888 121.709 38.9348C122.167 37.7809 122.878 36.7245 123.799 35.8307C124.721 34.937 125.833 34.2248 127.067 33.738C128.302 33.2511 129.632 33 130.977 33C132.322 33 133.653 33.2511 134.887 33.738C136.121 34.2248 137.234 34.937 138.155 35.8307C139.076 36.7245 139.788 37.7809 140.245 38.9348C140.702 40.0888 140.896 41.316 140.814 42.5408C140.824 44.9409 139.793 47.2473 137.947 48.9569C136.101 50.6665 133.589 51.6409 130.959 51.6673C128.332 51.6409 125.824 50.6656 123.983 48.9549C122.143 47.2443 121.121 44.9379 121.14 42.5408ZM130.959 47C132.326 46.9737 133.594 46.4611 134.502 45.6202C135.416 44.7742 135.891 43.6703 135.887 42.5589L135.886 42.4021L135.896 42.2457C135.934 41.6819 135.845 41.114 135.632 40.5746C135.418 40.0348 135.08 39.5284 134.63 39.0912C134.178 38.6535 133.623 38.2948 132.993 38.0462C132.362 37.7975 131.676 37.6668 130.977 37.6668C130.279 37.6668 129.592 37.7975 128.961 38.0462C128.331 38.2948 127.776 38.6535 127.325 39.0912C126.874 39.5284 126.537 40.0347 126.322 40.5746C126.109 41.114 126.02 41.6819 126.058 42.2457L126.069 42.4111L126.068 42.5769C126.059 43.682 126.528 44.7811 127.435 45.6242C128.336 46.4622 129.598 46.9738 130.959 47Z" fill="#1D3461"/>
<path fill-rule="evenodd" clip-rule="evenodd" d="M127.453 51.526C124.509 49.8478 121.024 49.267 117.66 49.8996L117.636 49.9043L117.612 49.9092C114.79 50.496 112.775 52.4078 111.34 54.162C110.6 55.066 109.942 56.0199 109.363 56.8879C109.19 57.1474 109.026 57.3947 108.87 57.6311C108.489 58.2084 108.149 58.7229 107.81 59.1961L101.073 68.0374L101.055 68.0612L101.037 68.0853C100.209 69.2324 99.8598 70.6313 100.051 72.0066C100.243 73.3823 100.963 74.6487 102.084 75.5503L102.103 75.5655L114.267 85.1509L114.283 85.1633L114.299 85.1756C114.907 85.6391 115.604 85.98 116.347 86.1811C115.127 89.72 113.053 95.5208 110.977 101.277C109.271 106.006 107.574 110.678 106.421 113.853C105.563 116.215 105.006 117.749 104.969 117.862L104.01 120.87H107.328H118.192L118.549 127.86C118.566 129.307 119.169 130.699 120.244 131.736C121.336 132.789 122.827 133.39 124.391 133.39C125.956 133.39 127.447 132.789 128.539 131.736C129.612 130.7 130.215 129.311 130.233 127.866L130.614 121.065H140.238H142.702V118.732C142.702 118.387 142.558 116.23 142.378 113.541L142.378 113.539C142.295 112.304 142.205 110.957 142.118 109.623C141.977 107.452 141.839 105.257 141.743 103.491C141.643 101.649 141.6 100.451 141.617 100.138C141.621 100.068 141.657 99.847 142.183 99.3488C142.437 99.1075 142.734 98.8686 143.105 98.5746L143.18 98.5151C143.505 98.2575 143.912 97.9352 144.269 97.6006L144.288 97.5822L144.308 97.5633C145.865 96.0358 147.157 94.2781 148.134 92.3581L148.155 92.3173L148.174 92.2758C148.996 90.4863 149.475 88.5696 149.591 86.6177L149.595 86.5365L149.594 86.4548C149.538 82.6269 148.475 78.8733 146.503 75.5461L145.852 74.3141L145.849 74.3068C143.432 69.6505 141.199 66.5616 137.907 62.5934C135.208 58.4058 131.755 54.7137 127.707 51.6923L127.585 51.6016L127.453 51.526ZM115.235 57.0205C116.452 55.5327 117.556 54.7069 118.647 54.4721C120.746 54.0836 122.921 54.4301 124.784 55.4529C128.349 58.1375 131.393 61.4152 133.772 65.1344L133.85 65.2567L133.943 65.3689C137.146 69.2221 139.186 72.0467 141.43 76.3721L141.437 76.3866L142.122 77.6845L142.15 77.7372L142.181 77.7888C143.751 80.4206 144.607 83.396 144.666 86.4369C144.575 87.7958 144.24 89.1282 143.674 90.3733C142.93 91.8233 141.955 93.1487 140.784 94.3009C140.581 94.4885 140.325 94.6918 139.948 94.9911L139.941 94.9963C139.583 95.2798 139.128 95.6419 138.698 96.0489C137.856 96.8467 136.794 98.1088 136.696 99.8974C136.662 100.514 136.729 102.018 136.822 103.731C136.92 105.521 137.059 107.736 137.2 109.91C137.297 111.391 137.395 112.859 137.482 114.164L137.482 114.169L137.596 115.872L137.63 116.399H128.277H125.94L125.816 118.609L125.31 127.672L125.306 127.734V127.796C125.306 128.056 125.199 128.296 125.022 128.467C124.847 128.636 124.619 128.723 124.391 128.723C124.164 128.723 123.936 128.636 123.76 128.467C123.584 128.296 123.476 128.056 123.476 127.796V127.739L123.473 127.683L123 118.424L122.887 116.203H120.539H110.778L111.549 114.081C112.661 111.02 114.14 106.945 115.64 102.785C118.178 95.7504 120.842 88.2971 121.835 85.2361C121.841 85.2092 121.848 85.1819 121.856 85.1544C122.27 83.7035 122.842 81.1206 122.932 78.5901C122.877 75.4005 122.413 72.2294 121.55 69.1491C121.329 68.1854 121.111 67.2686 120.897 66.3695C120.604 65.1391 120.319 63.9414 120.046 62.7002L119.025 58.0593L115.764 61.6556L108.669 69.4804L107.027 71.2911L108.976 72.8048L118.305 80.0515C118.633 80.1852 118.863 80.4941 118.863 80.8542C118.863 81.2238 118.621 81.54 118.278 81.6674C118.237 81.6867 118.204 81.6972 118.177 81.704C118.141 81.7133 118.088 81.7227 118.008 81.7252C117.986 81.7266 117.964 81.7276 117.941 81.7276C117.663 81.7276 117.413 81.6107 117.244 81.4261L105.268 71.9881C105.092 71.8446 104.97 71.6356 104.936 71.3966C104.904 71.1614 104.962 70.9267 105.092 70.7377L111.826 61.9003L111.846 61.8742L111.865 61.8474C112.268 61.2873 112.689 60.6496 113.097 60.032C113.243 59.8112 113.387 59.5928 113.528 59.3819C114.088 58.5432 114.644 57.7427 115.235 57.0205ZM116.774 70.2983C117.06 71.3147 117.297 72.3426 117.484 73.3784L114.049 70.7101L116.29 68.239C116.446 68.8971 116.6 69.55 116.746 70.1902L116.758 70.2446L116.774 70.2983Z" fill="#1D3461"/>
<path d="M75.3057 188.906C75.3057 186.359 76.0015 184.206 77.3931 182.448C78.7928 180.682 80.6605 179.799 82.9961 179.799C85.5677 179.799 87.533 180.597 88.8921 182.192C90.2511 183.787 90.9307 186.025 90.9307 188.906C90.9307 191.787 90.2186 194.073 88.7944 195.766C87.3784 197.459 85.3643 198.305 82.752 198.305C80.3512 198.305 78.508 197.467 77.2222 195.791C75.9445 194.114 75.3057 191.819 75.3057 188.906ZM78.6016 188.906C78.6016 190.997 78.9556 192.617 79.6636 193.764C80.3716 194.912 81.401 195.485 82.752 195.485C84.3389 195.485 85.5474 194.924 86.3774 193.801C87.2157 192.678 87.6348 191.046 87.6348 188.906C87.6348 184.715 86.0885 182.619 82.9961 182.619C81.5801 182.619 80.4937 183.189 79.7368 184.328C78.98 185.459 78.6016 186.985 78.6016 188.906ZM95.7158 197.28L95.0322 198.244H93.311V180.056L96.3628 179.323V185.427C97.1766 184.93 98.0636 184.682 99.0239 184.682C100.936 184.682 102.479 185.288 103.65 186.501C104.822 187.705 105.408 189.252 105.408 191.14C105.408 193.329 104.818 195.062 103.638 196.34C102.458 197.609 100.859 198.244 98.8408 198.244C97.6283 198.244 96.5866 197.923 95.7158 197.28ZM96.3628 188.039V194.863C96.8104 195.392 97.4167 195.656 98.1816 195.656C99.6546 195.656 100.696 195.306 101.307 194.606C101.925 193.907 102.234 192.788 102.234 191.25C102.234 188.597 100.965 187.27 98.4258 187.27C97.5225 187.27 96.8348 187.526 96.3628 188.039ZM107.3 197.158L108.387 194.729C109.298 195.453 110.328 195.815 111.475 195.815C112.663 195.815 113.257 195.392 113.257 194.545C113.257 194.049 113.078 193.642 112.72 193.325C112.362 193.007 111.666 192.633 110.633 192.202C108.379 191.266 107.251 189.956 107.251 188.271C107.251 187.14 107.683 186.261 108.545 185.634C109.408 185 110.511 184.682 111.854 184.682C113.213 184.682 114.49 184.987 115.687 185.598L114.808 187.966C114.14 187.396 113.213 187.111 112.024 187.111C110.958 187.111 110.425 187.535 110.425 188.381C110.425 188.715 110.6 189.016 110.95 189.284C111.3 189.553 112.049 189.915 113.196 190.371C114.344 190.818 115.17 191.363 115.674 192.006C116.179 192.649 116.431 193.426 116.431 194.338C116.431 195.55 115.979 196.507 115.076 197.207C114.181 197.898 112.96 198.244 111.414 198.244C110.543 198.244 109.843 198.171 109.314 198.024C108.794 197.886 108.122 197.597 107.3 197.158ZM119.336 187.38H117.823V184.926H119.336V182.265L122.388 181.142V184.926H125.977V187.38H122.388V193.105C122.388 194.041 122.535 194.704 122.828 195.095C123.121 195.477 123.633 195.668 124.366 195.668C125.098 195.668 125.782 195.469 126.417 195.07V197.878C125.708 198.122 124.699 198.244 123.389 198.244C122.087 198.244 121.086 197.878 120.386 197.146C119.686 196.405 119.336 195.355 119.336 193.996V187.38ZM140.455 192.397H131.116C131.173 193.439 131.531 194.248 132.19 194.826C132.85 195.404 133.737 195.693 134.852 195.693C136.243 195.693 137.301 195.331 138.025 194.606L139.209 196.938C138.135 197.809 136.532 198.244 134.4 198.244C132.406 198.244 130.827 197.662 129.664 196.499C128.508 195.327 127.93 193.695 127.93 191.604C127.93 189.545 128.565 187.876 129.834 186.599C131.112 185.321 132.642 184.682 134.424 184.682C136.32 184.682 137.842 185.248 138.99 186.379C140.137 187.51 140.711 188.951 140.711 190.7C140.711 191.075 140.625 191.64 140.455 192.397ZM131.226 190.102H137.647C137.435 188.19 136.377 187.233 134.473 187.233C132.732 187.233 131.649 188.19 131.226 190.102ZM143.628 187.38H142.115V184.926H143.628V182.265L146.68 181.142V184.926H150.269V187.38H146.68V193.105C146.68 194.041 146.827 194.704 147.12 195.095C147.413 195.477 147.925 195.668 148.658 195.668C149.39 195.668 150.074 195.469 150.708 195.07V197.878C150 198.122 148.991 198.244 147.681 198.244C146.379 198.244 145.378 197.878 144.678 197.146C143.978 196.405 143.628 195.355 143.628 193.996V187.38ZM160.633 187.771C160.088 187.412 159.489 187.233 158.838 187.233C158.13 187.233 157.5 187.555 156.946 188.198C156.401 188.841 156.128 189.626 156.128 190.554V198H153.077V184.926H156.128V186.123C156.983 185.162 158.118 184.682 159.534 184.682C160.576 184.682 161.373 184.841 161.927 185.158L160.633 187.771ZM170.264 196.694C169.987 197.15 169.503 197.524 168.812 197.817C168.128 198.102 167.412 198.244 166.663 198.244C165.255 198.244 164.148 197.894 163.343 197.194C162.537 196.486 162.134 195.485 162.134 194.191C162.134 192.678 162.7 191.494 163.831 190.639C164.97 189.785 166.586 189.357 168.677 189.357C169.035 189.357 169.458 189.418 169.947 189.541C169.947 188.002 168.974 187.233 167.029 187.233C165.882 187.233 164.922 187.425 164.148 187.807L163.489 185.439C164.539 184.934 165.788 184.682 167.237 184.682C169.231 184.682 170.691 185.138 171.619 186.049C172.547 186.953 173.011 188.67 173.011 191.201V193.996C173.011 195.738 173.361 196.832 174.061 197.28C173.808 197.719 173.528 197.988 173.218 198.085C172.909 198.191 172.555 198.244 172.156 198.244C171.717 198.244 171.322 198.081 170.972 197.756C170.622 197.43 170.386 197.076 170.264 196.694ZM169.971 191.848C169.45 191.742 169.06 191.689 168.799 191.689C166.39 191.689 165.186 192.478 165.186 194.057C165.186 195.229 165.866 195.815 167.225 195.815C169.056 195.815 169.971 194.899 169.971 193.068V191.848Z" fill="#1D3461"/>
<defs>
<filter id="filter0_di_25_234" x="0" y="0" width="248" height="248" filterUnits="userSpaceOnUse" color-interpolation-filters="sRGB">
<feFlood flood-opacity="0" result="BackgroundImageFix"/>
<feColorMatrix in="SourceAlpha" type="matrix" values="0 0 0 0 0 0 0 0 0 0 0 0 0 0 0 0 0 0 127 0" result="hardAlpha"/>
<feOffset dy="4"/>
<feGaussianBlur stdDeviation="2"/>
<feComposite in2="hardAlpha" operator="out"/>
<feColorMatrix type="matrix" values="0 0 0 0 0 0 0 0 0 0 0 0 0 0 0 0 0 0 0.25 0"/>
<feBlend mode="normal" in2="BackgroundImageFix" result="effect1_dropShadow_25_234"/>
<feBlend mode="normal" in="SourceGraphic" in2="effect1_dropShadow_25_234" result="shape"/>
<feColorMatrix in="SourceAlpha" type="matrix" values="0 0 0 0 0 0 0 0 0 0 0 0 0 0 0 0 0 0 127 0" result="hardAlpha"/>
<feOffset dy="4"/>
<feGaussianBlur stdDeviation="2"/>
<feComposite in2="hardAlpha" operator="arithmetic" k2="-1" k3="1"/>
<feColorMatrix type="matrix" values="0 0 0 0 0 0 0 0 0 0 0 0 0 0 0 0 0 0 0.25 0"/>
<feBlend mode="normal" in2="shape" result="effect2_innerShadow_25_234"/>
</filter>
</defs>
</svg>
