<svg width="67" height="67" viewBox="0 0 67 67" fill="none" xmlns="http://www.w3.org/2000/svg">
<circle cx="33.5" cy="33.5" r="33.5" fill="#F6F7F8"/>
<path d="M27.0512 18.5507H25.0133C20.2099 18.5507 17.8072 18.5507 16.3155 20.0424C14.8237 21.5342 14.8237 23.9369 14.8237 28.7402V29.7592M27.0512 49.1194H25.0133C20.2099 49.1194 17.8072 49.1194 16.3155 47.6276C14.8237 46.1339 14.8237 43.7332 14.8237 38.9298V37.9109M36.5438 14.163C32.1379 13.3947 29.9349 13.0116 28.4941 14.2894C27.0512 15.5671 27.0512 17.9046 27.0512 22.5776V45.0925C27.0512 49.7654 27.0512 52.1029 28.492 53.3807C29.9328 54.6585 32.1358 54.2753 36.5418 53.507L41.2902 52.6796C46.1689 51.8278 48.6083 51.4019 50.0573 49.6126C51.5062 47.8212 51.5062 45.2331 51.5062 40.0547V27.6153C51.5062 22.439 51.5062 19.8508 50.0593 18.0595C49.0893 16.8633 47.679 16.2763 45.3925 15.7648M33.165 31.7971V35.8729" stroke="#1D3461" stroke-width="5" stroke-linecap="round"/>
</svg>
