<svg width="87" height="87" viewBox="0 0 87 87" fill="none" xmlns="http://www.w3.org/2000/svg">
<circle cx="43.5" cy="43.5" r="43.5" fill="#F6F7F8"/>
<path d="M35.1265 24.0881H32.4803C26.2431 24.0881 23.1231 24.0881 21.1861 26.0252C19.249 27.9622 19.249 31.0822 19.249 37.3194V38.6425M35.1265 63.7819H32.4803C26.2431 63.7819 23.1231 63.7819 21.1861 61.8448C19.249 59.9051 19.249 56.7878 19.249 50.5506V49.2275M47.4528 18.3907C41.7316 17.3931 38.871 16.8956 37.0001 18.5548C35.1265 20.214 35.1265 23.2493 35.1265 29.3171V58.5529C35.1265 64.6207 35.1265 67.656 36.9974 69.3152C38.8683 70.9744 41.7289 70.4769 47.4501 69.4793L53.6159 68.4049C59.951 67.2987 63.1186 66.7457 65 64.4223C66.8815 62.0962 66.8815 58.7355 66.8815 52.0114V35.8586C66.8815 29.1372 66.8815 25.7764 65.0027 23.4504C63.7431 21.897 61.9119 21.1349 58.9428 20.4707M43.0653 41.2888V46.5813" stroke="#1D3461" stroke-width="5" stroke-linecap="round"/>
</svg>
