<svg width="237" height="50" viewBox="0 0 237 50" fill="none" xmlns="http://www.w3.org/2000/svg">
<mask id="path-1-inside-1_76_180" fill="white">
<path d="M30.5084 31.7033V45.4414L7.07275 32.6544L19.424 25.7854L30.5084 31.7033Z"/>
</mask>
<path d="M30.5084 45.4414L13.7447 76.1656L65.5084 104.409V45.4414H30.5084ZM30.5084 31.7033H65.5084V10.7137L46.9925 0.828182L30.5084 31.7033ZM19.424 25.7854L35.9081 -5.08976L19.0822 -14.0731L2.41274 -4.8025L19.424 25.7854ZM7.07275 32.6544L-9.93849 2.06656L-65.4649 32.9472L-9.69102 63.3786L7.07275 32.6544ZM65.5084 45.4414V31.7033H-4.49158V45.4414H65.5084ZM46.9925 0.828182L35.9081 -5.08976L2.93986 56.6605L14.0243 62.5784L46.9925 0.828182ZM2.41274 -4.8025L-9.93849 2.06656L24.084 63.2423L36.4352 56.3732L2.41274 -4.8025ZM-9.69102 63.3786L13.7447 76.1656L47.2722 14.7172L23.8365 1.93023L-9.69102 63.3786Z" fill="#1D3461" mask="url(#path-1-inside-1_76_180)"/>
<path d="M30.5843 4.77631L5.95166 18.3129V31.8486L30.5843 18.3129V4.77631Z" fill="#1D3461"/>
<path d="M33.3589 45.4602L57.9913 31.9248V18.3879L33.3589 31.9248V45.4602Z" fill="#1D3461"/>
<path d="M135.702 4.77631L130.684 6.4528V44.5768H135.702V4.77631ZM189.376 4.77631L184.357 6.4528V25.0688C182.705 23.2416 180.19 21.9685 177.496 21.9685C173.895 21.9685 170.997 23.3576 169.042 25.5599C167.088 27.7629 166.071 30.7482 166.071 33.9287C166.071 37.0818 167.08 39.9405 168.996 42.0113C170.912 44.0823 173.73 45.3346 177.194 45.3346C179.933 45.3346 182.612 44.0526 184.357 42.1839V44.5768H189.376V4.77631ZM76.3135 6.36413L70.9941 8.00651V44.5768H76.3135V6.36413ZM88.4725 21.9502L83.454 23.6279V44.5768H88.4725V31.3023C88.4725 28.5484 91.0523 26.5439 93.6716 26.5439C97.0993 26.5439 98.9198 28.6128 98.9198 31.3023V44.5768H103.939V30.7965C103.939 26.1428 100.283 22.0191 95.1316 22.0191C92.4033 22.0191 90.0393 23.1736 88.4725 24.6859V21.9502ZM146.426 22.0009L141.409 23.6785V36.6057C141.409 41.2548 145.012 45.3852 150.164 45.3852C152.926 45.3852 155.305 44.2283 156.876 42.6946V44.5768H161.892V22.0009L156.876 23.6785V36.1504C156.876 38.848 154.295 40.8603 151.676 40.8603C149.932 40.8603 148.639 40.3223 147.768 39.4874C146.897 38.6525 146.426 37.4992 146.426 36.1504V22.0009ZM119.944 22.0191C113.568 22.0191 108.115 27.2708 108.115 33.7276C108.115 40.1371 113.568 45.3852 119.944 45.3852C121.766 45.3852 124.02 44.954 126.167 43.5545L126.485 43.3487V37.6396L125.286 38.9045C125.286 38.9045 124.903 39.3148 124.019 39.7759C123.134 40.236 121.79 40.7085 119.944 40.7085C116.033 40.7085 113.083 37.6107 113.083 33.7276C113.083 29.7892 116.027 26.7453 119.944 26.7453C121.787 26.7453 123.131 27.2272 124.014 27.6997C124.897 28.1712 125.279 28.5932 125.279 28.5932L126.485 29.8972V24.0453L126.156 23.8418C124.02 22.5021 121.78 22.0191 119.944 22.0191ZM204.846 22.0191C198.9 22.0191 193.523 26.6808 193.523 34.1819C193.523 37.6554 194.973 40.5027 197.259 42.4299C199.544 44.3572 202.638 45.3852 205.955 45.3852C209.772 45.3852 212.175 44.1939 214.222 42.9625L214.56 42.7588V37.7488L213.508 38.3823C211.479 39.6037 209.846 40.7085 205.955 40.7085C203.756 40.7085 202.055 40.1474 200.846 39.2057C199.851 38.4306 199.25 37.329 198.896 36.0411H216.059L216.07 35.3558C216.148 31.0643 215.055 27.717 213.051 25.4424C211.045 23.1668 208.152 22.0191 204.846 22.0191ZM177.749 26.6947C181.633 26.6947 184.357 29.5003 184.357 33.677C184.357 37.7464 181.627 40.6075 177.749 40.6075C173.925 40.6075 171.189 37.7464 171.189 33.677C171.189 29.5003 173.919 26.6947 177.749 26.6947ZM204.846 26.796C206.906 26.796 208.363 27.5881 209.344 28.6508C210.126 29.498 210.5 30.5042 210.655 31.4138H198.941C199.777 28.2437 202.039 26.796 204.846 26.796Z" fill="#1D3461"/>
<path d="M216.339 22.7103C215.707 22.7103 215.181 22.5699 214.759 22.2916C214.336 22.0156 214.027 21.6891 213.83 21.312C213.632 20.9349 213.532 20.6082 213.532 20.3323C213.532 20.0159 213.658 19.725 213.909 19.4583C214.16 19.194 214.443 19.0099 214.759 18.9064L214.938 18.8648C214.977 18.8648 215.003 18.881 215.016 18.9155C215.027 18.9488 215.034 18.9982 215.034 19.0627C215.113 19.8045 215.279 20.4162 215.53 20.8982C215.781 21.3785 216.268 21.6202 216.992 21.6202C217.479 21.6202 217.885 21.4741 218.214 21.1831C218.545 20.8911 218.822 20.4198 219.045 19.7666C219.272 19.1134 219.477 18.2199 219.661 17.0847L221.361 6.26204H221.26C220.996 6.26204 220.647 6.21611 220.212 6.124C219.553 6.00442 219.047 5.94467 218.692 5.94467C218.073 5.94467 217.612 6.02734 217.309 6.19286C217.005 6.35854 216.716 6.58732 216.44 6.87841C216.36 6.97028 216.29 7.04393 216.229 7.09921C216.17 7.15193 216.115 7.17725 216.064 7.17725C215.972 7.17725 215.926 7.13012 215.926 7.03474L215.944 6.81842C216.064 6.11921 216.39 5.60405 216.923 5.27294C217.456 4.94174 218.216 4.77631 219.206 4.77631C219.626 4.77631 220.067 4.81074 220.53 4.8776C220.622 4.89022 220.808 4.90963 221.09 4.93735C221.375 4.96259 221.669 4.9741 221.973 4.9741C222.248 4.9741 222.469 4.96259 222.634 4.93735C222.799 4.90963 222.988 4.85659 223.199 4.77631C222.999 5.34443 222.869 5.82404 222.808 6.21611C222.75 6.60577 222.714 6.85876 222.703 6.97499L221.338 15.8752C220.998 18.0806 220.393 19.7689 219.523 20.944C218.653 22.1215 217.591 22.7103 216.339 22.7103Z" fill="#1D3461"/>
<path d="M224.433 18.7271C224.38 18.7271 224.338 18.7156 224.304 18.6947C224.273 18.6764 224.258 18.6544 224.258 18.6302C224.258 18.5902 224.296 18.5051 224.374 18.3727C224.453 18.2382 224.512 18.0533 224.552 17.8162C224.604 17.5382 224.65 17.2825 224.69 17.0526C224.73 16.8227 224.77 16.6087 224.81 16.4089C225.141 14.5999 225.361 13.335 225.471 12.6141C225.584 11.8943 225.634 11.3698 225.619 11.0409C225.619 10.8696 225.605 10.7442 225.577 10.6638C225.552 10.5843 225.494 10.5444 225.403 10.5444C225.283 10.5444 225.132 10.6444 224.948 10.8431C224.764 11.0397 224.592 11.27 224.433 11.5331C224.369 11.6527 224.309 11.7562 224.254 11.8414C224.201 11.9276 224.159 11.9909 224.125 12.03C224.094 12.0701 224.058 12.0898 224.019 12.0898C223.967 12.0898 223.928 12.0701 223.9 12.03C223.875 11.9909 223.863 11.9379 223.863 11.8735C223.863 11.6229 224.004 11.2732 224.286 10.8249C224.571 10.3742 224.906 9.97386 225.292 9.62438C225.681 9.27234 226.028 9.0954 226.331 9.0954C226.581 9.0954 226.756 9.19549 226.855 9.39424C226.952 9.59434 227.001 9.90373 227.001 10.3236C227.001 10.9064 226.877 11.6929 226.629 12.683H226.666C227.918 10.2912 229.078 9.0954 230.145 9.0954C230.422 9.0954 230.637 9.17248 230.788 9.3253C230.94 9.47604 231.017 9.69092 231.017 9.96939C231.017 10.2614 230.954 10.5581 230.829 10.8617C230.703 11.1652 230.551 11.4171 230.374 11.6158C230.196 11.8124 230.034 11.9103 229.887 11.9103C229.795 11.9103 229.763 11.8505 229.79 11.731C229.83 11.5469 229.85 11.4034 229.85 11.2986C229.85 10.98 229.678 10.8201 229.336 10.8201C228.928 10.8201 228.519 11.0583 228.109 11.5331C227.701 12.0091 227.343 12.5899 227.034 13.2764C226.724 13.9641 226.51 14.592 226.39 15.1622C226.234 15.7695 226.135 16.403 226.096 17.0618C226.069 17.3138 225.952 17.5679 225.747 17.8254C225.545 18.083 225.312 18.2982 225.049 18.4694C224.785 18.6409 224.58 18.7271 224.433 18.7271Z" fill="#1D3461"/>
</svg>
