<svg width="300" height="63" viewBox="0 0 300 63" fill="none" xmlns="http://www.w3.org/2000/svg">
<mask id="path-1-inside-1_13_59" fill="white">
<path d="M38.6184 39.9462V57.2562L8.953 41.1446L24.5875 32.4896L38.6184 39.9462Z"/>
</mask>
<path d="M38.6184 57.2562L21.9142 88.0128L73.6184 116.094V57.2562H38.6184ZM38.6184 39.9462H73.6184V18.9111L55.0434 9.03962L38.6184 39.9462ZM24.5875 32.4896L41.0125 1.58301L24.2469 -7.32693L7.6361 1.86854L24.5875 32.4896ZM8.953 41.1446L-7.99837 10.5235L-63.842 41.4377L-7.75125 71.9012L8.953 41.1446ZM73.6184 57.2562V39.9462H3.61841V57.2562H73.6184ZM55.0434 9.03962L41.0125 1.58301L8.16245 63.3962L22.1934 70.8528L55.0434 9.03962ZM7.6361 1.86854L-7.99837 10.5235L25.9044 71.7657L41.5388 63.1107L7.6361 1.86854ZM-7.75125 71.9012L21.9142 88.0128L55.3227 26.4997L25.6573 10.388L-7.75125 71.9012Z" fill="white" mask="url(#path-1-inside-1_13_59)"/>
<path d="M38.7144 6.01819L7.53381 23.0743V40.1293L38.7144 23.0743V6.01819Z" fill="white"/>
<path d="M42.2264 57.2799L73.4066 40.2253V23.1688L42.2264 40.2253V57.2799Z" fill="white"/>
<path d="M171.775 6.01819L165.422 8.13057V56.1669H171.775V6.01819ZM239.716 6.01819L233.364 8.13057V31.5868C231.273 29.2845 228.089 27.6804 224.679 27.6804C220.12 27.6804 216.452 29.4306 213.977 32.2055C211.504 34.9814 210.217 38.7428 210.217 42.7502C210.217 46.7231 211.494 50.325 213.919 52.9343C216.344 55.5437 219.911 57.1216 224.296 57.1216C227.763 57.1216 231.155 55.5064 233.364 53.1517V56.1669H239.716V6.01819ZM96.5994 8.01885L89.8661 10.0882V56.1669H96.5994V8.01885ZM111.991 27.6573L105.638 29.7712V56.1669H111.991V39.4409C111.991 35.9711 115.256 33.4454 118.572 33.4454C122.911 33.4454 125.215 36.0522 125.215 39.4409V56.1669H131.568V38.8036C131.568 32.9399 126.941 27.7441 120.42 27.7441C116.966 27.7441 113.974 29.1988 111.991 31.1043V27.6573ZM185.35 27.7211L178.999 29.8349V46.1232C178.999 51.9812 183.56 57.1855 190.081 57.1855C193.577 57.1855 196.588 55.7277 198.577 53.7953V56.1669H204.927V27.7211L198.577 29.8349V45.5495C198.577 48.9485 195.31 51.484 191.995 51.484C189.788 51.484 188.15 50.8061 187.048 49.7541C185.946 48.7022 185.35 47.249 185.35 45.5495V27.7211ZM151.828 27.7441C143.757 27.7441 136.855 34.3612 136.855 42.4968C136.855 50.5728 143.757 57.1855 151.828 57.1855C154.135 57.1855 156.987 56.642 159.705 54.8787L160.108 54.6194V47.426L158.59 49.0198C158.59 49.0198 158.106 49.5367 156.986 50.1177C155.866 50.6974 154.165 51.2927 151.828 51.2927C146.878 51.2927 143.143 47.3895 143.143 42.4968C143.143 37.5344 146.87 33.6992 151.828 33.6992C154.161 33.6992 155.862 34.3063 156.98 34.9016C158.098 35.4958 158.581 36.0274 158.581 36.0274L160.108 37.6706V30.2971L159.692 30.0408C156.987 28.3527 154.152 27.7441 151.828 27.7441ZM259.299 27.7441C251.772 27.7441 244.965 33.6178 244.965 43.0692C244.965 47.4459 246.802 51.0334 249.695 53.4617C252.588 55.8902 256.504 57.1855 260.703 57.1855C265.534 57.1855 268.576 55.6843 271.167 54.1328L271.595 53.8761V47.5635L270.263 48.3617C267.695 49.9007 265.627 51.2927 260.703 51.2927C257.919 51.2927 255.766 50.5857 254.235 49.3992C252.976 48.4226 252.215 47.0346 251.768 45.4118H273.492L273.507 44.5483C273.606 39.1411 272.222 34.9235 269.684 32.0574C267.145 29.1903 263.484 27.7441 259.299 27.7441ZM224.999 33.6353C229.915 33.6353 233.364 37.1704 233.364 42.433C233.364 47.5605 229.907 51.1655 224.999 51.1655C220.158 51.1655 216.695 47.5605 216.695 42.433C216.695 37.1704 220.151 33.6353 224.999 33.6353ZM259.299 33.763C261.906 33.763 263.75 34.761 264.992 36.1C265.982 37.1675 266.456 38.4353 266.652 39.5815H251.824C252.883 35.5871 255.746 33.763 259.299 33.763Z" fill="white"/>
<path d="M273.847 28.615C273.048 28.615 272.382 28.4381 271.846 28.0875C271.311 27.7397 270.92 27.3283 270.672 26.8532C270.42 26.378 270.293 25.9664 270.293 25.6187C270.293 25.22 270.453 24.8536 270.771 24.5175C271.089 24.1844 271.447 23.9525 271.846 23.8221L272.073 23.7698C272.123 23.7698 272.156 23.7901 272.172 23.8336C272.187 23.8755 272.196 23.9377 272.196 24.0191C272.296 24.9537 272.505 25.7245 272.823 26.3317C273.141 26.937 273.757 27.2415 274.673 27.2415C275.29 27.2415 275.804 27.0574 276.22 26.6908C276.639 26.3228 276.99 25.7289 277.273 24.9059C277.559 24.0829 277.82 22.9571 278.052 21.5268L280.204 7.89021H280.076C279.742 7.89021 279.3 7.83234 278.75 7.71629C277.916 7.56561 277.274 7.49032 276.825 7.49032C276.041 7.49032 275.458 7.5945 275.074 7.80305C274.691 8.0118 274.324 8.30007 273.975 8.66684C273.874 8.78259 273.785 8.87539 273.707 8.94504C273.633 9.01147 273.564 9.04338 273.498 9.04338C273.382 9.04338 273.324 8.984 273.324 8.86382L273.347 8.59125C273.498 7.71025 273.911 7.06114 274.586 6.64394C275.26 6.22664 276.223 6.01819 277.476 6.01819C278.007 6.01819 278.565 6.06157 279.151 6.14581C279.268 6.16172 279.504 6.18618 279.861 6.2211C280.222 6.25291 280.594 6.2674 280.978 6.2674C281.327 6.2674 281.606 6.25291 281.815 6.2211C282.025 6.18618 282.263 6.11934 282.531 6.01819C282.278 6.73402 282.113 7.33834 282.036 7.83234C281.962 8.32332 281.917 8.64208 281.903 8.78853L280.175 20.0028C279.745 22.7817 278.978 24.9088 277.878 26.3895C276.775 27.8731 275.432 28.615 273.847 28.615Z" fill="white"/>
<path d="M284.093 23.5961C284.025 23.5961 283.971 23.5817 283.929 23.5553C283.89 23.5323 283.871 23.5045 283.871 23.4741C283.871 23.4237 283.919 23.3165 284.017 23.1496C284.117 22.9801 284.193 22.7471 284.244 22.4485C284.309 22.0981 284.367 21.776 284.418 21.4863C284.468 21.1967 284.518 20.927 284.569 20.6752C284.988 18.3959 285.267 16.8021 285.407 15.8937C285.549 14.9868 285.612 14.326 285.593 13.9116C285.593 13.6957 285.575 13.5377 285.54 13.4364C285.508 13.3363 285.436 13.2859 285.32 13.2859C285.168 13.2859 284.976 13.4119 284.744 13.6623C284.511 13.9101 284.293 14.2001 284.093 14.5317C284.011 14.6824 283.935 14.8128 283.865 14.9201C283.799 15.0288 283.745 15.1085 283.703 15.1579C283.663 15.2083 283.618 15.2331 283.569 15.2331C283.502 15.2331 283.453 15.2083 283.418 15.1579C283.386 15.1085 283.371 15.0417 283.371 14.9606C283.371 14.6448 283.549 14.2042 283.906 13.6393C284.267 13.0715 284.691 12.5671 285.18 12.1267C285.671 11.6831 286.111 11.4602 286.495 11.4602C286.811 11.4602 287.032 11.5863 287.157 11.8367C287.281 12.0889 287.344 12.4787 287.344 13.0077C287.344 13.7421 287.186 14.7331 286.872 15.9806H286.919C288.504 12.9669 289.973 11.4602 291.322 11.4602C291.674 11.4602 291.945 11.5573 292.136 11.7499C292.33 11.9398 292.427 12.2106 292.427 12.5614C292.427 12.9293 292.347 13.3032 292.189 13.6857C292.028 14.0681 291.836 14.3856 291.613 14.636C291.387 14.8837 291.182 15.007 290.996 15.007C290.88 15.007 290.839 14.9316 290.874 14.781C290.923 14.5491 290.95 14.3682 290.95 14.2362C290.95 13.8348 290.732 13.6334 290.298 13.6334C289.782 13.6334 289.264 13.9334 288.745 14.5317C288.229 15.1315 287.775 15.8633 287.384 16.7283C286.992 17.5947 286.721 18.386 286.57 19.1044C286.372 19.8696 286.247 20.6677 286.198 21.4979C286.163 21.8154 286.015 22.1355 285.756 22.46C285.5 22.7845 285.205 23.0557 284.872 23.2715C284.537 23.4875 284.279 23.5961 284.093 23.5961Z" fill="white"/>
</svg>
