<svg width="260" height="360" viewBox="0 0 260 360" fill="none" xmlns="http://www.w3.org/2000/svg">
<path d="M96.7592 80.5975C100.478 80.5975 103.492 77.6477 103.492 74.0089C103.492 70.3702 100.478 67.4204 96.7592 67.4204C94.2669 67.4204 92.0911 68.7454 90.927 70.7147H90.0261C84.4482 70.7147 79.9264 75.1394 79.9264 80.5975V110.246H86.6595V80.5975C86.6595 78.7781 88.1668 77.3032 90.0261 77.3032H90.927C92.0911 79.2725 94.2669 80.5975 96.7592 80.5975Z" fill="#1D3461"/>
<path fill-rule="evenodd" clip-rule="evenodd" d="M90.5654 110.246H86.6595H79.9264C78.0671 110.246 76.544 111.724 76.7127 113.536C77.4954 121.94 81.2584 129.853 87.4064 135.869C91.9147 140.281 97.4655 143.437 103.492 145.109V153.071C103.492 157.375 106.303 161.036 110.227 162.392C110.37 175.462 121.242 186.014 134.633 186.014C148.113 186.014 159.041 175.321 159.041 162.131V148.954C159.041 142.131 164.693 136.6 171.665 136.6C178.638 136.6 184.29 142.131 184.29 148.954V156.928C180.367 158.285 177.557 161.946 177.557 166.248C177.557 171.707 182.078 176.131 187.656 176.131C193.234 176.131 197.756 171.707 197.756 166.248C197.756 161.946 194.946 158.285 191.023 156.928V148.954C191.023 138.492 182.356 130.012 171.665 130.012C160.974 130.012 152.307 138.492 152.307 148.954V162.131C152.307 171.682 144.394 179.426 134.633 179.426C124.96 179.426 117.103 171.823 116.961 162.391C120.882 161.034 123.692 157.374 123.692 153.071V145.109C129.718 143.437 135.27 140.281 139.778 135.869C145.926 129.853 149.689 121.94 150.471 113.536C150.64 111.724 149.117 110.246 147.258 110.246V80.5975C147.258 75.1394 142.736 70.7147 137.158 70.7147H136.257C135.093 68.7454 132.917 67.4204 130.425 67.4204C126.706 67.4204 123.692 70.3702 123.692 74.0089C123.692 77.6477 126.706 80.5975 130.425 80.5975C132.917 80.5975 135.093 79.2725 136.257 77.3032H137.158C139.017 77.3032 140.524 78.7781 140.524 80.5975V110.246H136.619C134.76 110.246 133.282 111.731 132.965 113.524C132.278 117.41 130.382 121.024 127.494 123.849C123.807 127.457 118.806 129.484 113.592 129.484C108.378 129.484 103.377 127.457 99.6901 123.849C96.8026 121.024 94.9059 117.41 94.2191 113.524C93.9023 111.731 92.4244 110.246 90.5654 110.246ZM139.112 116.834H143.134C141.875 122.236 139.084 127.231 135.017 131.211C129.335 136.771 121.628 139.894 113.592 139.894C105.556 139.894 97.8496 136.771 92.1675 131.211C88.1003 127.231 85.3087 122.236 84.0505 116.834H88.0719C89.2525 121.213 91.6002 125.251 94.9291 128.508C99.879 133.352 106.592 136.073 113.592 136.073C120.592 136.073 127.305 133.352 132.255 128.508C135.584 125.251 137.932 121.213 139.112 116.834ZM187.656 162.954C189.516 162.954 191.023 164.429 191.023 166.248C191.023 168.068 189.516 169.543 187.656 169.543C185.797 169.543 184.29 168.068 184.29 166.248C184.29 164.429 185.797 162.954 187.656 162.954ZM116.959 146.483V153.071C116.959 154.891 115.451 156.366 113.592 156.366C111.733 156.366 110.225 154.891 110.225 153.071V146.483H116.959Z" fill="#1D3461"/>
</svg>
