<svg width="200" height="283" viewBox="0 0 200 283" fill="none" xmlns="http://www.w3.org/2000/svg">
<path fill-rule="evenodd" clip-rule="evenodd" d="M96.2794 126.619C91.5272 121.374 84.2372 114.004 80.2183 115C65.2069 118.719 50 126.3 50 137.707V156H150V137.707C150 126.3 134.793 118.719 119.782 115C115.903 114.039 108.594 121.461 103.789 126.674C103.141 127.377 102.539 128.039 101.997 128.636C101.177 129.538 100.495 130.289 100 130.799C99.6567 130.422 99.2197 129.926 98.7064 129.344C98.02 128.565 97.1969 127.632 96.2794 126.619ZM119.047 120.587C118.799 120.69 118.417 120.88 117.897 121.207C116.512 122.077 114.817 123.486 112.971 125.239C110.396 127.682 108.185 130.12 106.379 132.111C105.473 133.11 104.669 133.996 103.972 134.715L99.8689 138.944L95.9039 134.582C95.4917 134.129 95 133.572 94.4422 132.939C92.5703 130.817 89.9564 127.854 87.1231 125.165C85.2942 123.429 83.6103 122.043 82.2308 121.192C81.6211 120.816 81.2319 120.644 81.0292 120.567C74.0428 122.341 67.3728 124.922 62.545 128.141C57.4795 131.518 55.5556 134.791 55.5556 137.707V150.4H144.444V137.707C144.444 134.791 142.521 131.518 137.455 128.141C132.645 124.934 126.006 122.36 119.047 120.587Z" fill="#1D3461"/>
<path d="M116.667 133.6H133.333V139.2H116.667V133.6Z" fill="#1D3461"/>
<path d="M122.222 144.799V128H127.778V144.799H122.222Z" fill="#1D3461"/>
<path fill-rule="evenodd" clip-rule="evenodd" d="M100 49.6C93.7795 49.6 86.0309 51.6677 80.9309 53.2977C79.6539 53.7059 78.9042 55.1373 79.4123 56.5882L85.0339 72.6439C94.9984 69.4519 105.002 69.4519 114.966 72.6439L120.588 56.5882C121.096 55.1373 120.346 53.7059 119.069 53.2977C113.969 51.6677 106.221 49.6 100 49.6ZM79.2517 47.9597C84.4178 46.3084 92.8639 44 100 44C107.136 44 115.582 46.3084 120.749 47.9597C125.194 49.3805 127.317 54.1969 125.827 58.452L119.286 77.1317C119.038 77.8409 118.517 78.4197 117.841 78.7375C117.165 79.0553 116.39 79.0855 115.691 78.8215C105.209 74.8592 94.7912 74.8592 84.3089 78.8215C83.6103 79.0855 82.8356 79.0553 82.1595 78.7375C81.4834 78.4197 80.9623 77.8409 80.7139 77.1317L74.1734 58.452C72.6837 54.1968 74.8067 49.3805 79.2517 47.9597Z" fill="#1D3461"/>
<path d="M91.6666 58H108.333V63.6H91.6666V58Z" fill="#1D3461"/>
<path d="M97.2222 69.1998V52.3999H102.778V69.1998H97.2222Z" fill="#1D3461"/>
<path fill-rule="evenodd" clip-rule="evenodd" d="M85.4158 75.8362C82.3892 79.293 80.5556 83.827 80.5556 88.7998C80.5556 99.6246 89.2611 108.4 100 108.4C110.739 108.4 119.444 99.6246 119.444 88.7998C119.444 83.827 117.611 79.293 114.584 75.8362L118.749 72.1304C122.638 76.5711 125 82.4108 125 88.7998C125 102.717 113.807 114 100 114C86.1928 114 75 102.717 75 88.7998C75 82.4108 77.3625 76.5711 81.2508 72.1304L85.4158 75.8362Z" fill="#1D3461"/>
</svg>
